M48
; DRILL file {KiCad (6.99.0-3568-gdcfcfd5f29)} date Tue Oct 11 21:14:35 2022
; FORMAT={-:-/ absolute / inch / decimal}
; #@! TF.CreationDate,2022-10-11T21:14:35+03:00
; #@! TF.GenerationSoftware,Kicad,Pcbnew,(6.99.0-3568-gdcfcfd5f29)
; #@! TF.FileFunction,Plated,1,2,PTH
FMAT,2
INCH
; #@! TA.AperFunction,Plated,PTH,ViaDrill
T1C0.0157
; #@! TA.AperFunction,Plated,PTH,ComponentDrill
T2C0.0276
; #@! TA.AperFunction,Plated,PTH,ComponentDrill
T3C0.0394
; #@! TA.AperFunction,Plated,PTH,ComponentDrill
T4C0.0472
; #@! TA.AperFunction,Plated,PTH,ComponentDrill
T5C0.0551
%
G90
G05
T1
X2.01Y-3.11
X2.17Y-3.54
X2.2498Y-3.3598
X2.25Y-2.865
X2.3Y-4.63
X2.34Y-3.53
X2.35Y-2.865
X2.35Y-3.4
X2.43Y-3.5
X2.45Y-3.89
X2.52Y-3.4
X2.61Y-4.03
X2.76Y-3.82
X3.14Y-4.33
X3.21Y-3.36
X3.21Y-4.23
X3.3Y-3.59
X3.37Y-4.08
X3.41Y-3.55
X3.425Y-3.785
X3.44Y-3.4
X3.455Y-3.675
X3.475Y-3.865
X3.5092Y-3.6888
X3.513Y-3.802
X3.5273Y-3.8676
X3.53Y-3.49
X3.5612Y-3.8875
X3.565Y-3.775
X3.57Y-3.715
X3.58Y-3.37
X3.6Y-2.99
X3.71Y-3.13
X3.72Y-4.35
X3.8825Y-3.4167
X3.9Y-3.38
X3.98Y-3.67
X3.9806Y-3.2806
X4.01Y-4.01
X4.0202Y-4.4798
X4.05Y-3.51
X4.05Y-3.61
X4.09Y-2.77
X4.1Y-3.02
X4.15Y-2.94
X4.18Y-3.61
X4.2Y-3.0
X4.21Y-3.125
X4.23Y-2.87
X4.27Y-3.24
X4.27Y-3.34
X4.37Y-3.86
X4.37Y-4.18
X4.51Y-3.0
T2
X2.13Y-2.9081
X2.13Y-3.0081
X2.13Y-3.1081
X2.13Y-3.2081
X2.4681Y-4.5965
X2.5681Y-4.5965
X2.6681Y-4.5965
X2.7681Y-4.5965
T3
X2.579Y-3.5108
X2.579Y-3.6108
X2.679Y-3.5108
X2.679Y-3.6108
X2.779Y-3.5108
X2.779Y-3.6108
X2.879Y-3.5108
X2.879Y-3.6108
X2.941Y-4.0504
X2.941Y-4.1504
X2.941Y-4.2504
X2.941Y-4.3504
X2.979Y-3.5108
X2.979Y-3.6108
X3.079Y-3.5108
X3.079Y-3.6108
X3.5208Y-4.259
X3.6208Y-4.259
X4.03Y-2.57
X4.0312Y-2.169
X4.13Y-2.57
X4.1312Y-2.169
X4.23Y-2.57
X4.2312Y-2.169
X4.33Y-2.57
X4.3312Y-2.169
X4.43Y-2.57
X4.4312Y-2.169
T4
X2.9487Y-2.5508
X2.9487Y-3.2397
X3.244Y-2.413
X3.244Y-3.2397
X3.3687Y-2.5508
X3.3687Y-3.2397
X3.664Y-2.413
X3.664Y-3.2397
T5
X2.2387Y-4.0
X2.2387Y-4.2
X2.2387Y-4.4
X2.41Y-2.24
X2.61Y-2.24
X2.81Y-2.24
X3.01Y-2.2387
X3.21Y-2.2387
X3.41Y-2.24
X3.61Y-2.24
X4.5363Y-3.5764
X4.5363Y-3.7764
X4.5363Y-3.9764
X4.5363Y-4.1764
X4.5363Y-4.3764
T0
M30
