%TF.GenerationSoftware,KiCad,Pcbnew,(6.99.0-3568-gdcfcfd5f29)*%
%TF.CreationDate,2022-10-11T21:14:32+03:00*%
%TF.ProjectId,welder ac diy mainboard,77656c64-6572-4206-9163-20646979206d,rev?*%
%TF.SameCoordinates,Original*%
%TF.FileFunction,Copper,L2,Bot*%
%TF.FilePolarity,Positive*%
%FSLAX46Y46*%
G04 Gerber Fmt 4.6, Leading zero omitted, Abs format (unit mm)*
G04 Created by KiCad (PCBNEW (6.99.0-3568-gdcfcfd5f29)) date 2022-10-11 21:14:32*
%MOMM*%
%LPD*%
G01*
G04 APERTURE LIST*
G04 Aperture macros list*
%AMRoundRect*
0 Rectangle with rounded corners*
0 $1 Rounding radius*
0 $2 $3 $4 $5 $6 $7 $8 $9 X,Y pos of 4 corners*
0 Add a 4 corners polygon primitive as box body*
4,1,4,$2,$3,$4,$5,$6,$7,$8,$9,$2,$3,0*
0 Add four circle primitives for the rounded corners*
1,1,$1+$1,$2,$3*
1,1,$1+$1,$4,$5*
1,1,$1+$1,$6,$7*
1,1,$1+$1,$8,$9*
0 Add four rect primitives between the rounded corners*
20,1,$1+$1,$2,$3,$4,$5,0*
20,1,$1+$1,$4,$5,$6,$7,0*
20,1,$1+$1,$6,$7,$8,$9,0*
20,1,$1+$1,$8,$9,$2,$3,0*%
G04 Aperture macros list end*
%TA.AperFunction,SMDPad,CuDef*%
%ADD10RoundRect,0.250000X0.450000X-0.262500X0.450000X0.262500X-0.450000X0.262500X-0.450000X-0.262500X0*%
%TD*%
%TA.AperFunction,SMDPad,CuDef*%
%ADD11R,1.500000X1.000000*%
%TD*%
%TA.AperFunction,SMDPad,CuDef*%
%ADD12RoundRect,0.250000X0.475000X-0.250000X0.475000X0.250000X-0.475000X0.250000X-0.475000X-0.250000X0*%
%TD*%
%TA.AperFunction,ComponentPad*%
%ADD13R,2.500000X2.500000*%
%TD*%
%TA.AperFunction,ComponentPad*%
%ADD14O,2.500000X2.500000*%
%TD*%
%TA.AperFunction,ComponentPad*%
%ADD15RoundRect,0.249999X-1.550001X0.790001X-1.550001X-0.790001X1.550001X-0.790001X1.550001X0.790001X0*%
%TD*%
%TA.AperFunction,ComponentPad*%
%ADD16O,3.600000X2.080000*%
%TD*%
%TA.AperFunction,ComponentPad*%
%ADD17R,1.500000X2.000000*%
%TD*%
%TA.AperFunction,ComponentPad*%
%ADD18O,1.500000X2.000000*%
%TD*%
%TA.AperFunction,ComponentPad*%
%ADD19R,2.000000X1.500000*%
%TD*%
%TA.AperFunction,ComponentPad*%
%ADD20O,2.000000X1.500000*%
%TD*%
%TA.AperFunction,ComponentPad*%
%ADD21O,1.700000X1.700000*%
%TD*%
%TA.AperFunction,ComponentPad*%
%ADD22R,1.700000X1.700000*%
%TD*%
%TA.AperFunction,ComponentPad*%
%ADD23RoundRect,0.249999X0.790001X1.550001X-0.790001X1.550001X-0.790001X-1.550001X0.790001X-1.550001X0*%
%TD*%
%TA.AperFunction,ComponentPad*%
%ADD24O,2.080000X3.600000*%
%TD*%
%TA.AperFunction,ComponentPad*%
%ADD25RoundRect,0.249999X1.550001X-0.790001X1.550001X0.790001X-1.550001X0.790001X-1.550001X-0.790001X0*%
%TD*%
%TA.AperFunction,ViaPad*%
%ADD26C,0.800000*%
%TD*%
%TA.AperFunction,Conductor*%
%ADD27C,0.200000*%
%TD*%
%TA.AperFunction,Conductor*%
%ADD28C,0.400000*%
%TD*%
%TA.AperFunction,Conductor*%
%ADD29C,0.500000*%
%TD*%
%TA.AperFunction,Conductor*%
%ADD30C,1.000000*%
%TD*%
%TA.AperFunction,Conductor*%
%ADD31C,1.200000*%
%TD*%
G04 APERTURE END LIST*
D10*
%TO.P,R32,1*%
%TO.N,Net-(D7-K)*%
X61468000Y-66317500D03*
%TO.P,R32,2*%
%TO.N,Net-(J6-Pin_2)*%
X61468000Y-64492500D03*
%TD*%
%TO.P,R31,1*%
%TO.N,Net-(U4-~{CS})*%
X68326000Y-66317500D03*
%TO.P,R31,2*%
%TO.N,Net-(J6-Pin_1)*%
X68326000Y-64492500D03*
%TD*%
D11*
%TO.P,JP4,1,A*%
%TO.N,Net-(D7-K)*%
X59054999Y-66054999D03*
%TO.P,JP4,2,B*%
%TO.N,Net-(J6-Pin_3)*%
X59054999Y-64754999D03*
%TD*%
%TO.P,JP3,1,A*%
%TO.N,Net-(U4-~{CS})*%
X66039999Y-66054999D03*
%TO.P,JP3,2,B*%
%TO.N,Net-(J6-Pin_2)*%
X66039999Y-64754999D03*
%TD*%
D12*
%TO.P,C10,1*%
%TO.N,Net-(D7-K)*%
X63627000Y-66355000D03*
%TO.P,C10,2*%
%TO.N,Net-(J6-Pin_2)*%
X63627000Y-64455000D03*
%TD*%
D13*
%TO.P,K1,1*%
%TO.N,+15V*%
X93065499Y-82289499D03*
D14*
%TO.P,K1,3*%
%TO.N,Net-(J4-Pin_1)*%
X93065499Y-61289499D03*
%TO.P,K1,5*%
%TO.N,Net-(J4-Pin_2)*%
X85565499Y-64789499D03*
%TO.P,K1,6*%
%TO.N,Net-(U2-O6)*%
X85565499Y-82289499D03*
%TD*%
D15*
%TO.P,J7,1,Pin_1*%
%TO.N,+15V*%
X56863500Y-101600000D03*
D16*
%TO.P,J7,2,Pin_2*%
%TO.N,+5V*%
X56863499Y-106679999D03*
%TO.P,J7,3,Pin_3*%
%TO.N,GND*%
X56863499Y-111759999D03*
%TD*%
D17*
%TO.P,U9,1,-VIN*%
%TO.N,GND*%
X70310499Y-116750499D03*
D18*
%TO.P,U9,2,+VIN*%
%TO.N,+15V*%
X67770499Y-116750499D03*
%TO.P,U9,3,-VOUT*%
%TO.N,/PED_GND*%
X65230499Y-116750499D03*
%TO.P,U9,4,+VOUT*%
%TO.N,/PED_VCC*%
X62690499Y-116750499D03*
%TD*%
D19*
%TO.P,U3,1,-VIN*%
%TO.N,GND*%
X54101999Y-81486499D03*
D20*
%TO.P,U3,2,+VIN*%
%TO.N,+15V*%
X54101999Y-78946499D03*
%TO.P,U3,3,-VOUT*%
%TO.N,Net-(D7-K)*%
X54101999Y-76406499D03*
%TO.P,U3,4,+VOUT*%
%TO.N,Net-(U3-+VOUT)*%
X54101999Y-73866499D03*
%TD*%
D21*
%TO.P,J3,12,Pin_12*%
%TO.N,GND*%
X65506999Y-89173999D03*
%TO.P,J3,11,Pin_11*%
%TO.N,/LCD_SCL*%
X65506999Y-91713999D03*
%TO.P,J3,10,Pin_10*%
%TO.N,/SPI_MOSI*%
X68046999Y-89173999D03*
%TO.P,J3,9,Pin_9*%
%TO.N,/LCD_SDA*%
X68046999Y-91713999D03*
%TO.P,J3,8,Pin_8*%
%TO.N,/KB0*%
X70586999Y-89173999D03*
%TO.P,J3,7,Pin_7*%
%TO.N,/SPI_MISO*%
X70586999Y-91713999D03*
%TO.P,J3,6,Pin_6*%
%TO.N,/KB1*%
X73126999Y-89173999D03*
%TO.P,J3,5,Pin_5*%
%TO.N,/SPI_SCK*%
X73126999Y-91713999D03*
%TO.P,J3,4,Pin_4*%
%TO.N,/T_CS*%
X75666999Y-89173999D03*
%TO.P,J3,3,Pin_3*%
%TO.N,/LCD_CS*%
X75666999Y-91713999D03*
%TO.P,J3,2,Pin_2*%
%TO.N,/LCD_RST*%
X78206999Y-89173999D03*
D22*
%TO.P,J3,1,Pin_1*%
%TO.N,+5V*%
X78206999Y-91713999D03*
%TD*%
D23*
%TO.P,J4,1,Pin_1*%
%TO.N,Net-(J4-Pin_1)*%
X91694000Y-56896000D03*
D24*
%TO.P,J4,2,Pin_2*%
%TO.N,Net-(J4-Pin_2)*%
X86613999Y-56895999D03*
%TD*%
D23*
%TO.P,J5,1,Pin_1*%
%TO.N,Net-(J5-Pin_1)*%
X81534000Y-56863500D03*
D24*
%TO.P,J5,2,Pin_2*%
%TO.N,Net-(J5-Pin_2)*%
X76453999Y-56863499D03*
%TD*%
D22*
%TO.P,J9,1,Pin_1*%
%TO.N,GND*%
X89427999Y-108178999D03*
D21*
%TO.P,J9,2,Pin_2*%
%TO.N,Net-(J9-Pin_2)*%
X91967999Y-108178999D03*
%TD*%
D22*
%TO.P,J8,1,Pin_1*%
%TO.N,GND*%
X74700999Y-102879999D03*
D21*
%TO.P,J8,2,Pin_2*%
%TO.N,+15V*%
X74700999Y-105419999D03*
%TO.P,J8,3,Pin_3*%
%TO.N,GND*%
X74700999Y-107959999D03*
%TO.P,J8,4,Pin_4*%
%TO.N,+5V*%
X74700999Y-110499999D03*
%TD*%
D22*
%TO.P,J2,1,Pin_1*%
%TO.N,+15V*%
X102391999Y-55092999D03*
D21*
%TO.P,J2,2,Pin_2*%
%TO.N,+5V*%
X104931999Y-55092999D03*
%TO.P,J2,3,Pin_3*%
%TO.N,/CLK2*%
X107471999Y-55092999D03*
%TO.P,J2,4,Pin_4*%
%TO.N,/EN2*%
X110011999Y-55092999D03*
%TO.P,J2,5,Pin_5*%
%TO.N,GND*%
X112551999Y-55092999D03*
%TD*%
D22*
%TO.P,J1,1,Pin_1*%
%TO.N,+15V*%
X102361999Y-65277999D03*
D21*
%TO.P,J1,2,Pin_2*%
%TO.N,+5V*%
X104901999Y-65277999D03*
%TO.P,J1,3,Pin_3*%
%TO.N,/EN2*%
X107441999Y-65277999D03*
%TO.P,J1,4,Pin_4*%
%TO.N,/CLK2*%
X109981999Y-65277999D03*
%TO.P,J1,5,Pin_5*%
%TO.N,GND*%
X112521999Y-65277999D03*
%TD*%
D25*
%TO.P,J10,1,Pin_1*%
%TO.N,/PED_VCC*%
X115222500Y-111160000D03*
D16*
%TO.P,J10,2,Pin_2*%
%TO.N,/PED_TX*%
X115222499Y-106079999D03*
%TO.P,J10,3,Pin_3*%
%TO.N,/PED_RX*%
X115222499Y-100999999D03*
%TO.P,J10,4,Pin_4*%
%TO.N,/TRIG_EX*%
X115222499Y-95919999D03*
%TO.P,J10,5,Pin_5*%
%TO.N,/PED_GND*%
X115222499Y-90839999D03*
%TD*%
D23*
%TO.P,J6,1,Pin_1*%
%TO.N,Net-(J6-Pin_1)*%
X71374000Y-56896000D03*
D24*
%TO.P,J6,2,Pin_2*%
%TO.N,Net-(J6-Pin_2)*%
X66293999Y-56895999D03*
%TO.P,J6,3,Pin_3*%
%TO.N,Net-(J6-Pin_3)*%
X61213999Y-56895999D03*
%TD*%
D13*
%TO.P,K2,1*%
%TO.N,+15V*%
X82397499Y-82289499D03*
D14*
%TO.P,K2,3*%
%TO.N,Net-(J5-Pin_1)*%
X82397499Y-61289499D03*
%TO.P,K2,5*%
%TO.N,Net-(J5-Pin_2)*%
X74897499Y-64789499D03*
%TO.P,K2,6*%
%TO.N,Net-(U2-O7)*%
X74897499Y-82289499D03*
%TD*%
D26*
%TO.N,Net-(D7-K)*%
X59690000Y-72771000D03*
%TO.N,Net-(U4-~{CS})*%
X57150000Y-72771000D03*
%TO.N,GND*%
X104140000Y-76708000D03*
%TO.N,+5V*%
X106934000Y-79375000D03*
X94488000Y-110490000D03*
X106680000Y-76200000D03*
X57145000Y-85339000D03*
X107442000Y-72898000D03*
%TO.N,GND*%
X87757000Y-93345000D03*
X61722000Y-88900000D03*
X79756000Y-109982000D03*
X106172000Y-91694000D03*
X70104000Y-97028000D03*
X62230000Y-98806000D03*
X86995000Y-96139000D03*
X58420000Y-117602000D03*
X59436000Y-89662000D03*
X101092000Y-93218000D03*
X85598000Y-103632000D03*
X105410000Y-74676000D03*
X90932000Y-85598000D03*
X83820000Y-91186000D03*
X90551000Y-95885000D03*
X51054000Y-78994000D03*
X66294000Y-102362000D03*
X55118000Y-89916000D03*
X102870000Y-89154000D03*
X101854000Y-101854000D03*
X94234000Y-79502000D03*
X81534000Y-85344000D03*
X108458000Y-82296000D03*
X89230878Y-96570122D03*
%TO.N,+15V*%
X91440000Y-75946000D03*
%TO.N,Net-(U1-VDD)*%
X86614000Y-90170000D03*
X81534000Y-107442000D03*
X90678000Y-94361000D03*
X87376000Y-86360000D03*
%TO.N,/EN2*%
X114554000Y-76200000D03*
%TO.N,/CLK2*%
X103886000Y-70358000D03*
%TO.N,/LCD_SCL*%
X88265000Y-98171000D03*
%TO.N,/LCD_SDA*%
X89594211Y-98235930D03*
%TO.N,/SPI_SCK*%
X64008000Y-86360000D03*
%TO.N,/POT_CS*%
X90455641Y-98742826D03*
X59690000Y-86360000D03*
%TO.N,Net-(JP2-B)*%
X89662000Y-88646000D03*
X89133213Y-93694647D03*
%TO.N,/PED_VCC*%
X110998000Y-98044000D03*
X110998000Y-106172000D03*
%TO.N,/TR0*%
X108458000Y-84836000D03*
X101107464Y-83327464D03*
%TO.N,/PED_RX_*%
X102870000Y-91694000D03*
X99060000Y-85852000D03*
%TO.N,/PED_TX_*%
X98614500Y-86784500D03*
X102113000Y-113787000D03*
%TD*%
D27*
%TO.N,GND*%
X89154000Y-96139000D02*
X86995000Y-96139000D01*
X89230878Y-96215878D02*
X89154000Y-96139000D01*
X89230878Y-96570122D02*
X89230878Y-96215878D01*
%TO.N,/POT_CS*%
X62230000Y-86360000D02*
X59690000Y-86360000D01*
X65786000Y-94742000D02*
X63246000Y-92202000D01*
X82296000Y-94742000D02*
X65786000Y-94742000D01*
X63246000Y-92202000D02*
X63246000Y-87376000D01*
X89884467Y-99314000D02*
X86868000Y-99314000D01*
X90455641Y-98742826D02*
X89884467Y-99314000D01*
X63246000Y-87376000D02*
X62230000Y-86360000D01*
X86868000Y-99314000D02*
X82296000Y-94742000D01*
%TO.N,GND*%
X86995000Y-96139000D02*
X87757000Y-96139000D01*
X87757000Y-96139000D02*
X87757000Y-93345000D01*
X90297000Y-96139000D02*
X90551000Y-95885000D01*
X86995000Y-96139000D02*
X90297000Y-96139000D01*
%TO.N,/LCD_SDA*%
X68047000Y-92939000D02*
X68047000Y-91714000D01*
X83293000Y-93834000D02*
X68942000Y-93834000D01*
X86930000Y-97471000D02*
X83293000Y-93834000D01*
X89319880Y-98235930D02*
X88554950Y-97471000D01*
X88554950Y-97471000D02*
X86930000Y-97471000D01*
X68942000Y-93834000D02*
X68047000Y-92939000D01*
X89594211Y-98235930D02*
X89319880Y-98235930D01*
%TO.N,/LCD_SCL*%
X65507000Y-92939000D02*
X65507000Y-91714000D01*
X82804000Y-94234000D02*
X66802000Y-94234000D01*
X66802000Y-94234000D02*
X65507000Y-92939000D01*
X86741000Y-98171000D02*
X82804000Y-94234000D01*
X88265000Y-98171000D02*
X86741000Y-98171000D01*
%TO.N,Net-(JP2-B)*%
X88907209Y-89400791D02*
X89662000Y-88646000D01*
X88907209Y-93468643D02*
X88907209Y-89400791D01*
X89133213Y-93694647D02*
X88907209Y-93468643D01*
D28*
%TO.N,Net-(U1-VDD)*%
X81534000Y-107696000D02*
X81534000Y-107442000D01*
X85852000Y-107696000D02*
X81534000Y-107696000D01*
X92456000Y-96520000D02*
X92456000Y-101092000D01*
X90678000Y-94742000D02*
X92456000Y-96520000D01*
X92456000Y-101092000D02*
X85852000Y-107696000D01*
X90678000Y-94361000D02*
X90678000Y-94742000D01*
D29*
%TO.N,GND*%
X87884000Y-103632000D02*
X85598000Y-103632000D01*
X90551000Y-95885000D02*
X91440000Y-96774000D01*
X91440000Y-96774000D02*
X91440000Y-100076000D01*
X91440000Y-100076000D02*
X87884000Y-103632000D01*
D27*
X88207209Y-88322791D02*
X90932000Y-85598000D01*
X87757000Y-93345000D02*
X88207209Y-92894791D01*
X88207209Y-92894791D02*
X88207209Y-88322791D01*
D29*
%TO.N,Net-(D7-K)*%
X56007000Y-73533000D02*
X56007000Y-69103000D01*
X58547000Y-73914000D02*
X56388000Y-73914000D01*
X59690000Y-72771000D02*
X58547000Y-73914000D01*
X56007000Y-69103000D02*
X59055000Y-66055000D01*
X56388000Y-73914000D02*
X56007000Y-73533000D01*
D28*
%TO.N,Net-(U4-~{CS})*%
X59309000Y-70612000D02*
X57150000Y-72771000D01*
X61483000Y-70612000D02*
X59309000Y-70612000D01*
X66040000Y-66055000D02*
X61483000Y-70612000D01*
X66302500Y-66317500D02*
X66040000Y-66055000D01*
X68326000Y-66317500D02*
X66302500Y-66317500D01*
D29*
%TO.N,Net-(J6-Pin_1)*%
X68326000Y-59944000D02*
X68326000Y-64492500D01*
X71374000Y-56896000D02*
X68326000Y-59944000D01*
D28*
%TO.N,Net-(D7-K)*%
X59317500Y-66317500D02*
X59055000Y-66055000D01*
X61468000Y-66317500D02*
X59317500Y-66317500D01*
X61505500Y-66355000D02*
X61468000Y-66317500D01*
X63627000Y-66355000D02*
X61505500Y-66355000D01*
%TO.N,Net-(J6-Pin_2)*%
X63589500Y-64492500D02*
X63627000Y-64455000D01*
X61468000Y-64492500D02*
X63589500Y-64492500D01*
X65740000Y-64455000D02*
X66040000Y-64755000D01*
X63627000Y-64455000D02*
X65740000Y-64455000D01*
D29*
%TO.N,Net-(J6-Pin_3)*%
X61214000Y-62596000D02*
X59055000Y-64755000D01*
X61214000Y-56896000D02*
X61214000Y-62596000D01*
%TO.N,Net-(J6-Pin_2)*%
X66040000Y-57150000D02*
X66040000Y-64755000D01*
X66294000Y-56896000D02*
X66040000Y-57150000D01*
%TO.N,GND*%
X109601000Y-85217000D02*
X105664000Y-89154000D01*
X105664000Y-89154000D02*
X102870000Y-89154000D01*
X109601000Y-83439000D02*
X109601000Y-85217000D01*
X108458000Y-82296000D02*
X109601000Y-83439000D01*
D27*
%TO.N,/TR0*%
X107447000Y-84841000D02*
X108448000Y-84841000D01*
X105918000Y-83312000D02*
X107447000Y-84841000D01*
X101122928Y-83312000D02*
X105918000Y-83312000D01*
X101107464Y-83327464D02*
X101122928Y-83312000D01*
D30*
%TO.N,GND*%
X93726000Y-86106000D02*
X99822000Y-80010000D01*
X93726000Y-103632000D02*
X93726000Y-86106000D01*
X66294000Y-102362000D02*
X66294000Y-98044000D01*
D27*
X103695500Y-76263500D02*
X103568500Y-76263500D01*
D30*
X103568500Y-76263500D02*
X105126000Y-74706000D01*
D27*
X104140000Y-76708000D02*
X103695500Y-76263500D01*
D30*
X99822000Y-80010000D02*
X103568500Y-76263500D01*
D27*
%TO.N,+5V*%
X106934000Y-79375000D02*
X105346500Y-77787500D01*
D30*
X105346500Y-77533500D02*
X95250000Y-87630000D01*
D27*
X105346500Y-77787500D02*
X105346500Y-77533500D01*
D30*
X106680000Y-76200000D02*
X105346500Y-77533500D01*
D29*
X80518000Y-90424000D02*
X80518000Y-87376000D01*
X78486000Y-85344000D02*
X57150000Y-85344000D01*
X94488000Y-110490000D02*
X93853000Y-109855000D01*
D30*
X95250000Y-108204000D02*
X93599000Y-109855000D01*
X95250000Y-87630000D02*
X95250000Y-108204000D01*
X77231000Y-113030000D02*
X74701000Y-110500000D01*
X104870365Y-72898000D02*
X102786000Y-70813635D01*
D29*
X57150000Y-85344000D02*
X57145000Y-85339000D01*
D30*
X102786000Y-67959000D02*
X104932000Y-65813000D01*
X104932000Y-65813000D02*
X104932000Y-65253000D01*
X93599000Y-109855000D02*
X90424000Y-113030000D01*
D29*
X78207000Y-91714000D02*
X79228000Y-91714000D01*
D30*
X90424000Y-113030000D02*
X77231000Y-113030000D01*
D29*
X93853000Y-109855000D02*
X93599000Y-109855000D01*
X80518000Y-87376000D02*
X78486000Y-85344000D01*
D30*
X107442000Y-72898000D02*
X104870365Y-72898000D01*
X102786000Y-70813635D02*
X102786000Y-67959000D01*
D29*
X79228000Y-91714000D02*
X80518000Y-90424000D01*
D30*
%TO.N,GND*%
X66261500Y-102362000D02*
X56863500Y-111760000D01*
X80772000Y-108712000D02*
X88646000Y-108712000D01*
X105126000Y-74706000D02*
X112552000Y-74706000D01*
X79756000Y-103632000D02*
X67564000Y-103632000D01*
X74965000Y-107696000D02*
X74701000Y-107960000D01*
X88646000Y-108712000D02*
X93726000Y-103632000D01*
D29*
X112522000Y-74676000D02*
X112552000Y-74706000D01*
D30*
X99822000Y-80010000D02*
X99822000Y-80010000D01*
X66294000Y-102362000D02*
X66261500Y-102362000D01*
X99822000Y-80010000D02*
X99822000Y-80010000D01*
D29*
X108448000Y-74686000D02*
X108458000Y-74676000D01*
D30*
X85598000Y-103632000D02*
X79756000Y-103632000D01*
X79756000Y-107696000D02*
X80772000Y-108712000D01*
X79756000Y-107696000D02*
X79756000Y-103632000D01*
X61722000Y-93472000D02*
X61722000Y-88900000D01*
X112552000Y-74706000D02*
X112552000Y-65253000D01*
D29*
X105410000Y-74676000D02*
X108458000Y-74676000D01*
X108458000Y-74676000D02*
X112522000Y-74676000D01*
X108448000Y-82301000D02*
X108458000Y-82296000D01*
D30*
X79756000Y-107696000D02*
X74965000Y-107696000D01*
D29*
X108458000Y-82296000D02*
X108448000Y-74686000D01*
D30*
X67564000Y-103632000D02*
X66294000Y-102362000D01*
X66294000Y-98044000D02*
X61722000Y-93472000D01*
%TO.N,+15V*%
X102392000Y-65253000D02*
X102133000Y-65253000D01*
X51562000Y-80876500D02*
X51562000Y-100076000D01*
X88439500Y-78946500D02*
X91440000Y-75946000D01*
X73142000Y-105420000D02*
X74701000Y-105420000D01*
X54102000Y-78946500D02*
X88439500Y-78946500D01*
X72136000Y-106426000D02*
X73142000Y-105420000D01*
X67770500Y-110791500D02*
X72136000Y-106426000D01*
X51562000Y-100076000D02*
X53086000Y-101600000D01*
X67770500Y-116750500D02*
X67770500Y-110791500D01*
X53086000Y-101600000D02*
X56863500Y-101600000D01*
X102133000Y-65253000D02*
X91440000Y-75946000D01*
D29*
X91440000Y-80664000D02*
X93065500Y-82289500D01*
X91440000Y-75946000D02*
X91440000Y-80664000D01*
D30*
X53492000Y-78946500D02*
X51562000Y-80876500D01*
X54102000Y-78946500D02*
X53492000Y-78946500D01*
D27*
%TO.N,Net-(U1-VDD)*%
X87376000Y-86614000D02*
X87376000Y-86360000D01*
X86614000Y-90170000D02*
X87376000Y-89408000D01*
X87376000Y-89408000D02*
X87376000Y-86614000D01*
D29*
%TO.N,/EN2*%
X110012000Y-63470000D02*
X109982000Y-63500000D01*
X108712000Y-63500000D02*
X107472000Y-64740000D01*
X109982000Y-63500000D02*
X108712000Y-63500000D01*
X110012000Y-55093000D02*
X110012000Y-63470000D01*
X107472000Y-64740000D02*
X107472000Y-65253000D01*
X114554000Y-76200000D02*
X114554000Y-64770000D01*
X114554000Y-64770000D02*
X113284000Y-63500000D01*
X113284000Y-63500000D02*
X109982000Y-63500000D01*
%TO.N,/CLK2*%
X104140000Y-70104000D02*
X108204000Y-70104000D01*
X103886000Y-70358000D02*
X104140000Y-70104000D01*
X110012000Y-68296000D02*
X110012000Y-65253000D01*
X108204000Y-70104000D02*
X110012000Y-68296000D01*
D27*
%TO.N,/SPI_SCK*%
X64008000Y-86360000D02*
X64516000Y-86868000D01*
X71882000Y-90469000D02*
X73127000Y-91714000D01*
X71882000Y-87884000D02*
X71882000Y-90469000D01*
X70866000Y-86868000D02*
X71882000Y-87884000D01*
X64516000Y-86868000D02*
X70866000Y-86868000D01*
D31*
%TO.N,Net-(J4-Pin_1)*%
X91694000Y-59918000D02*
X93065500Y-61289500D01*
X91694000Y-56896000D02*
X91694000Y-59918000D01*
%TO.N,Net-(J4-Pin_2)*%
X86614000Y-63741000D02*
X85565500Y-64789500D01*
X86614000Y-56896000D02*
X86614000Y-63741000D01*
%TO.N,Net-(J5-Pin_1)*%
X81534000Y-56863500D02*
X81534000Y-60426000D01*
X81534000Y-60426000D02*
X82397500Y-61289500D01*
%TO.N,Net-(J5-Pin_2)*%
X76454000Y-56863500D02*
X76454000Y-63233000D01*
X76454000Y-63233000D02*
X74897500Y-64789500D01*
D30*
%TO.N,/PED_VCC*%
X110490000Y-121412000D02*
X68072000Y-121412000D01*
X63754000Y-119126000D02*
X62690500Y-118062500D01*
X115222500Y-111160000D02*
X114208000Y-111160000D01*
X110998000Y-107950000D02*
X110998000Y-106172000D01*
X115222500Y-111160000D02*
X115222500Y-116679500D01*
X114208000Y-111160000D02*
X110998000Y-107950000D01*
X68072000Y-121412000D02*
X65786000Y-119126000D01*
X110998000Y-106172000D02*
X110998000Y-98044000D01*
X65786000Y-119126000D02*
X63754000Y-119126000D01*
X115222500Y-116679500D02*
X110490000Y-121412000D01*
X62690500Y-118062500D02*
X62690500Y-116750500D01*
D27*
%TO.N,/PED_RX_*%
X99314000Y-86106000D02*
X99314000Y-88392000D01*
X99314000Y-88392000D02*
X102616000Y-91694000D01*
X102616000Y-91694000D02*
X102870000Y-91694000D01*
X99060000Y-85852000D02*
X99314000Y-86106000D01*
%TO.N,/PED_TX_*%
X102113000Y-113787000D02*
X102372000Y-113787000D01*
X96774000Y-88625000D02*
X96774000Y-111760000D01*
X98801000Y-113787000D02*
X102113000Y-113787000D01*
X96774000Y-111760000D02*
X98801000Y-113787000D01*
X98614500Y-86784500D02*
X96774000Y-88625000D01*
%TD*%
%TA.AperFunction,Conductor*%
%TO.N,GND*%
G36*
X120004119Y-50000770D02*
G01*
X120083242Y-50005956D01*
X120083977Y-50006006D01*
X120113401Y-50008111D01*
X120261445Y-50018699D01*
X120277038Y-50020799D01*
X120388302Y-50042931D01*
X120390503Y-50043389D01*
X120530117Y-50073760D01*
X120543836Y-50077568D01*
X120657624Y-50116194D01*
X120661155Y-50117451D01*
X120788711Y-50165027D01*
X120800406Y-50170077D01*
X120910600Y-50224418D01*
X120915235Y-50226825D01*
X121032407Y-50290805D01*
X121042017Y-50296624D01*
X121145223Y-50365584D01*
X121150730Y-50369481D01*
X121256648Y-50448771D01*
X121264216Y-50454907D01*
X121357935Y-50537096D01*
X121363953Y-50542733D01*
X121457267Y-50636047D01*
X121462904Y-50642065D01*
X121545093Y-50735784D01*
X121551229Y-50743352D01*
X121630519Y-50849270D01*
X121634416Y-50854777D01*
X121703376Y-50957983D01*
X121709195Y-50967593D01*
X121773175Y-51084765D01*
X121775582Y-51089400D01*
X121829923Y-51199594D01*
X121834973Y-51211289D01*
X121882549Y-51338845D01*
X121883806Y-51342376D01*
X121922432Y-51456164D01*
X121926240Y-51469883D01*
X121956611Y-51609497D01*
X121957069Y-51611698D01*
X121979201Y-51722962D01*
X121981301Y-51738555D01*
X121993994Y-51916024D01*
X121994046Y-51916791D01*
X121994238Y-51919727D01*
X121994507Y-51928266D01*
X121920316Y-81408317D01*
X121900142Y-81476387D01*
X121846370Y-81522745D01*
X121794316Y-81534000D01*
X114046000Y-81534000D01*
X107442000Y-88392000D01*
X107442000Y-120016000D01*
X107421998Y-120084121D01*
X107368342Y-120130614D01*
X107316000Y-120142000D01*
X68886190Y-120142000D01*
X68818069Y-120121998D01*
X68797095Y-120105095D01*
X66972742Y-118280742D01*
X66938716Y-118218430D01*
X66943781Y-118147615D01*
X66986328Y-118090779D01*
X67052848Y-118065968D01*
X67122222Y-118081059D01*
X67131248Y-118086490D01*
X67171726Y-118113209D01*
X67380030Y-118202243D01*
X67600885Y-118252651D01*
X67827191Y-118262815D01*
X68051675Y-118232406D01*
X68267121Y-118162403D01*
X68466606Y-118055056D01*
X68471022Y-118051534D01*
X68471027Y-118051531D01*
X68639297Y-117917340D01*
X68639299Y-117917338D01*
X68643718Y-117913814D01*
X68684638Y-117866978D01*
X68789035Y-117747485D01*
X68792763Y-117743218D01*
X68818336Y-117700416D01*
X68870445Y-117652198D01*
X68940352Y-117639806D01*
X69005861Y-117667176D01*
X69046173Y-117725617D01*
X69052500Y-117765042D01*
X69052500Y-117795723D01*
X69052860Y-117802438D01*
X69058162Y-117851757D01*
X69061759Y-117866978D01*
X69106905Y-117988020D01*
X69115454Y-118003676D01*
X69192198Y-118106193D01*
X69204807Y-118118802D01*
X69307324Y-118195546D01*
X69322980Y-118204095D01*
X69444022Y-118249241D01*
X69459243Y-118252838D01*
X69508562Y-118258140D01*
X69515277Y-118258500D01*
X70038385Y-118258500D01*
X70053624Y-118254025D01*
X70054829Y-118252635D01*
X70056500Y-118244952D01*
X70056500Y-118240385D01*
X70564500Y-118240385D01*
X70568975Y-118255624D01*
X70570365Y-118256829D01*
X70578048Y-118258500D01*
X71105723Y-118258500D01*
X71112438Y-118258140D01*
X71161757Y-118252838D01*
X71176978Y-118249241D01*
X71298020Y-118204095D01*
X71313676Y-118195546D01*
X71416193Y-118118802D01*
X71428802Y-118106193D01*
X71505546Y-118003676D01*
X71514095Y-117988020D01*
X71559241Y-117866978D01*
X71562838Y-117851757D01*
X71568140Y-117802438D01*
X71568500Y-117795723D01*
X71568500Y-117022615D01*
X71564025Y-117007376D01*
X71562635Y-117006171D01*
X71554952Y-117004500D01*
X70582615Y-117004500D01*
X70567376Y-117008975D01*
X70566171Y-117010365D01*
X70564500Y-117018048D01*
X70564500Y-118240385D01*
X70056500Y-118240385D01*
X70056500Y-116478385D01*
X70564500Y-116478385D01*
X70568975Y-116493624D01*
X70570365Y-116494829D01*
X70578048Y-116496500D01*
X71550385Y-116496500D01*
X71565624Y-116492025D01*
X71566829Y-116490635D01*
X71568500Y-116482952D01*
X71568500Y-115705277D01*
X71568140Y-115698562D01*
X71562838Y-115649243D01*
X71559241Y-115634022D01*
X71514095Y-115512980D01*
X71505546Y-115497324D01*
X71428802Y-115394807D01*
X71416193Y-115382198D01*
X71313676Y-115305454D01*
X71298020Y-115296905D01*
X71176978Y-115251759D01*
X71161757Y-115248162D01*
X71112438Y-115242860D01*
X71105723Y-115242500D01*
X70582615Y-115242500D01*
X70567376Y-115246975D01*
X70566171Y-115248365D01*
X70564500Y-115256048D01*
X70564500Y-116478385D01*
X70056500Y-116478385D01*
X70056500Y-115260615D01*
X70052025Y-115245376D01*
X70050635Y-115244171D01*
X70042952Y-115242500D01*
X69515277Y-115242500D01*
X69508562Y-115242860D01*
X69459243Y-115248162D01*
X69444022Y-115251759D01*
X69322980Y-115296905D01*
X69307324Y-115305454D01*
X69204807Y-115382198D01*
X69192198Y-115394807D01*
X69115454Y-115497324D01*
X69106905Y-115512980D01*
X69061759Y-115634022D01*
X69058162Y-115649243D01*
X69052860Y-115698562D01*
X69052500Y-115705277D01*
X69052500Y-115736145D01*
X69032498Y-115804266D01*
X68978842Y-115850759D01*
X68908568Y-115860863D01*
X68843988Y-115831369D01*
X68824564Y-115810206D01*
X68803064Y-115780614D01*
X68779206Y-115713747D01*
X68779000Y-115706553D01*
X68779000Y-111261424D01*
X68799002Y-111193303D01*
X68815905Y-111172329D01*
X69488234Y-110500000D01*
X73337844Y-110500000D01*
X73338274Y-110505189D01*
X73353432Y-110688111D01*
X73356436Y-110724368D01*
X73357717Y-110729426D01*
X73357717Y-110729427D01*
X73384424Y-110834888D01*
X73411704Y-110942616D01*
X73413800Y-110947394D01*
X73498523Y-111140544D01*
X73502140Y-111148791D01*
X73504990Y-111153153D01*
X73504992Y-111153157D01*
X73575727Y-111261424D01*
X73625278Y-111337268D01*
X73628803Y-111341097D01*
X73628806Y-111341101D01*
X73723963Y-111444467D01*
X73777760Y-111502906D01*
X73955424Y-111641189D01*
X74153426Y-111748342D01*
X74366365Y-111821444D01*
X74371499Y-111822301D01*
X74371504Y-111822302D01*
X74477398Y-111839972D01*
X74588431Y-111858500D01*
X74591423Y-111858500D01*
X74657053Y-111883825D01*
X74669507Y-111894741D01*
X76478462Y-113703696D01*
X76486766Y-113712857D01*
X76514432Y-113746568D01*
X76667996Y-113872595D01*
X76673454Y-113875512D01*
X76673455Y-113875513D01*
X76837734Y-113963322D01*
X76837738Y-113963324D01*
X76843196Y-113966241D01*
X76849116Y-113968037D01*
X76849119Y-113968038D01*
X77027377Y-114022112D01*
X77027381Y-114022113D01*
X77033299Y-114023908D01*
X77231000Y-114043380D01*
X77274384Y-114039107D01*
X77286734Y-114038500D01*
X90368263Y-114038500D01*
X90380612Y-114039107D01*
X90417836Y-114042773D01*
X90417837Y-114042773D01*
X90424000Y-114043380D01*
X90621701Y-114023909D01*
X90811804Y-113966241D01*
X90817259Y-113963325D01*
X90817262Y-113963324D01*
X90849953Y-113945850D01*
X90981545Y-113875513D01*
X90981546Y-113875512D01*
X90987004Y-113872595D01*
X91140568Y-113746568D01*
X91168234Y-113712857D01*
X91176538Y-113703696D01*
X93705664Y-111174570D01*
X93767976Y-111140544D01*
X93838791Y-111145609D01*
X93876259Y-111168324D01*
X93876747Y-111168866D01*
X93884598Y-111174570D01*
X94004142Y-111261424D01*
X94031248Y-111281118D01*
X94037276Y-111283802D01*
X94037278Y-111283803D01*
X94199681Y-111356109D01*
X94205712Y-111358794D01*
X94299112Y-111378647D01*
X94386056Y-111397128D01*
X94386061Y-111397128D01*
X94392513Y-111398500D01*
X94583487Y-111398500D01*
X94589939Y-111397128D01*
X94589944Y-111397128D01*
X94676888Y-111378647D01*
X94770288Y-111358794D01*
X94776319Y-111356109D01*
X94938722Y-111283803D01*
X94938724Y-111283802D01*
X94944752Y-111281118D01*
X94971859Y-111261424D01*
X95043691Y-111209234D01*
X95099253Y-111168866D01*
X95103675Y-111163955D01*
X95222621Y-111031852D01*
X95222622Y-111031851D01*
X95227040Y-111026944D01*
X95322527Y-110861556D01*
X95381542Y-110679928D01*
X95389947Y-110599964D01*
X95400814Y-110496565D01*
X95401504Y-110490000D01*
X95398759Y-110463884D01*
X95382232Y-110306635D01*
X95382232Y-110306633D01*
X95381542Y-110300072D01*
X95322527Y-110118444D01*
X95300165Y-110079711D01*
X95230341Y-109958774D01*
X95227040Y-109953056D01*
X95164973Y-109884123D01*
X95134256Y-109820116D01*
X95143021Y-109749663D01*
X95169515Y-109710719D01*
X95923696Y-108956538D01*
X95932856Y-108948235D01*
X95959565Y-108926315D01*
X96024912Y-108898560D01*
X96094891Y-108910541D01*
X96147283Y-108958453D01*
X96165500Y-109023713D01*
X96165500Y-111711864D01*
X96164422Y-111728307D01*
X96160250Y-111760000D01*
X96165500Y-111799880D01*
X96165500Y-111799885D01*
X96178609Y-111899457D01*
X96181162Y-111918851D01*
X96242476Y-112066876D01*
X96247503Y-112073427D01*
X96247504Y-112073429D01*
X96315520Y-112162069D01*
X96315526Y-112162075D01*
X96340013Y-112193987D01*
X96346568Y-112199017D01*
X96365379Y-112213452D01*
X96377770Y-112224319D01*
X98336685Y-114183234D01*
X98347552Y-114195625D01*
X98367013Y-114220987D01*
X98373563Y-114226013D01*
X98398921Y-114245471D01*
X98398937Y-114245485D01*
X98448305Y-114283366D01*
X98494124Y-114318524D01*
X98642149Y-114379838D01*
X98650336Y-114380916D01*
X98650337Y-114380916D01*
X98661542Y-114382391D01*
X98692738Y-114386498D01*
X98761115Y-114395500D01*
X98761118Y-114395500D01*
X98761126Y-114395501D01*
X98792811Y-114399672D01*
X98801000Y-114400750D01*
X98832693Y-114396578D01*
X98849136Y-114395500D01*
X101382290Y-114395500D01*
X101450411Y-114415502D01*
X101475926Y-114437189D01*
X101501747Y-114465866D01*
X101656248Y-114578118D01*
X101662276Y-114580802D01*
X101662278Y-114580803D01*
X101824681Y-114653109D01*
X101830712Y-114655794D01*
X101924112Y-114675647D01*
X102011056Y-114694128D01*
X102011061Y-114694128D01*
X102017513Y-114695500D01*
X102208487Y-114695500D01*
X102214939Y-114694128D01*
X102214944Y-114694128D01*
X102301888Y-114675647D01*
X102395288Y-114655794D01*
X102401319Y-114653109D01*
X102563722Y-114580803D01*
X102563724Y-114580802D01*
X102569752Y-114578118D01*
X102724253Y-114465866D01*
X102852040Y-114323944D01*
X102947527Y-114158556D01*
X103006542Y-113976928D01*
X103007477Y-113968038D01*
X103025814Y-113793565D01*
X103026504Y-113787000D01*
X103022667Y-113750490D01*
X103007232Y-113603635D01*
X103007232Y-113603633D01*
X103006542Y-113597072D01*
X102947527Y-113415444D01*
X102852040Y-113250056D01*
X102754382Y-113141595D01*
X102728675Y-113113045D01*
X102728674Y-113113044D01*
X102724253Y-113108134D01*
X102625157Y-113036136D01*
X102575094Y-112999763D01*
X102575093Y-112999762D01*
X102569752Y-112995882D01*
X102563724Y-112993198D01*
X102563722Y-112993197D01*
X102401319Y-112920891D01*
X102401318Y-112920891D01*
X102395288Y-112918206D01*
X102301888Y-112898353D01*
X102214944Y-112879872D01*
X102214939Y-112879872D01*
X102208487Y-112878500D01*
X102017513Y-112878500D01*
X102011061Y-112879872D01*
X102011056Y-112879872D01*
X101924112Y-112898353D01*
X101830712Y-112918206D01*
X101824682Y-112920891D01*
X101824681Y-112920891D01*
X101662278Y-112993197D01*
X101662276Y-112993198D01*
X101656248Y-112995882D01*
X101650907Y-112999762D01*
X101650906Y-112999763D01*
X101554831Y-113069566D01*
X101501747Y-113108134D01*
X101497334Y-113113036D01*
X101497332Y-113113037D01*
X101475926Y-113136811D01*
X101415480Y-113174050D01*
X101382290Y-113178500D01*
X99105239Y-113178500D01*
X99037118Y-113158498D01*
X99016144Y-113141595D01*
X97419405Y-111544856D01*
X97385379Y-111482544D01*
X97382500Y-111455761D01*
X97382500Y-88929239D01*
X97402502Y-88861118D01*
X97419405Y-88840144D01*
X98490405Y-87769144D01*
X98552717Y-87735118D01*
X98623532Y-87740183D01*
X98680368Y-87782730D01*
X98705179Y-87849250D01*
X98705500Y-87858239D01*
X98705500Y-88343864D01*
X98704422Y-88360307D01*
X98700250Y-88392000D01*
X98701328Y-88400189D01*
X98705500Y-88431880D01*
X98705500Y-88431885D01*
X98712212Y-88482868D01*
X98716934Y-88518732D01*
X98721162Y-88550851D01*
X98782476Y-88698876D01*
X98787503Y-88705427D01*
X98787504Y-88705429D01*
X98855520Y-88794069D01*
X98855526Y-88794075D01*
X98880013Y-88825987D01*
X98886568Y-88831017D01*
X98905379Y-88845452D01*
X98917770Y-88856319D01*
X101970026Y-91908575D01*
X102000764Y-91958733D01*
X102035473Y-92065556D01*
X102038776Y-92071278D01*
X102038777Y-92071279D01*
X102044947Y-92081965D01*
X102130960Y-92230944D01*
X102135378Y-92235851D01*
X102135379Y-92235852D01*
X102197829Y-92305210D01*
X102258747Y-92372866D01*
X102317231Y-92415357D01*
X102389433Y-92467815D01*
X102413248Y-92485118D01*
X102419276Y-92487802D01*
X102419278Y-92487803D01*
X102552022Y-92546904D01*
X102587712Y-92562794D01*
X102681113Y-92582647D01*
X102768056Y-92601128D01*
X102768061Y-92601128D01*
X102774513Y-92602500D01*
X102965487Y-92602500D01*
X102971939Y-92601128D01*
X102971944Y-92601128D01*
X103058887Y-92582647D01*
X103152288Y-92562794D01*
X103187978Y-92546904D01*
X103320722Y-92487803D01*
X103320724Y-92487802D01*
X103326752Y-92485118D01*
X103350568Y-92467815D01*
X103422769Y-92415357D01*
X103481253Y-92372866D01*
X103542171Y-92305210D01*
X103604621Y-92235852D01*
X103604622Y-92235851D01*
X103609040Y-92230944D01*
X103695053Y-92081965D01*
X103701223Y-92071279D01*
X103701224Y-92071278D01*
X103704527Y-92065556D01*
X103763542Y-91883928D01*
X103783504Y-91694000D01*
X103763542Y-91504072D01*
X103704527Y-91322444D01*
X103609040Y-91157056D01*
X103492170Y-91027258D01*
X103485675Y-91020045D01*
X103485674Y-91020044D01*
X103481253Y-91015134D01*
X103379394Y-90941129D01*
X103332094Y-90906763D01*
X103332093Y-90906762D01*
X103326752Y-90902882D01*
X103320724Y-90900198D01*
X103320722Y-90900197D01*
X103158319Y-90827891D01*
X103158318Y-90827891D01*
X103152288Y-90825206D01*
X103058888Y-90805353D01*
X102971944Y-90786872D01*
X102971939Y-90786872D01*
X102965487Y-90785500D01*
X102774513Y-90785500D01*
X102671159Y-90807469D01*
X102600369Y-90802068D01*
X102555867Y-90773318D01*
X99959405Y-88176856D01*
X99925379Y-88114544D01*
X99922500Y-88087761D01*
X99922500Y-86157421D01*
X99928667Y-86118485D01*
X99951502Y-86048206D01*
X99953542Y-86041928D01*
X99973504Y-85852000D01*
X99969946Y-85818148D01*
X99954232Y-85668635D01*
X99954232Y-85668633D01*
X99953542Y-85662072D01*
X99894527Y-85480444D01*
X99876662Y-85449500D01*
X99802341Y-85320774D01*
X99799040Y-85315056D01*
X99671253Y-85173134D01*
X99516752Y-85060882D01*
X99510727Y-85058200D01*
X99510721Y-85058196D01*
X99496445Y-85051841D01*
X99442348Y-85005862D01*
X99421697Y-84937936D01*
X99441048Y-84869627D01*
X99458596Y-84847638D01*
X100309314Y-83996920D01*
X100371626Y-83962894D01*
X100442441Y-83967959D01*
X100486221Y-83997739D01*
X100486884Y-83997003D01*
X100491792Y-84001423D01*
X100496211Y-84006330D01*
X100501553Y-84010211D01*
X100501555Y-84010213D01*
X100645370Y-84114701D01*
X100650712Y-84118582D01*
X100656740Y-84121266D01*
X100656742Y-84121267D01*
X100779316Y-84175840D01*
X100825176Y-84196258D01*
X100918576Y-84216111D01*
X101005520Y-84234592D01*
X101005525Y-84234592D01*
X101011977Y-84235964D01*
X101202951Y-84235964D01*
X101209403Y-84234592D01*
X101209408Y-84234592D01*
X101296352Y-84216111D01*
X101389752Y-84196258D01*
X101435612Y-84175840D01*
X101558186Y-84121267D01*
X101558188Y-84121266D01*
X101564216Y-84118582D01*
X101718717Y-84006330D01*
X101726453Y-83997739D01*
X101758462Y-83962189D01*
X101818908Y-83924950D01*
X101852098Y-83920500D01*
X105613761Y-83920500D01*
X105681882Y-83940502D01*
X105702856Y-83957405D01*
X106982685Y-85237234D01*
X106993552Y-85249625D01*
X107013013Y-85274987D01*
X107019563Y-85280013D01*
X107044921Y-85299471D01*
X107044937Y-85299485D01*
X107072682Y-85320774D01*
X107140124Y-85372524D01*
X107288149Y-85433838D01*
X107447000Y-85454751D01*
X107478699Y-85450578D01*
X107495144Y-85449500D01*
X107731792Y-85449500D01*
X107799913Y-85469502D01*
X107825428Y-85491189D01*
X107846747Y-85514866D01*
X108001248Y-85627118D01*
X108007276Y-85629802D01*
X108007278Y-85629803D01*
X108169681Y-85702109D01*
X108175712Y-85704794D01*
X108269113Y-85724647D01*
X108356056Y-85743128D01*
X108356061Y-85743128D01*
X108362513Y-85744500D01*
X108553487Y-85744500D01*
X108559939Y-85743128D01*
X108559944Y-85743128D01*
X108646887Y-85724647D01*
X108740288Y-85704794D01*
X108746319Y-85702109D01*
X108908722Y-85629803D01*
X108908724Y-85629802D01*
X108914752Y-85627118D01*
X109069253Y-85514866D01*
X109123381Y-85454751D01*
X109192621Y-85377852D01*
X109192622Y-85377851D01*
X109197040Y-85372944D01*
X109292527Y-85207556D01*
X109351542Y-85025928D01*
X109371504Y-84836000D01*
X109365003Y-84774143D01*
X109352232Y-84652635D01*
X109352232Y-84652633D01*
X109351542Y-84646072D01*
X109292527Y-84464444D01*
X109197040Y-84299056D01*
X109138997Y-84234592D01*
X109073675Y-84162045D01*
X109073674Y-84162044D01*
X109069253Y-84157134D01*
X108914752Y-84044882D01*
X108908724Y-84042198D01*
X108908722Y-84042197D01*
X108746319Y-83969891D01*
X108746318Y-83969891D01*
X108740288Y-83967206D01*
X108646888Y-83947353D01*
X108559944Y-83928872D01*
X108559939Y-83928872D01*
X108553487Y-83927500D01*
X108362513Y-83927500D01*
X108356061Y-83928872D01*
X108356056Y-83928872D01*
X108269112Y-83947353D01*
X108175712Y-83967206D01*
X108169682Y-83969891D01*
X108169681Y-83969891D01*
X108007278Y-84042197D01*
X108007276Y-84042198D01*
X108001248Y-84044882D01*
X107846747Y-84157134D01*
X107842334Y-84162036D01*
X107842332Y-84162037D01*
X107829904Y-84175840D01*
X107769458Y-84213079D01*
X107698474Y-84211727D01*
X107647173Y-84180624D01*
X106382315Y-82915766D01*
X106371448Y-82903375D01*
X106357013Y-82884563D01*
X106351987Y-82878013D01*
X106320075Y-82853526D01*
X106320072Y-82853523D01*
X106224876Y-82780476D01*
X106076851Y-82719162D01*
X106068664Y-82718084D01*
X106068663Y-82718084D01*
X106057458Y-82716609D01*
X106026262Y-82712502D01*
X105957885Y-82703500D01*
X105957882Y-82703500D01*
X105957874Y-82703499D01*
X105926189Y-82699328D01*
X105918000Y-82698250D01*
X105886307Y-82702422D01*
X105869864Y-82703500D01*
X101906924Y-82703500D01*
X101838803Y-82683498D01*
X101792310Y-82629842D01*
X101782206Y-82559568D01*
X101811700Y-82494988D01*
X101817829Y-82488405D01*
X103594405Y-80711830D01*
X105413248Y-78892987D01*
X105475560Y-78858961D01*
X105546376Y-78864026D01*
X105591438Y-78892987D01*
X105984281Y-79285830D01*
X106018307Y-79348142D01*
X106020841Y-79371716D01*
X106020496Y-79375000D01*
X106040458Y-79564928D01*
X106099473Y-79746556D01*
X106194960Y-79911944D01*
X106199378Y-79916851D01*
X106199379Y-79916852D01*
X106233728Y-79955000D01*
X106322747Y-80053866D01*
X106365005Y-80084568D01*
X106468734Y-80159932D01*
X106477248Y-80166118D01*
X106483276Y-80168802D01*
X106483278Y-80168803D01*
X106630078Y-80234162D01*
X106651712Y-80243794D01*
X106745113Y-80263647D01*
X106832056Y-80282128D01*
X106832061Y-80282128D01*
X106838513Y-80283500D01*
X107029487Y-80283500D01*
X107035939Y-80282128D01*
X107035944Y-80282128D01*
X107122887Y-80263647D01*
X107216288Y-80243794D01*
X107237922Y-80234162D01*
X107384722Y-80168803D01*
X107384724Y-80168802D01*
X107390752Y-80166118D01*
X107399267Y-80159932D01*
X107502995Y-80084568D01*
X107545253Y-80053866D01*
X107634272Y-79955000D01*
X107668621Y-79916852D01*
X107668622Y-79916851D01*
X107673040Y-79911944D01*
X107768527Y-79746556D01*
X107827542Y-79564928D01*
X107847504Y-79375000D01*
X107827542Y-79185072D01*
X107768527Y-79003444D01*
X107673040Y-78838056D01*
X107545253Y-78696134D01*
X107390752Y-78583882D01*
X107384724Y-78581198D01*
X107384722Y-78581197D01*
X107222319Y-78508891D01*
X107222318Y-78508891D01*
X107216288Y-78506206D01*
X107122888Y-78486353D01*
X107035944Y-78467872D01*
X107035939Y-78467872D01*
X107029487Y-78466500D01*
X106938239Y-78466500D01*
X106870118Y-78446498D01*
X106849144Y-78429595D01*
X106451987Y-78032438D01*
X106417961Y-77970126D01*
X106423026Y-77899311D01*
X106451984Y-77854251D01*
X107428152Y-76878082D01*
X107522595Y-76763003D01*
X107533901Y-76741852D01*
X107613322Y-76593264D01*
X107616241Y-76587803D01*
X107673909Y-76397701D01*
X107693380Y-76200000D01*
X107673909Y-76002299D01*
X107616241Y-75812196D01*
X107554541Y-75696762D01*
X107525513Y-75642455D01*
X107525512Y-75642454D01*
X107522595Y-75636996D01*
X107396568Y-75483432D01*
X107243004Y-75357405D01*
X107176345Y-75321775D01*
X107073262Y-75266676D01*
X107073259Y-75266675D01*
X107067804Y-75263759D01*
X106877701Y-75206091D01*
X106680000Y-75186620D01*
X106482299Y-75206091D01*
X106292197Y-75263759D01*
X106116997Y-75357405D01*
X106112212Y-75361332D01*
X106004313Y-75449882D01*
X106004308Y-75449887D01*
X106001918Y-75451848D01*
X94576304Y-86877462D01*
X94567143Y-86885766D01*
X94533432Y-86913432D01*
X94407405Y-87066996D01*
X94314085Y-87241587D01*
X94313759Y-87242196D01*
X94256091Y-87432299D01*
X94236620Y-87630000D01*
X94237227Y-87636163D01*
X94237227Y-87636164D01*
X94240893Y-87673388D01*
X94241500Y-87685737D01*
X94241500Y-107734076D01*
X94221498Y-107802197D01*
X94204595Y-107823171D01*
X93527440Y-108500326D01*
X93465128Y-108534352D01*
X93394313Y-108529287D01*
X93337477Y-108486740D01*
X93312666Y-108420220D01*
X93312775Y-108400826D01*
X93330726Y-108184189D01*
X93331156Y-108179000D01*
X93315942Y-107995396D01*
X93312995Y-107959828D01*
X93312994Y-107959823D01*
X93312564Y-107954632D01*
X93283328Y-107839180D01*
X93258578Y-107741446D01*
X93258578Y-107741445D01*
X93257296Y-107736384D01*
X93223067Y-107658350D01*
X93168954Y-107534982D01*
X93168952Y-107534978D01*
X93166860Y-107530209D01*
X93155472Y-107512777D01*
X93046573Y-107346096D01*
X93043722Y-107341732D01*
X93040197Y-107337903D01*
X93040194Y-107337899D01*
X92924775Y-107212522D01*
X92891240Y-107176094D01*
X92818145Y-107119201D01*
X92717689Y-107041012D01*
X92717687Y-107041010D01*
X92713576Y-107037811D01*
X92572196Y-106961300D01*
X92520159Y-106933139D01*
X92520156Y-106933138D01*
X92515574Y-106930658D01*
X92302635Y-106857556D01*
X92297501Y-106856699D01*
X92297496Y-106856698D01*
X92085706Y-106821357D01*
X92085704Y-106821357D01*
X92080569Y-106820500D01*
X91855431Y-106820500D01*
X91850296Y-106821357D01*
X91850294Y-106821357D01*
X91638504Y-106856698D01*
X91638499Y-106856699D01*
X91633365Y-106857556D01*
X91420426Y-106930658D01*
X91415844Y-106933138D01*
X91415841Y-106933139D01*
X91363804Y-106961300D01*
X91222424Y-107037811D01*
X91218313Y-107041010D01*
X91218311Y-107041012D01*
X91117855Y-107119201D01*
X91044760Y-107176094D01*
X91011225Y-107212522D01*
X90983375Y-107242775D01*
X90922521Y-107279346D01*
X90851557Y-107277211D01*
X90793012Y-107237049D01*
X90772618Y-107201469D01*
X90731595Y-107091480D01*
X90723046Y-107075824D01*
X90646302Y-106973307D01*
X90633693Y-106960698D01*
X90531176Y-106883954D01*
X90515520Y-106875405D01*
X90394478Y-106830259D01*
X90379257Y-106826662D01*
X90329938Y-106821360D01*
X90323223Y-106821000D01*
X89700115Y-106821000D01*
X89684876Y-106825475D01*
X89683671Y-106826865D01*
X89682000Y-106834548D01*
X89682000Y-109518885D01*
X89686475Y-109534124D01*
X89687865Y-109535329D01*
X89695548Y-109537000D01*
X90323223Y-109537000D01*
X90329938Y-109536640D01*
X90379257Y-109531338D01*
X90394478Y-109527741D01*
X90515520Y-109482595D01*
X90531176Y-109474046D01*
X90633693Y-109397302D01*
X90646302Y-109384693D01*
X90723046Y-109282176D01*
X90731595Y-109266520D01*
X90772618Y-109156531D01*
X90815165Y-109099695D01*
X90881685Y-109074884D01*
X90951059Y-109089975D01*
X90983375Y-109115225D01*
X91044760Y-109181906D01*
X91048879Y-109185112D01*
X91117126Y-109238231D01*
X91222424Y-109320189D01*
X91260009Y-109340529D01*
X91364917Y-109397302D01*
X91420426Y-109427342D01*
X91633365Y-109500444D01*
X91638499Y-109501301D01*
X91638504Y-109501302D01*
X91850294Y-109536643D01*
X91850296Y-109536643D01*
X91855431Y-109537500D01*
X92080569Y-109537500D01*
X92085701Y-109536644D01*
X92085709Y-109536643D01*
X92184378Y-109520178D01*
X92254862Y-109528696D01*
X92309552Y-109573967D01*
X92331084Y-109641620D01*
X92312623Y-109710174D01*
X92294211Y-109733555D01*
X90043171Y-111984595D01*
X89980859Y-112018621D01*
X89954076Y-112021500D01*
X77700924Y-112021500D01*
X77632803Y-112001498D01*
X77611829Y-111984595D01*
X76091118Y-110463884D01*
X76057092Y-110401572D01*
X76054643Y-110385194D01*
X76045995Y-110280828D01*
X76045994Y-110280823D01*
X76045564Y-110275632D01*
X76030935Y-110217865D01*
X75991578Y-110062446D01*
X75991578Y-110062445D01*
X75990296Y-110057384D01*
X75899860Y-109851209D01*
X75847438Y-109770970D01*
X75779573Y-109667096D01*
X75776722Y-109662732D01*
X75773197Y-109658903D01*
X75773194Y-109658899D01*
X75648504Y-109523452D01*
X75624240Y-109497094D01*
X75446576Y-109358811D01*
X75412792Y-109340528D01*
X75362403Y-109290515D01*
X75347051Y-109221198D01*
X75371612Y-109154585D01*
X75412794Y-109118901D01*
X75441719Y-109103248D01*
X75450411Y-109097569D01*
X75480406Y-109074223D01*
X88070000Y-109074223D01*
X88070360Y-109080938D01*
X88075662Y-109130257D01*
X88079259Y-109145478D01*
X88124405Y-109266520D01*
X88132954Y-109282176D01*
X88209698Y-109384693D01*
X88222307Y-109397302D01*
X88324824Y-109474046D01*
X88340480Y-109482595D01*
X88461522Y-109527741D01*
X88476743Y-109531338D01*
X88526062Y-109536640D01*
X88532777Y-109537000D01*
X89155885Y-109537000D01*
X89171124Y-109532525D01*
X89172329Y-109531135D01*
X89174000Y-109523452D01*
X89174000Y-108451115D01*
X89169525Y-108435876D01*
X89168135Y-108434671D01*
X89160452Y-108433000D01*
X88088115Y-108433000D01*
X88072876Y-108437475D01*
X88071671Y-108438865D01*
X88070000Y-108446548D01*
X88070000Y-109074223D01*
X75480406Y-109074223D01*
X75619789Y-108965737D01*
X75627432Y-108958700D01*
X75772790Y-108800799D01*
X75779177Y-108792593D01*
X75896569Y-108612913D01*
X75901512Y-108603778D01*
X75987730Y-108407223D01*
X75991100Y-108397408D01*
X76033097Y-108231561D01*
X76032567Y-108217470D01*
X76024145Y-108214000D01*
X73382571Y-108214000D01*
X73369040Y-108217973D01*
X73367744Y-108226986D01*
X73410900Y-108397408D01*
X73414270Y-108407223D01*
X73500488Y-108603778D01*
X73505431Y-108612913D01*
X73622823Y-108792593D01*
X73629210Y-108800799D01*
X73774568Y-108958700D01*
X73782211Y-108965737D01*
X73951589Y-109097569D01*
X73960281Y-109103248D01*
X73989206Y-109118901D01*
X74039597Y-109168914D01*
X74054949Y-109238231D01*
X74030388Y-109304844D01*
X73989208Y-109340528D01*
X73955424Y-109358811D01*
X73777760Y-109497094D01*
X73753496Y-109523452D01*
X73628806Y-109658899D01*
X73628803Y-109658903D01*
X73625278Y-109662732D01*
X73622427Y-109667096D01*
X73554563Y-109770970D01*
X73502140Y-109851209D01*
X73411704Y-110057384D01*
X73410422Y-110062445D01*
X73410422Y-110062446D01*
X73371065Y-110217865D01*
X73356436Y-110275632D01*
X73356006Y-110280823D01*
X73356005Y-110280828D01*
X73347357Y-110385194D01*
X73337844Y-110500000D01*
X69488234Y-110500000D01*
X73522829Y-106465405D01*
X73585141Y-106431379D01*
X73611924Y-106428500D01*
X73741691Y-106428500D01*
X73809812Y-106448502D01*
X73819082Y-106455069D01*
X73921612Y-106534872D01*
X73955424Y-106561189D01*
X73989208Y-106579472D01*
X74039597Y-106629485D01*
X74054949Y-106698802D01*
X74030388Y-106765415D01*
X73989206Y-106801099D01*
X73960281Y-106816752D01*
X73951589Y-106822431D01*
X73782211Y-106954263D01*
X73774568Y-106961300D01*
X73629210Y-107119201D01*
X73622823Y-107127407D01*
X73505431Y-107307087D01*
X73500488Y-107316222D01*
X73414270Y-107512777D01*
X73410900Y-107522592D01*
X73368903Y-107688439D01*
X73369433Y-107702530D01*
X73377855Y-107706000D01*
X76019429Y-107706000D01*
X76032960Y-107702027D01*
X76034256Y-107693014D01*
X75991100Y-107522592D01*
X75987730Y-107512777D01*
X75956684Y-107442000D01*
X80620496Y-107442000D01*
X80621186Y-107448565D01*
X80635883Y-107588395D01*
X80640458Y-107631928D01*
X80699473Y-107813556D01*
X80794960Y-107978944D01*
X80799378Y-107983851D01*
X80799379Y-107983852D01*
X80913712Y-108110832D01*
X80922747Y-108120866D01*
X80928089Y-108124747D01*
X80928091Y-108124749D01*
X81026974Y-108196591D01*
X81047221Y-108214970D01*
X81060727Y-108230215D01*
X81089986Y-108250411D01*
X81101959Y-108259791D01*
X81128570Y-108283367D01*
X81160052Y-108299891D01*
X81173064Y-108307757D01*
X81202325Y-108327954D01*
X81209447Y-108330655D01*
X81209451Y-108330657D01*
X81235568Y-108340561D01*
X81249447Y-108346808D01*
X81274164Y-108359781D01*
X81274166Y-108359782D01*
X81280917Y-108363325D01*
X81288316Y-108365149D01*
X81288317Y-108365149D01*
X81315432Y-108371832D01*
X81329957Y-108376359D01*
X81356068Y-108386261D01*
X81356072Y-108386262D01*
X81363199Y-108388965D01*
X81370763Y-108389883D01*
X81370765Y-108389884D01*
X81398488Y-108393250D01*
X81413453Y-108395992D01*
X81416541Y-108396753D01*
X81447972Y-108404500D01*
X85826782Y-108404500D01*
X85834390Y-108404730D01*
X85887485Y-108407942D01*
X85887487Y-108407942D01*
X85895093Y-108408402D01*
X85902590Y-108407028D01*
X85902592Y-108407028D01*
X85954920Y-108397439D01*
X85962443Y-108396294D01*
X86015233Y-108389884D01*
X86015234Y-108389884D01*
X86022801Y-108388965D01*
X86032337Y-108385348D01*
X86054294Y-108379228D01*
X86064329Y-108377389D01*
X86071277Y-108374262D01*
X86071280Y-108374261D01*
X86119780Y-108352432D01*
X86126814Y-108349519D01*
X86176545Y-108330659D01*
X86176552Y-108330655D01*
X86183675Y-108327954D01*
X86192069Y-108322160D01*
X86211926Y-108310961D01*
X86214271Y-108309906D01*
X86214277Y-108309902D01*
X86221226Y-108306775D01*
X86251104Y-108283367D01*
X86269100Y-108269268D01*
X86275230Y-108264758D01*
X86318997Y-108234547D01*
X86325273Y-108230215D01*
X86330324Y-108224513D01*
X86330328Y-108224510D01*
X86365611Y-108184683D01*
X86370828Y-108179142D01*
X86643085Y-107906885D01*
X88070000Y-107906885D01*
X88074475Y-107922124D01*
X88075865Y-107923329D01*
X88083548Y-107925000D01*
X89155885Y-107925000D01*
X89171124Y-107920525D01*
X89172329Y-107919135D01*
X89174000Y-107911452D01*
X89174000Y-106839115D01*
X89169525Y-106823876D01*
X89168135Y-106822671D01*
X89160452Y-106821000D01*
X88532777Y-106821000D01*
X88526062Y-106821360D01*
X88476743Y-106826662D01*
X88461522Y-106830259D01*
X88340480Y-106875405D01*
X88324824Y-106883954D01*
X88222307Y-106960698D01*
X88209698Y-106973307D01*
X88132954Y-107075824D01*
X88124405Y-107091480D01*
X88079259Y-107212522D01*
X88075662Y-107227743D01*
X88070360Y-107277062D01*
X88070000Y-107283777D01*
X88070000Y-107906885D01*
X86643085Y-107906885D01*
X92939151Y-101610820D01*
X92944692Y-101605603D01*
X92984514Y-101570324D01*
X92984515Y-101570322D01*
X92990215Y-101565273D01*
X93024761Y-101515226D01*
X93029261Y-101509110D01*
X93062076Y-101467224D01*
X93066775Y-101461226D01*
X93070961Y-101451925D01*
X93082157Y-101432073D01*
X93087954Y-101423675D01*
X93109526Y-101366792D01*
X93112416Y-101359814D01*
X93137388Y-101304330D01*
X93139227Y-101294296D01*
X93145348Y-101272337D01*
X93148965Y-101262801D01*
X93156296Y-101202426D01*
X93157441Y-101194903D01*
X93167027Y-101142592D01*
X93167027Y-101142590D01*
X93168401Y-101135093D01*
X93164730Y-101074401D01*
X93164500Y-101066795D01*
X93164500Y-96545223D01*
X93164730Y-96537616D01*
X93167942Y-96484515D01*
X93167942Y-96484514D01*
X93168402Y-96476908D01*
X93167028Y-96469409D01*
X93157439Y-96417082D01*
X93156294Y-96409559D01*
X93149884Y-96356766D01*
X93149884Y-96356764D01*
X93148965Y-96349199D01*
X93145348Y-96339663D01*
X93139228Y-96317706D01*
X93137389Y-96307671D01*
X93112432Y-96252220D01*
X93109519Y-96245186D01*
X93090659Y-96195455D01*
X93090655Y-96195448D01*
X93087954Y-96188325D01*
X93082160Y-96179931D01*
X93070961Y-96160074D01*
X93069906Y-96157729D01*
X93069902Y-96157723D01*
X93066775Y-96150774D01*
X93029268Y-96102900D01*
X93024758Y-96096770D01*
X92994547Y-96053003D01*
X92990215Y-96046727D01*
X92984513Y-96041676D01*
X92984510Y-96041672D01*
X92944683Y-96006389D01*
X92939142Y-96001172D01*
X91604848Y-94666878D01*
X91570822Y-94604566D01*
X91570702Y-94553515D01*
X91571542Y-94550928D01*
X91591504Y-94361000D01*
X91571542Y-94171072D01*
X91512527Y-93989444D01*
X91417040Y-93824056D01*
X91289253Y-93682134D01*
X91134752Y-93569882D01*
X91128724Y-93567198D01*
X91128722Y-93567197D01*
X90966319Y-93494891D01*
X90966318Y-93494891D01*
X90960288Y-93492206D01*
X90866887Y-93472353D01*
X90779944Y-93453872D01*
X90779939Y-93453872D01*
X90773487Y-93452500D01*
X90582513Y-93452500D01*
X90576061Y-93453872D01*
X90576056Y-93453872D01*
X90489113Y-93472353D01*
X90395712Y-93492206D01*
X90389682Y-93494891D01*
X90389681Y-93494891D01*
X90227278Y-93567197D01*
X90227276Y-93567198D01*
X90221248Y-93569882D01*
X90215907Y-93573763D01*
X90210189Y-93577064D01*
X90208656Y-93574409D01*
X90154319Y-93593825D01*
X90085160Y-93577778D01*
X90035656Y-93526887D01*
X90027532Y-93504467D01*
X90026755Y-93504719D01*
X89969782Y-93329376D01*
X89967740Y-93323091D01*
X89956178Y-93303064D01*
X89918755Y-93238246D01*
X89872253Y-93157703D01*
X89825230Y-93105478D01*
X89748888Y-93020692D01*
X89748887Y-93020691D01*
X89744466Y-93015781D01*
X89643521Y-92942440D01*
X89595310Y-92907412D01*
X89595307Y-92907411D01*
X89589965Y-92903529D01*
X89583931Y-92900843D01*
X89578708Y-92897827D01*
X89529715Y-92846444D01*
X89515709Y-92788708D01*
X89515709Y-89705030D01*
X89535711Y-89636909D01*
X89552614Y-89615935D01*
X89577144Y-89591405D01*
X89639456Y-89557379D01*
X89666239Y-89554500D01*
X89757487Y-89554500D01*
X89763939Y-89553128D01*
X89763944Y-89553128D01*
X89850887Y-89534647D01*
X89944288Y-89514794D01*
X89950319Y-89512109D01*
X90112722Y-89439803D01*
X90112724Y-89439802D01*
X90118752Y-89437118D01*
X90125135Y-89432481D01*
X90213722Y-89368118D01*
X90273253Y-89324866D01*
X90401040Y-89182944D01*
X90496527Y-89017556D01*
X90555542Y-88835928D01*
X90560280Y-88790854D01*
X90574814Y-88652565D01*
X90575504Y-88646000D01*
X90564643Y-88542663D01*
X90556232Y-88462635D01*
X90556232Y-88462633D01*
X90555542Y-88456072D01*
X90496527Y-88274444D01*
X90401040Y-88109056D01*
X90345826Y-88047734D01*
X90277675Y-87972045D01*
X90277674Y-87972044D01*
X90273253Y-87967134D01*
X90158829Y-87884000D01*
X90124094Y-87858763D01*
X90124093Y-87858762D01*
X90118752Y-87854882D01*
X90112724Y-87852198D01*
X90112722Y-87852197D01*
X89950319Y-87779891D01*
X89950318Y-87779891D01*
X89944288Y-87777206D01*
X89850887Y-87757353D01*
X89763944Y-87738872D01*
X89763939Y-87738872D01*
X89757487Y-87737500D01*
X89566513Y-87737500D01*
X89560061Y-87738872D01*
X89560056Y-87738872D01*
X89473113Y-87757353D01*
X89379712Y-87777206D01*
X89373682Y-87779891D01*
X89373681Y-87779891D01*
X89211278Y-87852197D01*
X89211276Y-87852198D01*
X89205248Y-87854882D01*
X89199907Y-87858762D01*
X89199906Y-87858763D01*
X89165171Y-87884000D01*
X89050747Y-87967134D01*
X89046326Y-87972044D01*
X89046325Y-87972045D01*
X88978175Y-88047734D01*
X88922960Y-88109056D01*
X88827473Y-88274444D01*
X88768458Y-88456072D01*
X88767768Y-88462633D01*
X88767768Y-88462635D01*
X88759357Y-88542663D01*
X88748496Y-88646000D01*
X88748684Y-88647786D01*
X88729184Y-88714196D01*
X88712281Y-88735170D01*
X88510975Y-88936476D01*
X88498584Y-88947343D01*
X88473222Y-88966804D01*
X88448735Y-88998716D01*
X88448732Y-88998719D01*
X88375685Y-89093915D01*
X88314371Y-89241940D01*
X88314371Y-89241941D01*
X88312623Y-89255217D01*
X88298846Y-89359862D01*
X88298709Y-89360906D01*
X88298709Y-89360911D01*
X88293459Y-89400791D01*
X88294537Y-89408979D01*
X88297631Y-89432481D01*
X88298709Y-89448927D01*
X88298709Y-93303064D01*
X88292542Y-93342000D01*
X88239671Y-93504719D01*
X88238981Y-93511280D01*
X88238981Y-93511282D01*
X88221432Y-93678251D01*
X88219709Y-93694647D01*
X88239671Y-93884575D01*
X88298686Y-94066203D01*
X88394173Y-94231591D01*
X88521960Y-94373513D01*
X88676461Y-94485765D01*
X88682489Y-94488449D01*
X88682491Y-94488450D01*
X88844894Y-94560756D01*
X88850925Y-94563441D01*
X88944326Y-94583294D01*
X89031269Y-94601775D01*
X89031274Y-94601775D01*
X89037726Y-94603147D01*
X89228700Y-94603147D01*
X89235152Y-94601775D01*
X89235157Y-94601775D01*
X89322100Y-94583294D01*
X89415501Y-94563441D01*
X89421532Y-94560756D01*
X89583935Y-94488450D01*
X89583937Y-94488449D01*
X89589965Y-94485765D01*
X89595306Y-94481884D01*
X89601024Y-94478583D01*
X89602557Y-94481238D01*
X89656894Y-94461822D01*
X89726053Y-94477869D01*
X89775557Y-94528760D01*
X89783681Y-94551180D01*
X89784458Y-94550928D01*
X89843473Y-94732556D01*
X89938960Y-94897944D01*
X89943380Y-94902853D01*
X89943383Y-94902857D01*
X89990310Y-94954974D01*
X90011571Y-94987568D01*
X90021577Y-95009799D01*
X90024479Y-95016806D01*
X90046046Y-95073675D01*
X90051840Y-95082069D01*
X90063039Y-95101926D01*
X90064094Y-95104271D01*
X90064098Y-95104277D01*
X90067225Y-95111226D01*
X90071926Y-95117226D01*
X90104732Y-95159100D01*
X90109242Y-95165230D01*
X90120137Y-95181013D01*
X90143785Y-95215273D01*
X90149487Y-95220324D01*
X90149490Y-95220328D01*
X90189317Y-95255611D01*
X90194858Y-95260828D01*
X91710595Y-96776565D01*
X91744621Y-96838877D01*
X91747500Y-96865660D01*
X91747500Y-100746339D01*
X91727498Y-100814460D01*
X91710595Y-100835434D01*
X85595435Y-106950595D01*
X85533123Y-106984621D01*
X85506340Y-106987500D01*
X82393385Y-106987500D01*
X82325264Y-106967498D01*
X82284266Y-106924500D01*
X82276341Y-106910774D01*
X82273040Y-106905056D01*
X82209555Y-106834548D01*
X82149675Y-106768045D01*
X82149674Y-106768044D01*
X82145253Y-106763134D01*
X81990752Y-106650882D01*
X81984724Y-106648198D01*
X81984722Y-106648197D01*
X81822319Y-106575891D01*
X81822318Y-106575891D01*
X81816288Y-106573206D01*
X81722887Y-106553353D01*
X81635944Y-106534872D01*
X81635939Y-106534872D01*
X81629487Y-106533500D01*
X81438513Y-106533500D01*
X81432061Y-106534872D01*
X81432056Y-106534872D01*
X81345112Y-106553353D01*
X81251712Y-106573206D01*
X81245682Y-106575891D01*
X81245681Y-106575891D01*
X81083278Y-106648197D01*
X81083276Y-106648198D01*
X81077248Y-106650882D01*
X80922747Y-106763134D01*
X80918326Y-106768044D01*
X80918325Y-106768045D01*
X80858446Y-106834548D01*
X80794960Y-106905056D01*
X80747361Y-106987500D01*
X80716466Y-107041012D01*
X80699473Y-107070444D01*
X80640458Y-107252072D01*
X80620496Y-107442000D01*
X75956684Y-107442000D01*
X75901512Y-107316222D01*
X75896569Y-107307087D01*
X75779177Y-107127407D01*
X75772790Y-107119201D01*
X75627432Y-106961300D01*
X75619789Y-106954263D01*
X75450411Y-106822431D01*
X75441719Y-106816752D01*
X75412794Y-106801099D01*
X75362403Y-106751086D01*
X75347051Y-106681769D01*
X75371612Y-106615156D01*
X75412792Y-106579472D01*
X75446576Y-106561189D01*
X75482151Y-106533500D01*
X75620121Y-106426112D01*
X75624240Y-106422906D01*
X75678128Y-106364369D01*
X75773194Y-106261101D01*
X75773197Y-106261097D01*
X75776722Y-106257268D01*
X75899860Y-106068791D01*
X75921804Y-106018765D01*
X75988200Y-105867394D01*
X75990296Y-105862616D01*
X76045564Y-105644368D01*
X76048598Y-105607762D01*
X76063726Y-105425189D01*
X76064156Y-105420000D01*
X76059566Y-105364604D01*
X76045995Y-105200828D01*
X76045994Y-105200823D01*
X76045564Y-105195632D01*
X76029324Y-105131500D01*
X75991578Y-104982446D01*
X75991578Y-104982445D01*
X75990296Y-104977384D01*
X75959509Y-104907196D01*
X75901954Y-104775982D01*
X75901952Y-104775978D01*
X75899860Y-104771209D01*
X75858702Y-104708211D01*
X75807552Y-104629921D01*
X75776722Y-104582732D01*
X75773197Y-104578903D01*
X75773194Y-104578899D01*
X75683956Y-104481962D01*
X75633158Y-104426782D01*
X75601738Y-104363118D01*
X75609725Y-104292572D01*
X75654583Y-104237543D01*
X75681827Y-104223389D01*
X75788522Y-104183594D01*
X75804176Y-104175046D01*
X75906693Y-104098302D01*
X75919302Y-104085693D01*
X75996046Y-103983176D01*
X76004595Y-103967520D01*
X76049741Y-103846478D01*
X76053338Y-103831257D01*
X76058640Y-103781938D01*
X76059000Y-103775223D01*
X76059000Y-103152115D01*
X76054525Y-103136876D01*
X76053135Y-103135671D01*
X76045452Y-103134000D01*
X73361115Y-103134000D01*
X73345876Y-103138475D01*
X73344671Y-103139865D01*
X73343000Y-103147548D01*
X73343000Y-103775223D01*
X73343360Y-103781938D01*
X73348662Y-103831257D01*
X73352259Y-103846478D01*
X73397405Y-103967520D01*
X73405954Y-103983176D01*
X73482698Y-104085693D01*
X73495307Y-104098302D01*
X73605038Y-104180446D01*
X73604214Y-104181546D01*
X73647783Y-104225115D01*
X73662874Y-104294489D01*
X73638063Y-104361009D01*
X73581227Y-104403556D01*
X73537195Y-104411500D01*
X73197737Y-104411500D01*
X73185388Y-104410893D01*
X73148164Y-104407227D01*
X73148163Y-104407227D01*
X73142000Y-104406620D01*
X72944299Y-104426091D01*
X72938378Y-104427887D01*
X72938374Y-104427888D01*
X72815400Y-104465193D01*
X72754196Y-104483759D01*
X72748735Y-104486678D01*
X72664879Y-104531500D01*
X72578996Y-104577405D01*
X72425432Y-104703432D01*
X72421510Y-104708211D01*
X72397766Y-104737143D01*
X72389462Y-104746304D01*
X67096804Y-110038962D01*
X67087649Y-110047261D01*
X67053932Y-110074932D01*
X66927905Y-110228496D01*
X66924988Y-110233954D01*
X66924987Y-110233955D01*
X66905414Y-110270573D01*
X66874371Y-110328651D01*
X66834259Y-110403696D01*
X66776591Y-110593799D01*
X66757120Y-110791500D01*
X66757727Y-110797663D01*
X66757727Y-110797664D01*
X66761393Y-110834888D01*
X66762000Y-110847237D01*
X66762000Y-115232284D01*
X66741998Y-115300405D01*
X66688342Y-115346898D01*
X66618068Y-115357002D01*
X66553487Y-115327508D01*
X66548000Y-115322753D01*
X66548000Y-115316000D01*
X65687109Y-115316000D01*
X65637589Y-115305860D01*
X65620970Y-115298757D01*
X65400115Y-115248349D01*
X65173809Y-115238185D01*
X64949325Y-115268594D01*
X64943946Y-115270342D01*
X64943945Y-115270342D01*
X64822405Y-115309833D01*
X64783469Y-115316000D01*
X63147109Y-115316000D01*
X63097589Y-115305860D01*
X63080970Y-115298757D01*
X62860115Y-115248349D01*
X62633809Y-115238185D01*
X62409325Y-115268594D01*
X62403946Y-115270342D01*
X62403945Y-115270342D01*
X62282405Y-115309833D01*
X62243469Y-115316000D01*
X60452000Y-115316000D01*
X60452000Y-121620000D01*
X60431998Y-121688121D01*
X60378342Y-121734614D01*
X60326000Y-121746000D01*
X51067157Y-121746000D01*
X51006771Y-121730587D01*
X50967595Y-121709195D01*
X50957979Y-121703373D01*
X50854777Y-121634416D01*
X50849270Y-121630519D01*
X50835219Y-121620000D01*
X50743352Y-121551229D01*
X50735784Y-121545093D01*
X50642065Y-121462904D01*
X50636047Y-121457267D01*
X50542733Y-121363953D01*
X50537096Y-121357935D01*
X50454907Y-121264216D01*
X50448771Y-121256648D01*
X50369481Y-121150730D01*
X50365584Y-121145223D01*
X50296624Y-121042017D01*
X50290801Y-121032400D01*
X50226825Y-120915235D01*
X50224418Y-120910600D01*
X50170077Y-120800406D01*
X50165027Y-120788711D01*
X50117451Y-120661155D01*
X50116194Y-120657624D01*
X50077568Y-120543836D01*
X50073760Y-120530117D01*
X50043389Y-120390503D01*
X50042931Y-120388302D01*
X50020799Y-120277038D01*
X50018699Y-120261445D01*
X50006007Y-120083990D01*
X50005956Y-120083242D01*
X50000770Y-120004119D01*
X50000500Y-119995878D01*
X50000500Y-119000000D01*
X50994390Y-119000000D01*
X51014804Y-119285428D01*
X51075631Y-119565046D01*
X51077198Y-119569248D01*
X51077200Y-119569254D01*
X51174064Y-119828955D01*
X51175633Y-119833161D01*
X51177786Y-119837104D01*
X51177787Y-119837106D01*
X51249586Y-119968595D01*
X51312774Y-120084315D01*
X51384091Y-120179583D01*
X51481563Y-120309792D01*
X51481569Y-120309799D01*
X51484261Y-120313395D01*
X51686605Y-120515739D01*
X51690201Y-120518431D01*
X51690208Y-120518437D01*
X51820417Y-120615909D01*
X51915685Y-120687226D01*
X52166839Y-120824367D01*
X52171042Y-120825935D01*
X52171045Y-120825936D01*
X52430746Y-120922800D01*
X52430752Y-120922802D01*
X52434954Y-120924369D01*
X52439340Y-120925323D01*
X52439343Y-120925324D01*
X52605947Y-120961566D01*
X52714572Y-120985196D01*
X53000000Y-121005610D01*
X53004488Y-121005289D01*
X53280940Y-120985517D01*
X53285428Y-120985196D01*
X53394053Y-120961566D01*
X53560657Y-120925324D01*
X53560660Y-120925323D01*
X53565046Y-120924369D01*
X53569248Y-120922802D01*
X53569254Y-120922800D01*
X53828955Y-120825936D01*
X53828958Y-120825935D01*
X53833161Y-120824367D01*
X54084315Y-120687226D01*
X54179583Y-120615909D01*
X54309792Y-120518437D01*
X54309799Y-120518431D01*
X54313395Y-120515739D01*
X54515739Y-120313395D01*
X54518431Y-120309799D01*
X54518437Y-120309792D01*
X54615909Y-120179583D01*
X54687226Y-120084315D01*
X54750414Y-119968595D01*
X54822213Y-119837106D01*
X54822214Y-119837104D01*
X54824367Y-119833161D01*
X54825936Y-119828955D01*
X54922800Y-119569254D01*
X54922802Y-119569248D01*
X54924369Y-119565046D01*
X54985196Y-119285428D01*
X55005610Y-119000000D01*
X54985196Y-118714572D01*
X54924369Y-118434954D01*
X54922802Y-118430752D01*
X54922800Y-118430746D01*
X54825936Y-118171045D01*
X54825935Y-118171042D01*
X54824367Y-118166839D01*
X54780494Y-118086491D01*
X54689385Y-117919639D01*
X54687226Y-117915685D01*
X54615909Y-117820417D01*
X54518437Y-117690208D01*
X54518431Y-117690201D01*
X54515739Y-117686605D01*
X54313395Y-117484261D01*
X54309799Y-117481569D01*
X54309792Y-117481563D01*
X54116224Y-117336661D01*
X54084315Y-117312774D01*
X53833161Y-117175633D01*
X53828958Y-117174065D01*
X53828955Y-117174064D01*
X53569254Y-117077200D01*
X53569248Y-117077198D01*
X53565046Y-117075631D01*
X53560660Y-117074677D01*
X53560657Y-117074676D01*
X53394053Y-117038434D01*
X53285428Y-117014804D01*
X53000000Y-116994390D01*
X52714572Y-117014804D01*
X52605947Y-117038434D01*
X52439343Y-117074676D01*
X52439340Y-117074677D01*
X52434954Y-117075631D01*
X52430752Y-117077198D01*
X52430746Y-117077200D01*
X52171045Y-117174064D01*
X52171042Y-117174065D01*
X52166839Y-117175633D01*
X51915685Y-117312774D01*
X51883776Y-117336661D01*
X51690208Y-117481563D01*
X51690201Y-117481569D01*
X51686605Y-117484261D01*
X51484261Y-117686605D01*
X51481569Y-117690201D01*
X51481563Y-117690208D01*
X51384091Y-117820417D01*
X51312774Y-117915685D01*
X51310615Y-117919639D01*
X51219507Y-118086491D01*
X51175633Y-118166839D01*
X51174065Y-118171042D01*
X51174064Y-118171045D01*
X51077200Y-118430746D01*
X51077198Y-118430752D01*
X51075631Y-118434954D01*
X51014804Y-118714572D01*
X50994390Y-119000000D01*
X50000500Y-119000000D01*
X50000500Y-112031284D01*
X54577071Y-112031284D01*
X54581237Y-112065597D01*
X54583265Y-112075533D01*
X54649973Y-112305837D01*
X54653561Y-112315299D01*
X54756357Y-112531936D01*
X54761411Y-112540690D01*
X54897628Y-112738033D01*
X54904028Y-112745872D01*
X55070131Y-112918804D01*
X55077703Y-112925512D01*
X55269403Y-113069566D01*
X55277943Y-113074966D01*
X55490269Y-113186403D01*
X55499579Y-113190369D01*
X55727009Y-113266297D01*
X55736854Y-113268724D01*
X55973521Y-113307185D01*
X55983609Y-113308000D01*
X56591385Y-113308000D01*
X56606624Y-113303525D01*
X56607829Y-113302135D01*
X56609500Y-113294452D01*
X56609500Y-113289885D01*
X57117500Y-113289885D01*
X57121975Y-113305124D01*
X57123365Y-113306329D01*
X57131048Y-113308000D01*
X57683333Y-113308000D01*
X57688430Y-113307794D01*
X57867562Y-113293334D01*
X57877550Y-113291711D01*
X58110373Y-113234325D01*
X58119967Y-113231121D01*
X58340555Y-113137138D01*
X58349527Y-113132429D01*
X58552184Y-113004276D01*
X58560277Y-112998194D01*
X58739747Y-112839198D01*
X58746768Y-112831889D01*
X58898407Y-112646165D01*
X58904167Y-112637820D01*
X59024048Y-112430180D01*
X59028395Y-112421019D01*
X59113416Y-112196835D01*
X59116235Y-112187104D01*
X59147952Y-112031747D01*
X59146766Y-112017699D01*
X59136448Y-112014000D01*
X57135615Y-112014000D01*
X57120376Y-112018475D01*
X57119171Y-112019865D01*
X57117500Y-112027548D01*
X57117500Y-113289885D01*
X56609500Y-113289885D01*
X56609500Y-112032115D01*
X56605025Y-112016876D01*
X56603635Y-112015671D01*
X56595952Y-112014000D01*
X54593087Y-112014000D01*
X54579114Y-112018103D01*
X54577071Y-112031284D01*
X50000500Y-112031284D01*
X50000500Y-111488253D01*
X54579048Y-111488253D01*
X54580234Y-111502301D01*
X54590552Y-111506000D01*
X56591385Y-111506000D01*
X56606624Y-111501525D01*
X56607829Y-111500135D01*
X56609500Y-111492452D01*
X56609500Y-111487885D01*
X57117500Y-111487885D01*
X57121975Y-111503124D01*
X57123365Y-111504329D01*
X57131048Y-111506000D01*
X59133913Y-111506000D01*
X59147886Y-111501897D01*
X59149929Y-111488716D01*
X59145763Y-111454403D01*
X59143735Y-111444467D01*
X59077027Y-111214163D01*
X59073439Y-111204701D01*
X58970643Y-110988064D01*
X58965589Y-110979310D01*
X58829372Y-110781967D01*
X58822972Y-110774128D01*
X58656869Y-110601196D01*
X58649297Y-110594488D01*
X58457597Y-110450434D01*
X58449057Y-110445034D01*
X58236731Y-110333597D01*
X58227421Y-110329631D01*
X57999991Y-110253703D01*
X57990146Y-110251276D01*
X57753479Y-110212815D01*
X57743391Y-110212000D01*
X57135615Y-110212000D01*
X57120376Y-110216475D01*
X57119171Y-110217865D01*
X57117500Y-110225548D01*
X57117500Y-111487885D01*
X56609500Y-111487885D01*
X56609500Y-110230115D01*
X56605025Y-110214876D01*
X56603635Y-110213671D01*
X56595952Y-110212000D01*
X56043667Y-110212000D01*
X56038570Y-110212206D01*
X55859438Y-110226666D01*
X55849450Y-110228289D01*
X55616627Y-110285675D01*
X55607033Y-110288879D01*
X55386445Y-110382862D01*
X55377473Y-110387571D01*
X55174816Y-110515724D01*
X55166723Y-110521806D01*
X54987253Y-110680802D01*
X54980232Y-110688111D01*
X54828593Y-110873835D01*
X54822833Y-110882180D01*
X54702952Y-111089820D01*
X54698605Y-111098981D01*
X54613584Y-111323165D01*
X54610765Y-111332896D01*
X54579048Y-111488253D01*
X50000500Y-111488253D01*
X50000500Y-106742555D01*
X54551222Y-106742555D01*
X54565081Y-106856698D01*
X54576483Y-106950595D01*
X54581358Y-106990748D01*
X54582771Y-106995626D01*
X54582772Y-106995631D01*
X54615101Y-107107243D01*
X54650917Y-107230892D01*
X54758097Y-107456769D01*
X54900122Y-107662528D01*
X54903634Y-107666185D01*
X54903637Y-107666188D01*
X55069798Y-107839180D01*
X55069802Y-107839183D01*
X55073314Y-107842840D01*
X55077369Y-107845887D01*
X55077370Y-107845888D01*
X55269129Y-107989986D01*
X55269132Y-107989988D01*
X55273187Y-107993035D01*
X55277686Y-107995396D01*
X55490062Y-108106860D01*
X55490066Y-108106862D01*
X55494565Y-108109223D01*
X55499382Y-108110831D01*
X55499384Y-108110832D01*
X55529440Y-108120866D01*
X55731714Y-108188395D01*
X55736726Y-108189210D01*
X55736732Y-108189211D01*
X55858116Y-108208937D01*
X55978492Y-108228500D01*
X57685907Y-108228500D01*
X57782106Y-108220734D01*
X57867643Y-108213829D01*
X57867647Y-108213828D01*
X57872705Y-108213420D01*
X57877627Y-108212207D01*
X57877632Y-108212206D01*
X58110531Y-108154801D01*
X58110532Y-108154801D01*
X58115456Y-108153587D01*
X58345465Y-108055590D01*
X58556776Y-107921965D01*
X58560567Y-107918607D01*
X58560573Y-107918602D01*
X58740113Y-107759542D01*
X58743915Y-107756174D01*
X58761958Y-107734076D01*
X58869299Y-107602606D01*
X58902037Y-107562510D01*
X59027045Y-107345990D01*
X59115701Y-107112221D01*
X59165711Y-106867258D01*
X59175778Y-106617445D01*
X59160636Y-106492742D01*
X59146255Y-106374299D01*
X59146255Y-106374297D01*
X59145642Y-106369252D01*
X59114316Y-106261101D01*
X59077494Y-106133980D01*
X59076083Y-106129108D01*
X58968903Y-105903231D01*
X58826878Y-105697472D01*
X58823363Y-105693812D01*
X58657202Y-105520820D01*
X58657198Y-105520817D01*
X58653686Y-105517160D01*
X58649630Y-105514112D01*
X58457871Y-105370014D01*
X58457868Y-105370012D01*
X58453813Y-105366965D01*
X58332378Y-105303231D01*
X58236938Y-105253140D01*
X58236934Y-105253138D01*
X58232435Y-105250777D01*
X58227618Y-105249169D01*
X58227616Y-105249168D01*
X58095912Y-105205199D01*
X57995286Y-105171605D01*
X57990274Y-105170790D01*
X57990268Y-105170789D01*
X57868884Y-105151063D01*
X57748508Y-105131500D01*
X56041093Y-105131500D01*
X55944894Y-105139266D01*
X55859357Y-105146171D01*
X55859353Y-105146172D01*
X55854295Y-105146580D01*
X55849373Y-105147793D01*
X55849368Y-105147794D01*
X55634203Y-105200828D01*
X55611544Y-105206413D01*
X55381535Y-105304410D01*
X55170224Y-105438035D01*
X55166433Y-105441393D01*
X55166427Y-105441398D01*
X55076779Y-105520820D01*
X54983085Y-105603826D01*
X54979873Y-105607760D01*
X54979871Y-105607762D01*
X54906625Y-105697472D01*
X54824963Y-105797490D01*
X54699955Y-106014010D01*
X54611299Y-106247779D01*
X54561289Y-106492742D01*
X54551222Y-106742555D01*
X50000500Y-106742555D01*
X50000500Y-77872000D01*
X50020502Y-77803879D01*
X50074158Y-77757386D01*
X50126500Y-77746000D01*
X52975470Y-77746000D01*
X53043591Y-77766002D01*
X53090084Y-77819658D01*
X53100188Y-77889932D01*
X53070694Y-77954512D01*
X53049535Y-77973933D01*
X53020637Y-77994929D01*
X52875971Y-78146237D01*
X52864836Y-78156559D01*
X52775432Y-78229932D01*
X52771510Y-78234711D01*
X52747766Y-78263643D01*
X52739462Y-78272804D01*
X50888304Y-80123962D01*
X50879143Y-80132266D01*
X50845432Y-80159932D01*
X50719405Y-80313496D01*
X50637703Y-80466350D01*
X50625759Y-80488696D01*
X50568091Y-80678799D01*
X50548620Y-80876500D01*
X50549227Y-80882663D01*
X50549227Y-80882664D01*
X50552893Y-80919888D01*
X50553500Y-80932237D01*
X50553500Y-100020263D01*
X50552893Y-100032612D01*
X50549988Y-100062113D01*
X50548620Y-100076000D01*
X50568091Y-100273701D01*
X50611106Y-100415499D01*
X50625759Y-100463804D01*
X50628676Y-100469262D01*
X50628678Y-100469266D01*
X50716487Y-100633545D01*
X50719405Y-100639004D01*
X50845432Y-100792568D01*
X50864677Y-100808362D01*
X50879143Y-100820234D01*
X50888304Y-100828538D01*
X52333466Y-102273701D01*
X52341770Y-102282862D01*
X52369432Y-102316568D01*
X52522996Y-102442595D01*
X52692918Y-102533420D01*
X52698196Y-102536241D01*
X52801953Y-102567715D01*
X52882377Y-102592112D01*
X52882381Y-102592113D01*
X52888299Y-102593908D01*
X53086000Y-102613380D01*
X53129384Y-102609107D01*
X53141734Y-102608500D01*
X54495858Y-102608500D01*
X54563979Y-102628502D01*
X54610472Y-102682158D01*
X54615463Y-102694868D01*
X54621385Y-102712739D01*
X54714470Y-102863652D01*
X54839848Y-102989030D01*
X54990761Y-103082115D01*
X55054306Y-103103171D01*
X55152547Y-103135725D01*
X55152551Y-103135726D01*
X55159073Y-103137887D01*
X55165907Y-103138585D01*
X55165911Y-103138586D01*
X55259770Y-103148175D01*
X55259776Y-103148175D01*
X55262954Y-103148500D01*
X58464046Y-103148500D01*
X58467224Y-103148175D01*
X58467230Y-103148175D01*
X58561089Y-103138586D01*
X58561093Y-103138585D01*
X58567927Y-103137887D01*
X58574449Y-103135726D01*
X58574453Y-103135725D01*
X58672694Y-103103171D01*
X58736239Y-103082115D01*
X58887152Y-102989030D01*
X59012530Y-102863652D01*
X59105615Y-102712739D01*
X59140360Y-102607885D01*
X73343000Y-102607885D01*
X73347475Y-102623124D01*
X73348865Y-102624329D01*
X73356548Y-102626000D01*
X74428885Y-102626000D01*
X74444124Y-102621525D01*
X74445329Y-102620135D01*
X74447000Y-102612452D01*
X74447000Y-102607885D01*
X74955000Y-102607885D01*
X74959475Y-102623124D01*
X74960865Y-102624329D01*
X74968548Y-102626000D01*
X76040885Y-102626000D01*
X76056124Y-102621525D01*
X76057329Y-102620135D01*
X76059000Y-102612452D01*
X76059000Y-101984777D01*
X76058640Y-101978062D01*
X76053338Y-101928743D01*
X76049741Y-101913522D01*
X76004595Y-101792480D01*
X75996046Y-101776824D01*
X75919302Y-101674307D01*
X75906693Y-101661698D01*
X75804176Y-101584954D01*
X75788520Y-101576405D01*
X75667478Y-101531259D01*
X75652257Y-101527662D01*
X75602938Y-101522360D01*
X75596223Y-101522000D01*
X74973115Y-101522000D01*
X74957876Y-101526475D01*
X74956671Y-101527865D01*
X74955000Y-101535548D01*
X74955000Y-102607885D01*
X74447000Y-102607885D01*
X74447000Y-101540115D01*
X74442525Y-101524876D01*
X74441135Y-101523671D01*
X74433452Y-101522000D01*
X73805777Y-101522000D01*
X73799062Y-101522360D01*
X73749743Y-101527662D01*
X73734522Y-101531259D01*
X73613480Y-101576405D01*
X73597824Y-101584954D01*
X73495307Y-101661698D01*
X73482698Y-101674307D01*
X73405954Y-101776824D01*
X73397405Y-101792480D01*
X73352259Y-101913522D01*
X73348662Y-101928743D01*
X73343360Y-101978062D01*
X73343000Y-101984777D01*
X73343000Y-102607885D01*
X59140360Y-102607885D01*
X59161387Y-102544427D01*
X59162224Y-102536241D01*
X59171675Y-102443730D01*
X59171675Y-102443724D01*
X59172000Y-102440546D01*
X59172000Y-100759454D01*
X59161387Y-100655573D01*
X59157483Y-100643789D01*
X59107922Y-100494224D01*
X59107922Y-100494223D01*
X59105615Y-100487261D01*
X59012530Y-100336348D01*
X58887152Y-100210970D01*
X58736239Y-100117885D01*
X58672694Y-100096829D01*
X58574453Y-100064275D01*
X58574449Y-100064274D01*
X58567927Y-100062113D01*
X58561093Y-100061415D01*
X58561089Y-100061414D01*
X58467230Y-100051825D01*
X58467224Y-100051825D01*
X58464046Y-100051500D01*
X55262954Y-100051500D01*
X55259776Y-100051825D01*
X55259770Y-100051825D01*
X55165911Y-100061414D01*
X55165907Y-100061415D01*
X55159073Y-100062113D01*
X55152551Y-100064274D01*
X55152547Y-100064275D01*
X55054306Y-100096829D01*
X54990761Y-100117885D01*
X54839848Y-100210970D01*
X54714470Y-100336348D01*
X54710617Y-100342595D01*
X54710616Y-100342596D01*
X54625236Y-100481018D01*
X54621385Y-100487261D01*
X54619078Y-100494223D01*
X54615463Y-100505132D01*
X54575049Y-100563504D01*
X54509493Y-100590760D01*
X54495858Y-100591500D01*
X53555926Y-100591500D01*
X53487805Y-100571498D01*
X53466831Y-100554596D01*
X52607405Y-99695171D01*
X52573380Y-99632858D01*
X52570500Y-99606075D01*
X52570500Y-85339000D01*
X56231496Y-85339000D01*
X56232186Y-85345565D01*
X56247776Y-85493891D01*
X56251458Y-85528928D01*
X56310473Y-85710556D01*
X56405960Y-85875944D01*
X56533747Y-86017866D01*
X56632843Y-86089864D01*
X56677766Y-86122502D01*
X56688248Y-86130118D01*
X56694276Y-86132802D01*
X56694278Y-86132803D01*
X56791656Y-86176158D01*
X56862712Y-86207794D01*
X56956112Y-86227647D01*
X57043056Y-86246128D01*
X57043061Y-86246128D01*
X57049513Y-86247500D01*
X57240487Y-86247500D01*
X57246939Y-86246128D01*
X57246944Y-86246128D01*
X57333888Y-86227647D01*
X57427288Y-86207794D01*
X57498344Y-86176158D01*
X57595722Y-86132803D01*
X57595724Y-86132802D01*
X57601752Y-86130118D01*
X57607093Y-86126237D01*
X57612811Y-86122936D01*
X57613600Y-86124302D01*
X57680705Y-86102500D01*
X58663623Y-86102500D01*
X58731744Y-86122502D01*
X58778237Y-86176158D01*
X58788933Y-86241670D01*
X58776496Y-86360000D01*
X58777186Y-86366565D01*
X58786941Y-86459375D01*
X58796458Y-86549928D01*
X58855473Y-86731556D01*
X58950960Y-86896944D01*
X58955378Y-86901851D01*
X58955379Y-86901852D01*
X59074325Y-87033955D01*
X59078747Y-87038866D01*
X59233248Y-87151118D01*
X59239276Y-87153802D01*
X59239278Y-87153803D01*
X59401681Y-87226109D01*
X59407712Y-87228794D01*
X59498760Y-87248147D01*
X59588056Y-87267128D01*
X59588061Y-87267128D01*
X59594513Y-87268500D01*
X59785487Y-87268500D01*
X59791939Y-87267128D01*
X59791944Y-87267128D01*
X59881240Y-87248147D01*
X59972288Y-87228794D01*
X59978319Y-87226109D01*
X60140722Y-87153803D01*
X60140724Y-87153802D01*
X60146752Y-87151118D01*
X60180039Y-87126934D01*
X60295292Y-87043197D01*
X60301253Y-87038866D01*
X60306294Y-87033268D01*
X60327074Y-87010189D01*
X60387520Y-86972950D01*
X60420710Y-86968500D01*
X61925761Y-86968500D01*
X61993882Y-86988502D01*
X62014856Y-87005405D01*
X62600595Y-87591144D01*
X62634621Y-87653456D01*
X62637500Y-87680239D01*
X62637500Y-92153864D01*
X62636422Y-92170307D01*
X62632250Y-92202000D01*
X62637500Y-92241880D01*
X62637500Y-92241885D01*
X62646940Y-92313587D01*
X62653162Y-92360851D01*
X62714476Y-92508876D01*
X62719503Y-92515427D01*
X62719504Y-92515429D01*
X62787520Y-92604069D01*
X62787526Y-92604075D01*
X62812013Y-92635987D01*
X62818568Y-92641017D01*
X62837379Y-92655452D01*
X62849770Y-92666319D01*
X65321685Y-95138234D01*
X65332552Y-95150625D01*
X65352013Y-95175987D01*
X65358563Y-95181013D01*
X65383925Y-95200474D01*
X65383928Y-95200477D01*
X65453318Y-95253722D01*
X65472570Y-95268495D01*
X65472574Y-95268497D01*
X65479125Y-95273524D01*
X65627150Y-95334838D01*
X65746115Y-95350500D01*
X65746120Y-95350500D01*
X65746129Y-95350501D01*
X65777812Y-95354672D01*
X65786000Y-95355750D01*
X65817693Y-95351578D01*
X65834136Y-95350500D01*
X81991761Y-95350500D01*
X82059882Y-95370502D01*
X82080856Y-95387405D01*
X86403685Y-99710234D01*
X86414552Y-99722625D01*
X86434013Y-99747987D01*
X86440566Y-99753015D01*
X86465913Y-99772465D01*
X86465928Y-99772477D01*
X86484016Y-99786356D01*
X86561125Y-99845524D01*
X86709150Y-99906838D01*
X86828115Y-99922500D01*
X86828120Y-99922500D01*
X86828129Y-99922501D01*
X86859812Y-99926672D01*
X86868000Y-99927750D01*
X86899693Y-99923578D01*
X86916136Y-99922500D01*
X89836331Y-99922500D01*
X89852774Y-99923578D01*
X89884467Y-99927750D01*
X89892656Y-99926672D01*
X89924341Y-99922501D01*
X89924351Y-99922500D01*
X89924352Y-99922500D01*
X89924368Y-99922498D01*
X90023924Y-99909391D01*
X90035131Y-99907916D01*
X90035133Y-99907915D01*
X90043318Y-99906838D01*
X90191343Y-99845524D01*
X90202244Y-99837160D01*
X90286539Y-99772477D01*
X90286542Y-99772474D01*
X90311901Y-99753015D01*
X90318454Y-99747987D01*
X90323484Y-99741432D01*
X90337919Y-99722621D01*
X90348786Y-99710230D01*
X90370785Y-99688231D01*
X90433097Y-99654205D01*
X90459880Y-99651326D01*
X90551128Y-99651326D01*
X90557580Y-99649954D01*
X90557585Y-99649954D01*
X90644528Y-99631473D01*
X90737929Y-99611620D01*
X90743960Y-99608935D01*
X90906363Y-99536629D01*
X90906365Y-99536628D01*
X90912393Y-99533944D01*
X90922759Y-99526413D01*
X91025867Y-99451500D01*
X91066894Y-99421692D01*
X91194681Y-99279770D01*
X91290168Y-99114382D01*
X91349183Y-98932754D01*
X91369145Y-98742826D01*
X91349183Y-98552898D01*
X91290168Y-98371270D01*
X91194681Y-98205882D01*
X91066894Y-98063960D01*
X90912393Y-97951708D01*
X90906365Y-97949024D01*
X90906363Y-97949023D01*
X90743960Y-97876717D01*
X90743959Y-97876717D01*
X90737929Y-97874032D01*
X90644529Y-97854179D01*
X90557585Y-97835698D01*
X90557580Y-97835698D01*
X90551128Y-97834326D01*
X90484136Y-97834326D01*
X90416015Y-97814324D01*
X90375017Y-97771327D01*
X90333251Y-97698986D01*
X90205464Y-97557064D01*
X90050963Y-97444812D01*
X90044935Y-97442128D01*
X90044933Y-97442127D01*
X89882530Y-97369821D01*
X89882529Y-97369821D01*
X89876499Y-97367136D01*
X89783099Y-97347283D01*
X89696155Y-97328802D01*
X89696150Y-97328802D01*
X89689698Y-97327430D01*
X89498724Y-97327430D01*
X89492272Y-97328802D01*
X89492267Y-97328802D01*
X89404016Y-97347561D01*
X89378602Y-97352963D01*
X89307811Y-97347561D01*
X89263310Y-97318811D01*
X89019265Y-97074766D01*
X89008398Y-97062375D01*
X88993963Y-97043563D01*
X88988937Y-97037013D01*
X88957025Y-97012526D01*
X88957022Y-97012523D01*
X88861826Y-96939476D01*
X88713801Y-96878162D01*
X88705614Y-96877084D01*
X88705613Y-96877084D01*
X88694408Y-96875609D01*
X88663212Y-96871502D01*
X88594835Y-96862500D01*
X88594832Y-96862500D01*
X88594824Y-96862499D01*
X88563139Y-96858328D01*
X88554950Y-96857250D01*
X88523257Y-96861422D01*
X88506814Y-96862500D01*
X87234239Y-96862500D01*
X87166118Y-96842498D01*
X87145144Y-96825595D01*
X83757315Y-93437766D01*
X83746448Y-93425375D01*
X83732013Y-93406563D01*
X83726987Y-93400013D01*
X83695075Y-93375526D01*
X83695072Y-93375523D01*
X83683227Y-93366434D01*
X83606429Y-93307504D01*
X83606427Y-93307503D01*
X83599876Y-93302476D01*
X83451851Y-93241162D01*
X83443664Y-93240084D01*
X83443663Y-93240084D01*
X83424490Y-93237560D01*
X83332893Y-93225501D01*
X83332891Y-93225501D01*
X83332885Y-93225500D01*
X83332883Y-93225500D01*
X83332874Y-93225499D01*
X83301189Y-93221328D01*
X83293000Y-93220250D01*
X83261307Y-93224422D01*
X83244864Y-93225500D01*
X79400430Y-93225500D01*
X79332309Y-93205498D01*
X79285816Y-93151842D01*
X79275712Y-93081568D01*
X79305206Y-93016988D01*
X79324921Y-92998632D01*
X79399984Y-92942440D01*
X79420261Y-92927261D01*
X79507889Y-92810204D01*
X79558989Y-92673201D01*
X79565500Y-92612638D01*
X79565500Y-92467815D01*
X79585502Y-92399694D01*
X79622263Y-92362543D01*
X79634080Y-92354771D01*
X79637171Y-92352802D01*
X79695401Y-92316886D01*
X79695407Y-92316882D01*
X79701651Y-92313030D01*
X79706844Y-92307837D01*
X79709473Y-92305758D01*
X79709836Y-92305496D01*
X79710148Y-92305210D01*
X79712739Y-92303036D01*
X79718874Y-92299001D01*
X79770930Y-92243825D01*
X79773483Y-92241198D01*
X81008771Y-91005910D01*
X81022624Y-90993937D01*
X81036176Y-90983848D01*
X81042058Y-90979469D01*
X81074230Y-90941128D01*
X81081656Y-90933025D01*
X81085580Y-90929101D01*
X81105002Y-90904539D01*
X81107308Y-90901707D01*
X81124603Y-90881096D01*
X81156032Y-90843640D01*
X81159327Y-90837078D01*
X81161173Y-90834272D01*
X81161430Y-90833916D01*
X81161641Y-90833538D01*
X81163413Y-90830666D01*
X81167967Y-90824906D01*
X81171326Y-90817703D01*
X81200006Y-90756199D01*
X81201603Y-90752901D01*
X81222218Y-90711852D01*
X81235609Y-90685188D01*
X81237302Y-90678045D01*
X81238453Y-90674882D01*
X81238621Y-90674476D01*
X81238741Y-90674054D01*
X81239800Y-90670860D01*
X81242902Y-90664207D01*
X81258229Y-90589980D01*
X81259022Y-90586403D01*
X81274808Y-90519794D01*
X81276500Y-90512656D01*
X81276500Y-90505320D01*
X81276891Y-90501975D01*
X81276960Y-90501546D01*
X81276979Y-90501114D01*
X81277273Y-90497747D01*
X81278758Y-90490558D01*
X81276553Y-90414776D01*
X81276500Y-90411112D01*
X81276500Y-90170000D01*
X85700496Y-90170000D01*
X85701186Y-90176565D01*
X85713015Y-90289108D01*
X85720458Y-90359928D01*
X85779473Y-90541556D01*
X85782776Y-90547278D01*
X85782777Y-90547279D01*
X85797518Y-90572811D01*
X85874960Y-90706944D01*
X85879378Y-90711851D01*
X85879379Y-90711852D01*
X85998041Y-90843640D01*
X86002747Y-90848866D01*
X86082435Y-90906763D01*
X86129736Y-90941129D01*
X86157248Y-90961118D01*
X86163276Y-90963802D01*
X86163278Y-90963803D01*
X86325681Y-91036109D01*
X86331712Y-91038794D01*
X86425113Y-91058647D01*
X86512056Y-91077128D01*
X86512061Y-91077128D01*
X86518513Y-91078500D01*
X86709487Y-91078500D01*
X86715939Y-91077128D01*
X86715944Y-91077128D01*
X86802887Y-91058647D01*
X86896288Y-91038794D01*
X86902319Y-91036109D01*
X87064722Y-90963803D01*
X87064724Y-90963802D01*
X87070752Y-90961118D01*
X87098265Y-90941129D01*
X87145565Y-90906763D01*
X87225253Y-90848866D01*
X87229959Y-90843640D01*
X87348621Y-90711852D01*
X87348622Y-90711851D01*
X87353040Y-90706944D01*
X87430482Y-90572811D01*
X87445223Y-90547279D01*
X87445224Y-90547278D01*
X87448527Y-90541556D01*
X87507542Y-90359928D01*
X87514986Y-90289108D01*
X87526814Y-90176565D01*
X87527504Y-90170000D01*
X87527316Y-90168214D01*
X87546816Y-90101804D01*
X87563719Y-90080830D01*
X87772234Y-89872315D01*
X87784625Y-89861448D01*
X87803437Y-89847013D01*
X87809987Y-89841987D01*
X87834474Y-89810075D01*
X87834478Y-89810071D01*
X87907524Y-89714876D01*
X87968838Y-89566851D01*
X87982324Y-89464414D01*
X87982325Y-89464410D01*
X87982324Y-89464410D01*
X87984500Y-89447885D01*
X87984500Y-89447880D01*
X87989750Y-89408000D01*
X87985578Y-89376307D01*
X87984500Y-89359862D01*
X87984500Y-87090290D01*
X88004502Y-87022169D01*
X88016864Y-87005980D01*
X88110621Y-86901852D01*
X88110622Y-86901851D01*
X88115040Y-86896944D01*
X88210527Y-86731556D01*
X88269542Y-86549928D01*
X88279060Y-86459375D01*
X88288814Y-86366565D01*
X88289504Y-86360000D01*
X88273507Y-86207794D01*
X88270232Y-86176635D01*
X88270232Y-86176633D01*
X88269542Y-86170072D01*
X88210527Y-85988444D01*
X88115040Y-85823056D01*
X87987253Y-85681134D01*
X87832752Y-85568882D01*
X87826724Y-85566198D01*
X87826722Y-85566197D01*
X87664319Y-85493891D01*
X87664318Y-85493891D01*
X87658288Y-85491206D01*
X87564887Y-85471353D01*
X87477944Y-85452872D01*
X87477939Y-85452872D01*
X87471487Y-85451500D01*
X87280513Y-85451500D01*
X87274061Y-85452872D01*
X87274056Y-85452872D01*
X87187113Y-85471353D01*
X87093712Y-85491206D01*
X87087682Y-85493891D01*
X87087681Y-85493891D01*
X86925278Y-85566197D01*
X86925276Y-85566198D01*
X86919248Y-85568882D01*
X86764747Y-85681134D01*
X86636960Y-85823056D01*
X86541473Y-85988444D01*
X86482458Y-86170072D01*
X86481768Y-86176633D01*
X86481768Y-86176635D01*
X86478493Y-86207794D01*
X86462496Y-86360000D01*
X86463186Y-86366565D01*
X86472941Y-86459375D01*
X86482458Y-86549928D01*
X86541473Y-86731556D01*
X86636960Y-86896944D01*
X86641378Y-86901851D01*
X86641379Y-86901852D01*
X86735136Y-87005980D01*
X86765854Y-87069987D01*
X86767500Y-87090290D01*
X86767500Y-89103761D01*
X86747498Y-89171882D01*
X86730595Y-89192856D01*
X86698856Y-89224595D01*
X86636544Y-89258621D01*
X86609761Y-89261500D01*
X86518513Y-89261500D01*
X86512061Y-89262872D01*
X86512056Y-89262872D01*
X86425113Y-89281353D01*
X86331712Y-89301206D01*
X86325682Y-89303891D01*
X86325681Y-89303891D01*
X86163278Y-89376197D01*
X86163276Y-89376198D01*
X86157248Y-89378882D01*
X86002747Y-89491134D01*
X85998326Y-89496044D01*
X85998325Y-89496045D01*
X85885461Y-89621394D01*
X85874960Y-89633056D01*
X85779473Y-89798444D01*
X85720458Y-89980072D01*
X85719768Y-89986633D01*
X85719768Y-89986635D01*
X85711718Y-90063231D01*
X85700496Y-90170000D01*
X81276500Y-90170000D01*
X81276500Y-87440442D01*
X81277830Y-87422180D01*
X81279952Y-87407692D01*
X81281341Y-87398211D01*
X81276979Y-87348354D01*
X81276500Y-87337372D01*
X81276500Y-87331820D01*
X81276075Y-87328180D01*
X81276074Y-87328170D01*
X81272865Y-87300713D01*
X81272493Y-87297071D01*
X81266527Y-87228889D01*
X81265887Y-87221574D01*
X81263578Y-87214605D01*
X81262895Y-87211299D01*
X81262826Y-87210873D01*
X81262706Y-87210449D01*
X81261931Y-87207179D01*
X81261079Y-87199887D01*
X81258571Y-87192996D01*
X81258570Y-87192992D01*
X81235146Y-87128635D01*
X81233944Y-87125175D01*
X81212422Y-87060227D01*
X81210114Y-87053262D01*
X81206261Y-87047016D01*
X81204841Y-87043970D01*
X81204670Y-87043558D01*
X81204469Y-87043197D01*
X81202943Y-87040158D01*
X81200435Y-87033268D01*
X81196406Y-87027143D01*
X81196402Y-87027134D01*
X81158772Y-86969921D01*
X81156802Y-86966829D01*
X81120886Y-86908599D01*
X81120882Y-86908593D01*
X81117030Y-86902349D01*
X81111837Y-86897156D01*
X81109758Y-86894527D01*
X81109496Y-86894164D01*
X81109210Y-86893852D01*
X81107036Y-86891261D01*
X81103001Y-86885126D01*
X81047825Y-86833070D01*
X81045198Y-86830517D01*
X79067910Y-84853229D01*
X79055937Y-84839376D01*
X79045848Y-84825824D01*
X79041469Y-84819942D01*
X79003128Y-84787770D01*
X78995025Y-84780344D01*
X78991101Y-84776420D01*
X78966539Y-84756998D01*
X78963707Y-84754692D01*
X78905640Y-84705968D01*
X78899078Y-84702673D01*
X78896272Y-84700827D01*
X78895916Y-84700570D01*
X78895538Y-84700359D01*
X78892666Y-84698588D01*
X78886906Y-84694033D01*
X78880252Y-84690930D01*
X78880250Y-84690929D01*
X78818207Y-84661998D01*
X78814907Y-84660401D01*
X78747188Y-84626391D01*
X78740048Y-84624699D01*
X78736879Y-84623545D01*
X78736474Y-84623377D01*
X78736078Y-84623265D01*
X78732854Y-84622197D01*
X78726206Y-84619097D01*
X78651921Y-84603758D01*
X78648403Y-84602978D01*
X78601804Y-84591934D01*
X78581792Y-84587191D01*
X78581790Y-84587191D01*
X78574656Y-84585500D01*
X78567321Y-84585500D01*
X78563983Y-84585110D01*
X78563537Y-84585038D01*
X78563124Y-84585020D01*
X78559739Y-84584724D01*
X78552558Y-84583241D01*
X78545231Y-84583454D01*
X78545229Y-84583454D01*
X78476742Y-84585447D01*
X78473077Y-84585500D01*
X57694469Y-84585500D01*
X57620409Y-84561437D01*
X57607093Y-84551762D01*
X57607090Y-84551760D01*
X57601752Y-84547882D01*
X57595724Y-84545198D01*
X57595722Y-84545197D01*
X57433319Y-84472891D01*
X57433318Y-84472891D01*
X57427288Y-84470206D01*
X57333888Y-84450353D01*
X57246944Y-84431872D01*
X57246939Y-84431872D01*
X57240487Y-84430500D01*
X57049513Y-84430500D01*
X57043061Y-84431872D01*
X57043056Y-84431872D01*
X56956112Y-84450353D01*
X56862712Y-84470206D01*
X56856682Y-84472891D01*
X56856681Y-84472891D01*
X56694278Y-84545197D01*
X56694276Y-84545198D01*
X56688248Y-84547882D01*
X56533747Y-84660134D01*
X56529326Y-84665044D01*
X56529325Y-84665045D01*
X56422002Y-84784240D01*
X56405960Y-84802056D01*
X56310473Y-84967444D01*
X56251458Y-85149072D01*
X56250768Y-85155633D01*
X56250768Y-85155635D01*
X56238912Y-85268437D01*
X56231496Y-85339000D01*
X52570500Y-85339000D01*
X52570500Y-82724910D01*
X52590502Y-82656789D01*
X52644158Y-82610296D01*
X52714432Y-82600192D01*
X52772010Y-82624042D01*
X52848828Y-82681548D01*
X52864480Y-82690095D01*
X52985522Y-82735241D01*
X53000743Y-82738838D01*
X53050062Y-82744140D01*
X53056777Y-82744500D01*
X53829885Y-82744500D01*
X53845124Y-82740025D01*
X53846329Y-82738635D01*
X53848000Y-82730952D01*
X53848000Y-82726385D01*
X54356000Y-82726385D01*
X54360475Y-82741624D01*
X54361865Y-82742829D01*
X54369548Y-82744500D01*
X55147223Y-82744500D01*
X55153938Y-82744140D01*
X55203257Y-82738838D01*
X55218478Y-82735241D01*
X55339520Y-82690095D01*
X55355176Y-82681546D01*
X55457693Y-82604802D01*
X55470302Y-82592193D01*
X55547046Y-82489676D01*
X55555595Y-82474020D01*
X55600741Y-82352978D01*
X55604338Y-82337757D01*
X55609526Y-82289500D01*
X73134069Y-82289500D01*
X73134421Y-82294197D01*
X73148975Y-82488405D01*
X73153765Y-82552326D01*
X73154815Y-82556925D01*
X73154815Y-82556927D01*
X73183259Y-82681548D01*
X73212413Y-82809280D01*
X73308704Y-83054624D01*
X73440485Y-83282876D01*
X73443417Y-83286553D01*
X73443420Y-83286557D01*
X73488000Y-83342458D01*
X73604814Y-83488938D01*
X73798019Y-83668206D01*
X73801918Y-83670864D01*
X73957977Y-83777263D01*
X74015785Y-83816676D01*
X74020034Y-83818722D01*
X74020037Y-83818724D01*
X74148894Y-83880779D01*
X74253246Y-83931032D01*
X74257748Y-83932421D01*
X74257754Y-83932423D01*
X74366072Y-83965834D01*
X74505100Y-84008718D01*
X74509750Y-84009419D01*
X74509755Y-84009420D01*
X74621077Y-84026199D01*
X74765719Y-84048000D01*
X75029281Y-84048000D01*
X75173923Y-84026199D01*
X75285245Y-84009420D01*
X75285250Y-84009419D01*
X75289900Y-84008718D01*
X75541754Y-83931032D01*
X75546240Y-83928872D01*
X75774967Y-83818722D01*
X75779216Y-83816676D01*
X75783118Y-83814016D01*
X75993082Y-83670864D01*
X75996981Y-83668206D01*
X76083274Y-83588138D01*
X80639000Y-83588138D01*
X80645511Y-83648701D01*
X80696611Y-83785704D01*
X80702010Y-83792916D01*
X80702011Y-83792918D01*
X80761512Y-83872401D01*
X80784239Y-83902761D01*
X80813880Y-83924950D01*
X80857235Y-83957405D01*
X80901296Y-83990389D01*
X81038299Y-84041489D01*
X81075205Y-84045457D01*
X81095512Y-84047640D01*
X81095515Y-84047640D01*
X81098862Y-84048000D01*
X83696138Y-84048000D01*
X83699485Y-84047640D01*
X83699488Y-84047640D01*
X83719795Y-84045457D01*
X83756701Y-84041489D01*
X83893704Y-83990389D01*
X83937766Y-83957405D01*
X83981120Y-83924950D01*
X84010761Y-83902761D01*
X84033488Y-83872401D01*
X84092989Y-83792918D01*
X84092990Y-83792916D01*
X84098389Y-83785704D01*
X84149489Y-83648701D01*
X84150331Y-83640867D01*
X84152054Y-83633576D01*
X84187185Y-83571881D01*
X84250094Y-83538972D01*
X84320808Y-83545299D01*
X84360379Y-83570187D01*
X84462556Y-83664994D01*
X84462564Y-83665000D01*
X84466019Y-83668206D01*
X84469918Y-83670864D01*
X84625977Y-83777263D01*
X84683785Y-83816676D01*
X84688034Y-83818722D01*
X84688037Y-83818724D01*
X84816894Y-83880779D01*
X84921246Y-83931032D01*
X84925748Y-83932421D01*
X84925754Y-83932423D01*
X85034072Y-83965834D01*
X85173100Y-84008718D01*
X85177750Y-84009419D01*
X85177755Y-84009420D01*
X85289077Y-84026199D01*
X85433719Y-84048000D01*
X85697281Y-84048000D01*
X85841923Y-84026199D01*
X85953245Y-84009420D01*
X85953250Y-84009419D01*
X85957900Y-84008718D01*
X86209754Y-83931032D01*
X86214240Y-83928872D01*
X86442967Y-83818722D01*
X86447216Y-83816676D01*
X86451118Y-83814016D01*
X86661082Y-83670864D01*
X86664981Y-83668206D01*
X86858186Y-83488938D01*
X86975000Y-83342458D01*
X87019580Y-83286557D01*
X87019583Y-83286553D01*
X87022515Y-83282876D01*
X87154296Y-83054624D01*
X87250587Y-82809280D01*
X87279741Y-82681548D01*
X87308185Y-82556927D01*
X87308185Y-82556925D01*
X87309235Y-82552326D01*
X87314026Y-82488405D01*
X87328579Y-82294197D01*
X87328931Y-82289500D01*
X87309235Y-82026674D01*
X87250587Y-81769720D01*
X87154296Y-81524376D01*
X87091724Y-81415997D01*
X87024871Y-81300204D01*
X87024868Y-81300200D01*
X87022515Y-81296124D01*
X87019583Y-81292447D01*
X87019580Y-81292443D01*
X86861121Y-81093742D01*
X86861119Y-81093740D01*
X86858186Y-81090062D01*
X86664981Y-80910794D01*
X86505024Y-80801737D01*
X86451112Y-80764980D01*
X86451110Y-80764979D01*
X86447216Y-80762324D01*
X86268459Y-80676239D01*
X86214003Y-80650014D01*
X86214001Y-80650013D01*
X86209754Y-80647968D01*
X85957900Y-80570282D01*
X85953250Y-80569581D01*
X85953245Y-80569580D01*
X85841923Y-80552801D01*
X85697281Y-80531000D01*
X85433719Y-80531000D01*
X85289077Y-80552801D01*
X85177755Y-80569580D01*
X85177750Y-80569581D01*
X85173100Y-80570282D01*
X85096172Y-80594011D01*
X84925754Y-80646577D01*
X84925748Y-80646579D01*
X84921246Y-80647968D01*
X84845258Y-80684562D01*
X84688037Y-80760276D01*
X84688034Y-80760278D01*
X84683785Y-80762324D01*
X84679886Y-80764982D01*
X84679883Y-80764984D01*
X84612227Y-80811111D01*
X84466019Y-80910794D01*
X84462565Y-80913999D01*
X84462556Y-80914006D01*
X84360379Y-81008813D01*
X84296838Y-81040485D01*
X84226261Y-81032776D01*
X84171056Y-80988134D01*
X84152054Y-80945424D01*
X84150331Y-80938133D01*
X84149489Y-80930299D01*
X84098389Y-80793296D01*
X84073671Y-80760276D01*
X84017292Y-80684964D01*
X84010761Y-80676239D01*
X83974506Y-80649099D01*
X83900918Y-80594011D01*
X83900916Y-80594010D01*
X83893704Y-80588611D01*
X83756701Y-80537511D01*
X83719795Y-80533543D01*
X83699488Y-80531360D01*
X83699485Y-80531360D01*
X83696138Y-80531000D01*
X81098862Y-80531000D01*
X81095515Y-80531360D01*
X81095512Y-80531360D01*
X81075205Y-80533543D01*
X81038299Y-80537511D01*
X80901296Y-80588611D01*
X80894084Y-80594010D01*
X80894082Y-80594011D01*
X80820494Y-80649099D01*
X80784239Y-80676239D01*
X80777708Y-80684964D01*
X80721330Y-80760276D01*
X80696611Y-80793296D01*
X80645511Y-80930299D01*
X80639000Y-80990862D01*
X80639000Y-83588138D01*
X76083274Y-83588138D01*
X76190186Y-83488938D01*
X76307000Y-83342458D01*
X76351580Y-83286557D01*
X76351583Y-83286553D01*
X76354515Y-83282876D01*
X76486296Y-83054624D01*
X76582587Y-82809280D01*
X76611741Y-82681548D01*
X76640185Y-82556927D01*
X76640185Y-82556925D01*
X76641235Y-82552326D01*
X76646026Y-82488405D01*
X76660579Y-82294197D01*
X76660931Y-82289500D01*
X76641235Y-82026674D01*
X76582587Y-81769720D01*
X76486296Y-81524376D01*
X76423724Y-81415997D01*
X76356871Y-81300204D01*
X76356868Y-81300200D01*
X76354515Y-81296124D01*
X76351583Y-81292447D01*
X76351580Y-81292443D01*
X76193121Y-81093742D01*
X76193119Y-81093740D01*
X76190186Y-81090062D01*
X75996981Y-80910794D01*
X75837024Y-80801737D01*
X75783112Y-80764980D01*
X75783110Y-80764979D01*
X75779216Y-80762324D01*
X75600459Y-80676239D01*
X75546003Y-80650014D01*
X75546001Y-80650013D01*
X75541754Y-80647968D01*
X75289900Y-80570282D01*
X75285250Y-80569581D01*
X75285245Y-80569580D01*
X75173923Y-80552801D01*
X75029281Y-80531000D01*
X74765719Y-80531000D01*
X74621077Y-80552801D01*
X74509755Y-80569580D01*
X74509750Y-80569581D01*
X74505100Y-80570282D01*
X74428172Y-80594011D01*
X74257754Y-80646577D01*
X74257748Y-80646579D01*
X74253246Y-80647968D01*
X74177258Y-80684562D01*
X74020037Y-80760276D01*
X74020034Y-80760278D01*
X74015785Y-80762324D01*
X74011886Y-80764982D01*
X74011883Y-80764984D01*
X73944227Y-80811111D01*
X73798019Y-80910794D01*
X73604814Y-81090062D01*
X73601881Y-81093740D01*
X73601879Y-81093742D01*
X73443420Y-81292443D01*
X73443417Y-81292447D01*
X73440485Y-81296124D01*
X73438132Y-81300200D01*
X73438129Y-81300204D01*
X73371276Y-81415997D01*
X73308704Y-81524376D01*
X73212413Y-81769720D01*
X73153765Y-82026674D01*
X73134069Y-82289500D01*
X55609526Y-82289500D01*
X55609640Y-82288438D01*
X55610000Y-82281723D01*
X55610000Y-81758615D01*
X55605525Y-81743376D01*
X55604135Y-81742171D01*
X55596452Y-81740500D01*
X54374115Y-81740500D01*
X54358876Y-81744975D01*
X54357671Y-81746365D01*
X54356000Y-81754048D01*
X54356000Y-82726385D01*
X53848000Y-82726385D01*
X53848000Y-81358500D01*
X53868002Y-81290379D01*
X53921658Y-81243886D01*
X53974000Y-81232500D01*
X55591885Y-81232500D01*
X55607124Y-81228025D01*
X55608329Y-81226635D01*
X55610000Y-81218952D01*
X55610000Y-80691277D01*
X55609640Y-80684562D01*
X55604338Y-80635243D01*
X55600741Y-80620022D01*
X55555595Y-80498980D01*
X55547046Y-80483324D01*
X55470302Y-80380807D01*
X55457693Y-80368198D01*
X55355176Y-80291454D01*
X55339520Y-80282905D01*
X55218478Y-80237759D01*
X55203257Y-80234162D01*
X55153938Y-80228860D01*
X55147223Y-80228500D01*
X55116355Y-80228500D01*
X55048234Y-80208498D01*
X55001741Y-80154842D01*
X54991637Y-80084568D01*
X55021131Y-80019988D01*
X55042294Y-80000564D01*
X55071886Y-79979064D01*
X55138753Y-79955206D01*
X55145947Y-79955000D01*
X88383763Y-79955000D01*
X88396112Y-79955607D01*
X88433336Y-79959273D01*
X88433337Y-79959273D01*
X88439500Y-79959880D01*
X88637201Y-79940409D01*
X88827304Y-79882741D01*
X88832759Y-79879825D01*
X88832762Y-79879824D01*
X88864012Y-79863120D01*
X88997045Y-79792013D01*
X88997046Y-79792012D01*
X89002504Y-79789095D01*
X89156068Y-79663068D01*
X89183734Y-79629357D01*
X89192038Y-79620196D01*
X90466405Y-78345829D01*
X90528717Y-78311803D01*
X90599532Y-78316868D01*
X90656368Y-78359415D01*
X90681179Y-78425935D01*
X90681500Y-78434924D01*
X90681500Y-80599558D01*
X90680170Y-80617820D01*
X90676659Y-80641789D01*
X90677299Y-80649099D01*
X90681021Y-80691646D01*
X90681500Y-80702628D01*
X90681500Y-80708180D01*
X90681925Y-80711820D01*
X90681926Y-80711830D01*
X90685135Y-80739287D01*
X90685507Y-80742929D01*
X90687437Y-80764984D01*
X90692113Y-80818426D01*
X90694422Y-80825395D01*
X90695105Y-80828701D01*
X90695174Y-80829127D01*
X90695294Y-80829551D01*
X90696069Y-80832821D01*
X90696921Y-80840113D01*
X90699429Y-80847004D01*
X90699430Y-80847008D01*
X90722854Y-80911365D01*
X90724054Y-80914818D01*
X90747886Y-80986738D01*
X90751739Y-80992984D01*
X90753159Y-80996030D01*
X90753330Y-80996442D01*
X90753531Y-80996803D01*
X90755057Y-80999842D01*
X90757565Y-81006732D01*
X90761594Y-81012857D01*
X90761598Y-81012866D01*
X90799228Y-81070079D01*
X90801198Y-81073171D01*
X90837114Y-81131401D01*
X90837118Y-81131407D01*
X90840970Y-81137651D01*
X90846163Y-81142844D01*
X90848242Y-81145473D01*
X90848504Y-81145836D01*
X90848790Y-81146148D01*
X90850964Y-81148739D01*
X90854999Y-81154874D01*
X90860338Y-81159911D01*
X90910174Y-81206929D01*
X90912802Y-81209483D01*
X91270095Y-81566776D01*
X91304121Y-81629088D01*
X91307000Y-81655871D01*
X91307000Y-83588138D01*
X91313511Y-83648701D01*
X91364611Y-83785704D01*
X91370010Y-83792916D01*
X91370011Y-83792918D01*
X91429512Y-83872401D01*
X91452239Y-83902761D01*
X91481880Y-83924950D01*
X91525235Y-83957405D01*
X91569296Y-83990389D01*
X91706299Y-84041489D01*
X91743205Y-84045457D01*
X91763512Y-84047640D01*
X91763515Y-84047640D01*
X91766862Y-84048000D01*
X94364138Y-84048000D01*
X94367485Y-84047640D01*
X94367488Y-84047640D01*
X94387795Y-84045457D01*
X94424701Y-84041489D01*
X94561704Y-83990389D01*
X94605766Y-83957405D01*
X94649120Y-83924950D01*
X94678761Y-83902761D01*
X94701488Y-83872401D01*
X94760989Y-83792918D01*
X94760990Y-83792916D01*
X94766389Y-83785704D01*
X94817489Y-83648701D01*
X94824000Y-83588138D01*
X94824000Y-80990862D01*
X94817489Y-80930299D01*
X94766389Y-80793296D01*
X94741671Y-80760276D01*
X94685292Y-80684964D01*
X94678761Y-80676239D01*
X94642506Y-80649099D01*
X94568918Y-80594011D01*
X94568916Y-80594010D01*
X94561704Y-80588611D01*
X94424701Y-80537511D01*
X94387795Y-80533543D01*
X94367488Y-80531360D01*
X94367485Y-80531360D01*
X94364138Y-80531000D01*
X92431871Y-80531000D01*
X92363750Y-80510998D01*
X92342776Y-80494095D01*
X92235405Y-80386724D01*
X92201379Y-80324412D01*
X92198500Y-80297629D01*
X92198500Y-76665924D01*
X92218502Y-76597803D01*
X92235405Y-76576829D01*
X102138829Y-66673405D01*
X102201141Y-66639379D01*
X102227924Y-66636500D01*
X102378076Y-66636500D01*
X102446197Y-66656502D01*
X102492690Y-66710158D01*
X102502794Y-66780432D01*
X102473300Y-66845012D01*
X102467171Y-66851595D01*
X102112304Y-67206462D01*
X102103143Y-67214766D01*
X102069432Y-67242432D01*
X101943405Y-67395996D01*
X101870357Y-67532659D01*
X101849759Y-67571196D01*
X101792091Y-67761299D01*
X101772620Y-67959000D01*
X101773227Y-67965163D01*
X101773227Y-67965164D01*
X101776893Y-68002388D01*
X101777500Y-68014737D01*
X101777500Y-70757898D01*
X101776893Y-70770247D01*
X101774118Y-70798422D01*
X101772620Y-70813635D01*
X101792091Y-71011336D01*
X101841380Y-71173816D01*
X101849759Y-71201439D01*
X101852675Y-71206894D01*
X101852676Y-71206897D01*
X101909257Y-71312753D01*
X101943405Y-71376639D01*
X102069432Y-71530203D01*
X102074211Y-71534125D01*
X102103143Y-71557869D01*
X102112304Y-71566173D01*
X104117827Y-73571696D01*
X104126131Y-73580857D01*
X104153797Y-73614568D01*
X104269000Y-73709113D01*
X104307361Y-73740595D01*
X104312819Y-73743512D01*
X104312820Y-73743513D01*
X104477099Y-73831322D01*
X104477103Y-73831324D01*
X104482561Y-73834241D01*
X104488481Y-73836037D01*
X104488484Y-73836038D01*
X104666742Y-73890112D01*
X104666746Y-73890113D01*
X104672664Y-73891908D01*
X104678827Y-73892515D01*
X104817742Y-73906197D01*
X104870365Y-73911380D01*
X104913749Y-73907107D01*
X104926099Y-73906500D01*
X107491547Y-73906500D01*
X107494620Y-73906197D01*
X107494627Y-73906197D01*
X107633538Y-73892515D01*
X107639701Y-73891908D01*
X107645619Y-73890113D01*
X107645623Y-73890112D01*
X107823881Y-73836038D01*
X107823884Y-73836037D01*
X107829804Y-73834241D01*
X107835262Y-73831324D01*
X107835266Y-73831322D01*
X107999545Y-73743513D01*
X107999546Y-73743512D01*
X108005004Y-73740595D01*
X108158568Y-73614568D01*
X108284595Y-73461004D01*
X108378241Y-73285804D01*
X108383725Y-73267726D01*
X108434112Y-73101623D01*
X108434113Y-73101619D01*
X108435908Y-73095701D01*
X108455380Y-72898000D01*
X108435908Y-72700299D01*
X108407910Y-72608000D01*
X108380038Y-72516119D01*
X108380037Y-72516116D01*
X108378241Y-72510196D01*
X108284595Y-72334996D01*
X108158568Y-72181432D01*
X108005004Y-72055405D01*
X107999545Y-72052487D01*
X107835266Y-71964678D01*
X107835262Y-71964676D01*
X107829804Y-71961759D01*
X107823884Y-71959963D01*
X107823881Y-71959962D01*
X107645623Y-71905888D01*
X107645619Y-71905887D01*
X107639701Y-71904092D01*
X107630905Y-71903226D01*
X107494627Y-71889803D01*
X107494620Y-71889803D01*
X107491547Y-71889500D01*
X105340289Y-71889500D01*
X105272168Y-71869498D01*
X105251194Y-71852595D01*
X104552526Y-71153927D01*
X104518500Y-71091615D01*
X104523565Y-71020800D01*
X104547983Y-70980525D01*
X104616717Y-70904188D01*
X104677161Y-70866950D01*
X104710351Y-70862500D01*
X108139558Y-70862500D01*
X108157821Y-70863830D01*
X108181789Y-70867341D01*
X108231646Y-70862979D01*
X108242628Y-70862500D01*
X108248180Y-70862500D01*
X108251820Y-70862075D01*
X108251830Y-70862074D01*
X108279287Y-70858865D01*
X108282929Y-70858493D01*
X108351111Y-70852527D01*
X108358426Y-70851887D01*
X108365395Y-70849578D01*
X108368701Y-70848895D01*
X108369127Y-70848826D01*
X108369551Y-70848706D01*
X108372821Y-70847931D01*
X108380113Y-70847079D01*
X108387004Y-70844571D01*
X108387008Y-70844570D01*
X108451365Y-70821146D01*
X108454825Y-70819944D01*
X108492466Y-70807471D01*
X108526738Y-70796114D01*
X108532984Y-70792261D01*
X108536030Y-70790841D01*
X108536442Y-70790670D01*
X108536803Y-70790469D01*
X108539842Y-70788943D01*
X108546732Y-70786435D01*
X108552857Y-70782406D01*
X108552866Y-70782402D01*
X108610079Y-70744772D01*
X108613171Y-70742802D01*
X108671401Y-70706886D01*
X108671407Y-70706882D01*
X108677651Y-70703030D01*
X108682844Y-70697837D01*
X108685473Y-70695758D01*
X108685836Y-70695496D01*
X108686148Y-70695210D01*
X108688739Y-70693036D01*
X108694874Y-70689001D01*
X108746930Y-70633825D01*
X108749483Y-70631198D01*
X110502771Y-68877910D01*
X110516624Y-68865937D01*
X110530176Y-68855848D01*
X110536058Y-68851469D01*
X110568230Y-68813128D01*
X110575656Y-68805025D01*
X110579580Y-68801101D01*
X110599002Y-68776539D01*
X110601308Y-68773707D01*
X110601371Y-68773632D01*
X110650032Y-68715640D01*
X110653327Y-68709078D01*
X110655173Y-68706272D01*
X110655432Y-68705913D01*
X110655640Y-68705541D01*
X110657416Y-68702662D01*
X110661967Y-68696906D01*
X110668284Y-68683360D01*
X110693990Y-68628231D01*
X110695587Y-68624931D01*
X110726316Y-68563745D01*
X110729609Y-68557188D01*
X110731302Y-68550046D01*
X110732457Y-68546872D01*
X110732620Y-68546478D01*
X110732739Y-68546059D01*
X110733799Y-68542861D01*
X110736902Y-68536206D01*
X110752228Y-68461984D01*
X110753021Y-68458407D01*
X110768808Y-68391794D01*
X110770500Y-68384656D01*
X110770500Y-68377320D01*
X110770891Y-68373975D01*
X110770960Y-68373546D01*
X110770979Y-68373114D01*
X110771273Y-68369747D01*
X110772758Y-68362558D01*
X110770553Y-68286776D01*
X110770500Y-68283112D01*
X110770500Y-66447377D01*
X110790502Y-66379256D01*
X110819109Y-66347946D01*
X110901123Y-66284112D01*
X110901134Y-66284102D01*
X110905240Y-66280906D01*
X111032211Y-66142980D01*
X111054194Y-66119101D01*
X111054197Y-66119097D01*
X111057722Y-66115268D01*
X111146816Y-65978899D01*
X111200820Y-65932811D01*
X111271168Y-65923236D01*
X111335525Y-65953214D01*
X111357782Y-65978899D01*
X111443823Y-66110593D01*
X111450210Y-66118799D01*
X111595568Y-66276700D01*
X111603211Y-66283737D01*
X111772589Y-66415569D01*
X111781282Y-66421248D01*
X111970043Y-66523401D01*
X111979560Y-66527575D01*
X112182557Y-66597264D01*
X112192627Y-66599815D01*
X112250133Y-66609411D01*
X112263648Y-66607777D01*
X112268000Y-66593551D01*
X112268000Y-65150000D01*
X112288002Y-65081879D01*
X112341658Y-65035386D01*
X112394000Y-65024000D01*
X112650000Y-65024000D01*
X112718121Y-65044002D01*
X112764614Y-65097658D01*
X112776000Y-65150000D01*
X112776000Y-66594277D01*
X112779836Y-66607340D01*
X112794584Y-66609291D01*
X112851373Y-66599815D01*
X112861443Y-66597264D01*
X113064440Y-66527575D01*
X113073957Y-66523401D01*
X113262718Y-66421248D01*
X113271411Y-66415569D01*
X113440789Y-66283737D01*
X113448432Y-66276700D01*
X113576799Y-66137256D01*
X113637651Y-66100685D01*
X113708616Y-66102818D01*
X113767161Y-66142980D01*
X113794700Y-66208418D01*
X113795500Y-66222593D01*
X113795500Y-75663001D01*
X113778619Y-75726001D01*
X113725434Y-75818120D01*
X113719473Y-75828444D01*
X113660458Y-76010072D01*
X113659768Y-76016633D01*
X113659768Y-76016635D01*
X113641186Y-76193435D01*
X113640496Y-76200000D01*
X113660458Y-76389928D01*
X113719473Y-76571556D01*
X113722776Y-76577278D01*
X113722777Y-76577279D01*
X113756686Y-76636010D01*
X113814960Y-76736944D01*
X113819378Y-76741851D01*
X113819379Y-76741852D01*
X113938325Y-76873955D01*
X113942747Y-76878866D01*
X114097248Y-76991118D01*
X114103276Y-76993802D01*
X114103278Y-76993803D01*
X114265681Y-77066109D01*
X114271712Y-77068794D01*
X114365113Y-77088647D01*
X114452056Y-77107128D01*
X114452061Y-77107128D01*
X114458513Y-77108500D01*
X114649487Y-77108500D01*
X114655939Y-77107128D01*
X114655944Y-77107128D01*
X114742887Y-77088647D01*
X114836288Y-77068794D01*
X114842319Y-77066109D01*
X115004722Y-76993803D01*
X115004724Y-76993802D01*
X115010752Y-76991118D01*
X115165253Y-76878866D01*
X115169675Y-76873955D01*
X115288621Y-76741852D01*
X115288622Y-76741851D01*
X115293040Y-76736944D01*
X115351314Y-76636010D01*
X115385223Y-76577279D01*
X115385224Y-76577278D01*
X115388527Y-76571556D01*
X115447542Y-76389928D01*
X115467504Y-76200000D01*
X115466814Y-76193435D01*
X115448232Y-76016635D01*
X115448232Y-76016633D01*
X115447542Y-76010072D01*
X115388527Y-75828444D01*
X115382567Y-75818120D01*
X115329381Y-75726001D01*
X115312500Y-75663001D01*
X115312500Y-64834442D01*
X115313830Y-64816180D01*
X115314127Y-64814155D01*
X115317341Y-64792211D01*
X115312979Y-64742354D01*
X115312500Y-64731372D01*
X115312500Y-64725820D01*
X115308862Y-64694692D01*
X115308499Y-64691148D01*
X115301887Y-64615573D01*
X115299578Y-64608605D01*
X115298895Y-64605296D01*
X115298826Y-64604871D01*
X115298710Y-64604461D01*
X115297931Y-64601173D01*
X115297079Y-64593887D01*
X115292956Y-64582559D01*
X115271161Y-64522676D01*
X115269958Y-64519215D01*
X115248425Y-64454233D01*
X115248422Y-64454227D01*
X115246114Y-64447261D01*
X115242262Y-64441016D01*
X115240833Y-64437951D01*
X115240669Y-64437556D01*
X115240461Y-64437183D01*
X115238946Y-64434167D01*
X115236435Y-64427268D01*
X115194753Y-64363894D01*
X115192811Y-64360845D01*
X115156884Y-64302597D01*
X115156883Y-64302596D01*
X115153030Y-64296349D01*
X115147838Y-64291157D01*
X115145756Y-64288524D01*
X115145496Y-64288165D01*
X115145210Y-64287852D01*
X115143036Y-64285261D01*
X115139001Y-64279126D01*
X115083825Y-64227070D01*
X115081198Y-64224517D01*
X113865910Y-63009229D01*
X113853937Y-62995376D01*
X113843848Y-62981824D01*
X113839469Y-62975942D01*
X113801128Y-62943770D01*
X113793025Y-62936344D01*
X113789101Y-62932420D01*
X113764539Y-62912998D01*
X113761707Y-62910692D01*
X113759526Y-62908862D01*
X113703640Y-62861968D01*
X113697078Y-62858673D01*
X113694272Y-62856827D01*
X113693916Y-62856570D01*
X113693538Y-62856359D01*
X113690666Y-62854588D01*
X113684906Y-62850033D01*
X113678252Y-62846930D01*
X113678250Y-62846929D01*
X113616207Y-62817998D01*
X113612907Y-62816401D01*
X113545188Y-62782391D01*
X113538048Y-62780699D01*
X113534879Y-62779545D01*
X113534474Y-62779377D01*
X113534078Y-62779265D01*
X113530854Y-62778197D01*
X113524206Y-62775097D01*
X113449921Y-62759758D01*
X113446403Y-62758978D01*
X113399804Y-62747934D01*
X113379792Y-62743191D01*
X113379790Y-62743191D01*
X113372656Y-62741500D01*
X113365321Y-62741500D01*
X113361983Y-62741110D01*
X113361537Y-62741038D01*
X113361124Y-62741020D01*
X113357739Y-62740724D01*
X113350558Y-62739241D01*
X113343231Y-62739454D01*
X113343229Y-62739454D01*
X113274742Y-62741447D01*
X113271077Y-62741500D01*
X110896500Y-62741500D01*
X110828379Y-62721498D01*
X110781886Y-62667842D01*
X110770500Y-62615500D01*
X110770500Y-56285727D01*
X110790502Y-56217606D01*
X110819108Y-56186296D01*
X110826220Y-56180761D01*
X110935240Y-56095906D01*
X111019489Y-56004388D01*
X111084194Y-55934101D01*
X111084197Y-55934097D01*
X111087722Y-55930268D01*
X111176816Y-55793899D01*
X111230820Y-55747811D01*
X111301168Y-55738236D01*
X111365525Y-55768214D01*
X111387782Y-55793899D01*
X111473823Y-55925593D01*
X111480210Y-55933799D01*
X111625568Y-56091700D01*
X111633211Y-56098737D01*
X111802589Y-56230569D01*
X111811282Y-56236248D01*
X112000043Y-56338401D01*
X112009560Y-56342575D01*
X112212557Y-56412264D01*
X112222627Y-56414815D01*
X112280133Y-56424411D01*
X112293648Y-56422777D01*
X112297778Y-56409277D01*
X112806000Y-56409277D01*
X112809836Y-56422340D01*
X112824584Y-56424291D01*
X112881373Y-56414815D01*
X112891443Y-56412264D01*
X113094440Y-56342575D01*
X113103957Y-56338401D01*
X113292718Y-56236248D01*
X113301411Y-56230569D01*
X113470789Y-56098737D01*
X113478432Y-56091700D01*
X113623790Y-55933799D01*
X113630177Y-55925593D01*
X113747569Y-55745913D01*
X113752512Y-55736778D01*
X113838730Y-55540223D01*
X113842100Y-55530408D01*
X113884097Y-55364561D01*
X113883567Y-55350470D01*
X113875145Y-55347000D01*
X112824115Y-55347000D01*
X112808876Y-55351475D01*
X112807671Y-55352865D01*
X112806000Y-55360548D01*
X112806000Y-56409277D01*
X112297778Y-56409277D01*
X112298000Y-56408551D01*
X112298000Y-54820885D01*
X112806000Y-54820885D01*
X112810475Y-54836124D01*
X112811865Y-54837329D01*
X112819548Y-54839000D01*
X113870429Y-54839000D01*
X113883960Y-54835027D01*
X113885256Y-54826014D01*
X113842100Y-54655592D01*
X113838730Y-54645777D01*
X113752512Y-54449222D01*
X113747569Y-54440087D01*
X113630177Y-54260407D01*
X113623790Y-54252201D01*
X113478432Y-54094300D01*
X113470789Y-54087263D01*
X113301411Y-53955431D01*
X113292718Y-53949752D01*
X113103957Y-53847599D01*
X113094440Y-53843425D01*
X112891443Y-53773736D01*
X112881373Y-53771185D01*
X112823867Y-53761589D01*
X112810352Y-53763223D01*
X112806000Y-53777449D01*
X112806000Y-54820885D01*
X112298000Y-54820885D01*
X112298000Y-53776723D01*
X112294164Y-53763660D01*
X112279416Y-53761709D01*
X112222627Y-53771185D01*
X112212557Y-53773736D01*
X112009560Y-53843425D01*
X112000043Y-53847599D01*
X111811282Y-53949752D01*
X111802589Y-53955431D01*
X111633211Y-54087263D01*
X111625568Y-54094300D01*
X111480210Y-54252201D01*
X111473823Y-54260407D01*
X111387782Y-54392101D01*
X111333778Y-54438189D01*
X111263430Y-54447764D01*
X111199073Y-54417786D01*
X111176816Y-54392101D01*
X111090569Y-54260090D01*
X111087722Y-54255732D01*
X111084197Y-54251903D01*
X111084194Y-54251899D01*
X110938772Y-54093931D01*
X110935240Y-54090094D01*
X110757576Y-53951811D01*
X110559574Y-53844658D01*
X110346635Y-53771556D01*
X110341501Y-53770699D01*
X110341496Y-53770698D01*
X110129706Y-53735357D01*
X110129704Y-53735357D01*
X110124569Y-53734500D01*
X109899431Y-53734500D01*
X109894296Y-53735357D01*
X109894294Y-53735357D01*
X109682504Y-53770698D01*
X109682499Y-53770699D01*
X109677365Y-53771556D01*
X109464426Y-53844658D01*
X109266424Y-53951811D01*
X109088760Y-54090094D01*
X109085228Y-54093931D01*
X108939806Y-54251899D01*
X108939803Y-54251903D01*
X108936278Y-54255732D01*
X108933427Y-54260096D01*
X108847483Y-54391643D01*
X108793479Y-54437732D01*
X108723132Y-54447307D01*
X108658774Y-54417330D01*
X108636517Y-54391643D01*
X108550573Y-54260096D01*
X108547722Y-54255732D01*
X108544197Y-54251903D01*
X108544194Y-54251899D01*
X108398772Y-54093931D01*
X108395240Y-54090094D01*
X108217576Y-53951811D01*
X108019574Y-53844658D01*
X107806635Y-53771556D01*
X107801501Y-53770699D01*
X107801496Y-53770698D01*
X107589706Y-53735357D01*
X107589704Y-53735357D01*
X107584569Y-53734500D01*
X107359431Y-53734500D01*
X107354296Y-53735357D01*
X107354294Y-53735357D01*
X107142504Y-53770698D01*
X107142499Y-53770699D01*
X107137365Y-53771556D01*
X106924426Y-53844658D01*
X106726424Y-53951811D01*
X106548760Y-54090094D01*
X106545228Y-54093931D01*
X106399806Y-54251899D01*
X106399803Y-54251903D01*
X106396278Y-54255732D01*
X106393427Y-54260096D01*
X106307483Y-54391643D01*
X106253479Y-54437732D01*
X106183132Y-54447307D01*
X106118774Y-54417330D01*
X106096517Y-54391643D01*
X106010573Y-54260096D01*
X106007722Y-54255732D01*
X106004197Y-54251903D01*
X106004194Y-54251899D01*
X105858772Y-54093931D01*
X105855240Y-54090094D01*
X105677576Y-53951811D01*
X105479574Y-53844658D01*
X105266635Y-53771556D01*
X105261501Y-53770699D01*
X105261496Y-53770698D01*
X105049706Y-53735357D01*
X105049704Y-53735357D01*
X105044569Y-53734500D01*
X104819431Y-53734500D01*
X104814296Y-53735357D01*
X104814294Y-53735357D01*
X104602504Y-53770698D01*
X104602499Y-53770699D01*
X104597365Y-53771556D01*
X104384426Y-53844658D01*
X104186424Y-53951811D01*
X104008760Y-54090094D01*
X104005228Y-54093931D01*
X103947755Y-54156362D01*
X103886901Y-54192933D01*
X103815937Y-54190798D01*
X103757392Y-54150636D01*
X103736998Y-54115056D01*
X103696038Y-54005239D01*
X103696037Y-54005237D01*
X103692889Y-53996796D01*
X103661924Y-53955431D01*
X103610659Y-53886950D01*
X103605261Y-53879739D01*
X103488204Y-53792111D01*
X103351201Y-53741011D01*
X103314295Y-53737043D01*
X103293988Y-53734860D01*
X103293985Y-53734860D01*
X103290638Y-53734500D01*
X101493362Y-53734500D01*
X101490015Y-53734860D01*
X101490012Y-53734860D01*
X101469705Y-53737043D01*
X101432799Y-53741011D01*
X101295796Y-53792111D01*
X101178739Y-53879739D01*
X101173341Y-53886950D01*
X101122077Y-53955431D01*
X101091111Y-53996796D01*
X101040011Y-54133799D01*
X101033500Y-54194362D01*
X101033500Y-55991638D01*
X101040011Y-56052201D01*
X101091111Y-56189204D01*
X101096510Y-56196416D01*
X101096511Y-56196418D01*
X101122390Y-56230988D01*
X101178739Y-56306261D01*
X101295796Y-56393889D01*
X101432799Y-56444989D01*
X101469705Y-56448957D01*
X101490012Y-56451140D01*
X101490015Y-56451140D01*
X101493362Y-56451500D01*
X103290638Y-56451500D01*
X103293985Y-56451140D01*
X103293988Y-56451140D01*
X103314295Y-56448957D01*
X103351201Y-56444989D01*
X103488204Y-56393889D01*
X103605261Y-56306261D01*
X103661610Y-56230988D01*
X103687489Y-56196418D01*
X103687490Y-56196416D01*
X103692889Y-56189204D01*
X103736998Y-56070944D01*
X103779545Y-56014108D01*
X103846065Y-55989297D01*
X103915439Y-56004388D01*
X103947755Y-56029638D01*
X103968526Y-56052201D01*
X104008760Y-56095906D01*
X104012879Y-56099112D01*
X104124892Y-56186296D01*
X104186424Y-56234189D01*
X104384426Y-56341342D01*
X104597365Y-56414444D01*
X104602499Y-56415301D01*
X104602504Y-56415302D01*
X104814294Y-56450643D01*
X104814296Y-56450643D01*
X104819431Y-56451500D01*
X105044569Y-56451500D01*
X105049704Y-56450643D01*
X105049706Y-56450643D01*
X105261496Y-56415302D01*
X105261501Y-56415301D01*
X105266635Y-56414444D01*
X105479574Y-56341342D01*
X105677576Y-56234189D01*
X105739109Y-56186296D01*
X105851121Y-56099112D01*
X105855240Y-56095906D01*
X105939489Y-56004388D01*
X106004194Y-55934101D01*
X106004197Y-55934097D01*
X106007722Y-55930268D01*
X106096517Y-55794357D01*
X106150521Y-55748268D01*
X106220868Y-55738693D01*
X106285226Y-55768670D01*
X106307483Y-55794357D01*
X106396278Y-55930268D01*
X106399803Y-55934097D01*
X106399806Y-55934101D01*
X106464511Y-56004388D01*
X106548760Y-56095906D01*
X106552879Y-56099112D01*
X106664892Y-56186296D01*
X106726424Y-56234189D01*
X106924426Y-56341342D01*
X107137365Y-56414444D01*
X107142499Y-56415301D01*
X107142504Y-56415302D01*
X107354294Y-56450643D01*
X107354296Y-56450643D01*
X107359431Y-56451500D01*
X107584569Y-56451500D01*
X107589704Y-56450643D01*
X107589706Y-56450643D01*
X107801496Y-56415302D01*
X107801501Y-56415301D01*
X107806635Y-56414444D01*
X108019574Y-56341342D01*
X108217576Y-56234189D01*
X108279109Y-56186296D01*
X108391121Y-56099112D01*
X108395240Y-56095906D01*
X108479489Y-56004388D01*
X108544194Y-55934101D01*
X108544197Y-55934097D01*
X108547722Y-55930268D01*
X108636517Y-55794357D01*
X108690521Y-55748268D01*
X108760868Y-55738693D01*
X108825226Y-55768670D01*
X108847483Y-55794357D01*
X108936278Y-55930268D01*
X108939803Y-55934097D01*
X108939806Y-55934101D01*
X109004511Y-56004388D01*
X109088760Y-56095906D01*
X109197781Y-56180761D01*
X109204892Y-56186296D01*
X109246362Y-56243921D01*
X109253500Y-56285727D01*
X109253500Y-62615500D01*
X109233498Y-62683621D01*
X109179842Y-62730114D01*
X109127500Y-62741500D01*
X108776442Y-62741500D01*
X108758180Y-62740170D01*
X108734211Y-62736659D01*
X108684365Y-62741020D01*
X108684354Y-62741021D01*
X108673372Y-62741500D01*
X108667820Y-62741500D01*
X108664180Y-62741925D01*
X108664170Y-62741926D01*
X108636713Y-62745135D01*
X108633071Y-62745507D01*
X108569432Y-62751075D01*
X108557574Y-62752113D01*
X108550605Y-62754422D01*
X108547299Y-62755105D01*
X108546873Y-62755174D01*
X108546449Y-62755294D01*
X108543179Y-62756069D01*
X108535887Y-62756921D01*
X108528996Y-62759429D01*
X108528992Y-62759430D01*
X108464635Y-62782854D01*
X108461182Y-62784054D01*
X108389262Y-62807886D01*
X108383016Y-62811739D01*
X108379970Y-62813159D01*
X108379558Y-62813330D01*
X108379197Y-62813531D01*
X108376158Y-62815057D01*
X108369268Y-62817565D01*
X108363143Y-62821594D01*
X108363134Y-62821598D01*
X108305921Y-62859228D01*
X108302829Y-62861198D01*
X108244599Y-62897114D01*
X108244593Y-62897118D01*
X108238349Y-62900970D01*
X108233156Y-62906163D01*
X108230527Y-62908242D01*
X108230164Y-62908504D01*
X108229852Y-62908790D01*
X108227261Y-62910964D01*
X108221126Y-62914999D01*
X108216089Y-62920338D01*
X108169071Y-62970174D01*
X108166517Y-62972802D01*
X107226407Y-63912912D01*
X107158054Y-63948097D01*
X107107365Y-63956556D01*
X106894426Y-64029658D01*
X106696424Y-64136811D01*
X106692313Y-64140010D01*
X106692311Y-64140012D01*
X106582046Y-64225836D01*
X106518760Y-64275094D01*
X106489394Y-64306994D01*
X106369806Y-64436899D01*
X106369803Y-64436903D01*
X106366278Y-64440732D01*
X106357991Y-64453416D01*
X106277483Y-64576643D01*
X106223479Y-64622732D01*
X106153132Y-64632307D01*
X106088774Y-64602330D01*
X106066517Y-64576643D01*
X105986009Y-64453416D01*
X105977722Y-64440732D01*
X105974197Y-64436903D01*
X105974194Y-64436899D01*
X105854606Y-64306994D01*
X105825240Y-64275094D01*
X105761954Y-64225836D01*
X105651689Y-64140012D01*
X105651687Y-64140010D01*
X105647576Y-64136811D01*
X105449574Y-64029658D01*
X105236635Y-63956556D01*
X105231501Y-63955699D01*
X105231496Y-63955698D01*
X105019706Y-63920357D01*
X105019704Y-63920357D01*
X105014569Y-63919500D01*
X104789431Y-63919500D01*
X104784296Y-63920357D01*
X104784294Y-63920357D01*
X104572504Y-63955698D01*
X104572499Y-63955699D01*
X104567365Y-63956556D01*
X104354426Y-64029658D01*
X104156424Y-64136811D01*
X104152313Y-64140010D01*
X104152311Y-64140012D01*
X104042046Y-64225836D01*
X103978760Y-64275094D01*
X103966397Y-64288524D01*
X103917755Y-64341362D01*
X103856901Y-64377933D01*
X103785937Y-64375798D01*
X103727392Y-64335636D01*
X103706998Y-64300056D01*
X103699192Y-64279126D01*
X103662889Y-64181796D01*
X103575261Y-64064739D01*
X103526137Y-64027965D01*
X103465418Y-63982511D01*
X103465416Y-63982510D01*
X103458204Y-63977111D01*
X103321201Y-63926011D01*
X103277809Y-63921346D01*
X103263988Y-63919860D01*
X103263985Y-63919860D01*
X103260638Y-63919500D01*
X101463362Y-63919500D01*
X101460015Y-63919860D01*
X101460012Y-63919860D01*
X101446191Y-63921346D01*
X101402799Y-63926011D01*
X101265796Y-63977111D01*
X101258584Y-63982510D01*
X101258582Y-63982511D01*
X101197863Y-64027965D01*
X101148739Y-64064739D01*
X101061111Y-64181796D01*
X101010011Y-64318799D01*
X101003500Y-64379362D01*
X101003500Y-64904076D01*
X100983498Y-64972197D01*
X100966595Y-64993171D01*
X97215095Y-68744671D01*
X97152783Y-68778697D01*
X97081968Y-68773632D01*
X97025132Y-68731085D01*
X97000321Y-68664565D01*
X97000000Y-68655576D01*
X97000000Y-53000000D01*
X116994390Y-53000000D01*
X117014804Y-53285428D01*
X117075631Y-53565046D01*
X117077198Y-53569248D01*
X117077200Y-53569254D01*
X117154853Y-53777449D01*
X117175633Y-53833161D01*
X117177786Y-53837104D01*
X117177787Y-53837106D01*
X117183517Y-53847599D01*
X117312774Y-54084315D01*
X117355682Y-54141633D01*
X117481563Y-54309792D01*
X117481569Y-54309799D01*
X117484261Y-54313395D01*
X117686605Y-54515739D01*
X117690201Y-54518431D01*
X117690208Y-54518437D01*
X117796644Y-54598113D01*
X117915685Y-54687226D01*
X117919640Y-54689385D01*
X117919639Y-54689385D01*
X118025098Y-54746970D01*
X118166839Y-54824367D01*
X118171042Y-54825935D01*
X118171045Y-54825936D01*
X118430746Y-54922800D01*
X118430752Y-54922802D01*
X118434954Y-54924369D01*
X118439340Y-54925323D01*
X118439343Y-54925324D01*
X118605947Y-54961566D01*
X118714572Y-54985196D01*
X119000000Y-55005610D01*
X119004488Y-55005289D01*
X119280940Y-54985517D01*
X119285428Y-54985196D01*
X119394053Y-54961566D01*
X119560657Y-54925324D01*
X119560660Y-54925323D01*
X119565046Y-54924369D01*
X119569248Y-54922802D01*
X119569254Y-54922800D01*
X119828955Y-54825936D01*
X119828958Y-54825935D01*
X119833161Y-54824367D01*
X119974903Y-54746970D01*
X120080361Y-54689385D01*
X120080360Y-54689385D01*
X120084315Y-54687226D01*
X120203356Y-54598113D01*
X120309792Y-54518437D01*
X120309799Y-54518431D01*
X120313395Y-54515739D01*
X120515739Y-54313395D01*
X120518431Y-54309799D01*
X120518437Y-54309792D01*
X120644318Y-54141633D01*
X120687226Y-54084315D01*
X120816483Y-53847599D01*
X120822213Y-53837106D01*
X120822214Y-53837104D01*
X120824367Y-53833161D01*
X120845147Y-53777449D01*
X120922800Y-53569254D01*
X120922802Y-53569248D01*
X120924369Y-53565046D01*
X120985196Y-53285428D01*
X121005610Y-53000000D01*
X120985196Y-52714572D01*
X120924369Y-52434954D01*
X120922802Y-52430752D01*
X120922800Y-52430746D01*
X120825936Y-52171045D01*
X120825935Y-52171042D01*
X120824367Y-52166839D01*
X120687226Y-51915685D01*
X120615909Y-51820417D01*
X120518437Y-51690208D01*
X120518431Y-51690201D01*
X120515739Y-51686605D01*
X120313395Y-51484261D01*
X120309799Y-51481569D01*
X120309792Y-51481563D01*
X120179583Y-51384091D01*
X120084315Y-51312774D01*
X119833161Y-51175633D01*
X119828958Y-51174065D01*
X119828955Y-51174064D01*
X119569254Y-51077200D01*
X119569248Y-51077198D01*
X119565046Y-51075631D01*
X119560660Y-51074677D01*
X119560657Y-51074676D01*
X119313230Y-51020852D01*
X119285428Y-51014804D01*
X119000000Y-50994390D01*
X118714572Y-51014804D01*
X118686770Y-51020852D01*
X118439343Y-51074676D01*
X118439340Y-51074677D01*
X118434954Y-51075631D01*
X118430752Y-51077198D01*
X118430746Y-51077200D01*
X118171045Y-51174064D01*
X118171042Y-51174065D01*
X118166839Y-51175633D01*
X117915685Y-51312774D01*
X117820417Y-51384091D01*
X117690208Y-51481563D01*
X117690201Y-51481569D01*
X117686605Y-51484261D01*
X117484261Y-51686605D01*
X117481569Y-51690201D01*
X117481563Y-51690208D01*
X117384091Y-51820417D01*
X117312774Y-51915685D01*
X117175633Y-52166839D01*
X117174065Y-52171042D01*
X117174064Y-52171045D01*
X117077200Y-52430746D01*
X117077198Y-52430752D01*
X117075631Y-52434954D01*
X117014804Y-52714572D01*
X116994390Y-53000000D01*
X97000000Y-53000000D01*
X97000000Y-50126500D01*
X97020002Y-50058379D01*
X97073658Y-50011886D01*
X97126000Y-50000500D01*
X119995878Y-50000500D01*
X120004119Y-50000770D01*
G37*
%TD.AperFunction*%
%TA.AperFunction,Conductor*%
G36*
X64065981Y-87288502D02*
G01*
X64080877Y-87300507D01*
X64082013Y-87301987D01*
X64113925Y-87326474D01*
X64113928Y-87326477D01*
X64126489Y-87336115D01*
X64209125Y-87399524D01*
X64357150Y-87460838D01*
X64476115Y-87476500D01*
X64476120Y-87476500D01*
X64476129Y-87476501D01*
X64507812Y-87480672D01*
X64516000Y-87481750D01*
X64547693Y-87477578D01*
X64564136Y-87476500D01*
X70561761Y-87476500D01*
X70629882Y-87496502D01*
X70650856Y-87513405D01*
X70737856Y-87600405D01*
X70771882Y-87662717D01*
X70766817Y-87733532D01*
X70724270Y-87790368D01*
X70657750Y-87815179D01*
X70648761Y-87815500D01*
X70474431Y-87815500D01*
X70469296Y-87816357D01*
X70469294Y-87816357D01*
X70257504Y-87851698D01*
X70257499Y-87851699D01*
X70252365Y-87852556D01*
X70039426Y-87925658D01*
X69841424Y-88032811D01*
X69837313Y-88036010D01*
X69837311Y-88036012D01*
X69736119Y-88114774D01*
X69663760Y-88171094D01*
X69660228Y-88174931D01*
X69514806Y-88332899D01*
X69514803Y-88332903D01*
X69511278Y-88336732D01*
X69501225Y-88352120D01*
X69422483Y-88472643D01*
X69368479Y-88518732D01*
X69298132Y-88528307D01*
X69233774Y-88498330D01*
X69211517Y-88472643D01*
X69132775Y-88352120D01*
X69122722Y-88336732D01*
X69119197Y-88332903D01*
X69119194Y-88332899D01*
X68973772Y-88174931D01*
X68970240Y-88171094D01*
X68897881Y-88114774D01*
X68796689Y-88036012D01*
X68796687Y-88036010D01*
X68792576Y-88032811D01*
X68594574Y-87925658D01*
X68381635Y-87852556D01*
X68376501Y-87851699D01*
X68376496Y-87851698D01*
X68164706Y-87816357D01*
X68164704Y-87816357D01*
X68159569Y-87815500D01*
X67934431Y-87815500D01*
X67929296Y-87816357D01*
X67929294Y-87816357D01*
X67717504Y-87851698D01*
X67717499Y-87851699D01*
X67712365Y-87852556D01*
X67499426Y-87925658D01*
X67301424Y-88032811D01*
X67297313Y-88036010D01*
X67297311Y-88036012D01*
X67196119Y-88114774D01*
X67123760Y-88171094D01*
X67120228Y-88174931D01*
X66974806Y-88332899D01*
X66974803Y-88332903D01*
X66971278Y-88336732D01*
X66889022Y-88462635D01*
X66882184Y-88473101D01*
X66828180Y-88519189D01*
X66757832Y-88528764D01*
X66693475Y-88498786D01*
X66671218Y-88473101D01*
X66585177Y-88341407D01*
X66578790Y-88333201D01*
X66433432Y-88175300D01*
X66425789Y-88168263D01*
X66256411Y-88036431D01*
X66247718Y-88030752D01*
X66058957Y-87928599D01*
X66049440Y-87924425D01*
X65846443Y-87854736D01*
X65836373Y-87852185D01*
X65778867Y-87842589D01*
X65765352Y-87844223D01*
X65761000Y-87858449D01*
X65761000Y-89302000D01*
X65740998Y-89370121D01*
X65687342Y-89416614D01*
X65635000Y-89428000D01*
X64188571Y-89428000D01*
X64175040Y-89431973D01*
X64173744Y-89440986D01*
X64216900Y-89611408D01*
X64220270Y-89621223D01*
X64306488Y-89817778D01*
X64311431Y-89826913D01*
X64428823Y-90006593D01*
X64435210Y-90014799D01*
X64580568Y-90172700D01*
X64588211Y-90179737D01*
X64757589Y-90311569D01*
X64766281Y-90317248D01*
X64795206Y-90332901D01*
X64845597Y-90382914D01*
X64860949Y-90452231D01*
X64836388Y-90518844D01*
X64795208Y-90554528D01*
X64761424Y-90572811D01*
X64757313Y-90576010D01*
X64757311Y-90576012D01*
X64712896Y-90610582D01*
X64583760Y-90711094D01*
X64580228Y-90714931D01*
X64434806Y-90872899D01*
X64434803Y-90872903D01*
X64431278Y-90876732D01*
X64428427Y-90881096D01*
X64312372Y-91058732D01*
X64308140Y-91065209D01*
X64306048Y-91069978D01*
X64306046Y-91069982D01*
X64265344Y-91162774D01*
X64217704Y-91271384D01*
X64162436Y-91489632D01*
X64162006Y-91494823D01*
X64162005Y-91494828D01*
X64151901Y-91616769D01*
X64143844Y-91714000D01*
X64144274Y-91719189D01*
X64161740Y-91929966D01*
X64162155Y-91934978D01*
X64162155Y-91934979D01*
X64162436Y-91938368D01*
X64161739Y-91938426D01*
X64153708Y-92004936D01*
X64108440Y-92059630D01*
X64040790Y-92081168D01*
X63972234Y-92062712D01*
X63948844Y-92044295D01*
X63891405Y-91986856D01*
X63857379Y-91924544D01*
X63854500Y-91897761D01*
X63854500Y-88902439D01*
X64174903Y-88902439D01*
X64175433Y-88916530D01*
X64183855Y-88920000D01*
X65234885Y-88920000D01*
X65250124Y-88915525D01*
X65251329Y-88914135D01*
X65253000Y-88906452D01*
X65253000Y-87857723D01*
X65249164Y-87844660D01*
X65234416Y-87842709D01*
X65177627Y-87852185D01*
X65167557Y-87854736D01*
X64964560Y-87924425D01*
X64955043Y-87928599D01*
X64766282Y-88030752D01*
X64757589Y-88036431D01*
X64588211Y-88168263D01*
X64580568Y-88175300D01*
X64435210Y-88333201D01*
X64428823Y-88341407D01*
X64311431Y-88521087D01*
X64306488Y-88530222D01*
X64220270Y-88726777D01*
X64216900Y-88736592D01*
X64174903Y-88902439D01*
X63854500Y-88902439D01*
X63854500Y-87424136D01*
X63855578Y-87407692D01*
X63859479Y-87378056D01*
X63888200Y-87313129D01*
X63947464Y-87274036D01*
X63984401Y-87268500D01*
X63997860Y-87268500D01*
X64065981Y-87288502D01*
G37*
%TD.AperFunction*%
%TA.AperFunction,Conductor*%
G36*
X78187750Y-86122502D02*
G01*
X78208724Y-86139405D01*
X79722595Y-87653276D01*
X79756621Y-87715588D01*
X79759500Y-87742371D01*
X79759500Y-88759923D01*
X79739498Y-88828044D01*
X79685842Y-88874537D01*
X79615568Y-88884641D01*
X79550988Y-88855147D01*
X79511356Y-88790854D01*
X79497578Y-88736446D01*
X79497578Y-88736445D01*
X79496296Y-88731384D01*
X79405860Y-88525209D01*
X79401629Y-88518732D01*
X79292775Y-88352120D01*
X79282722Y-88336732D01*
X79279197Y-88332903D01*
X79279194Y-88332899D01*
X79133772Y-88174931D01*
X79130240Y-88171094D01*
X79057881Y-88114774D01*
X78956689Y-88036012D01*
X78956687Y-88036010D01*
X78952576Y-88032811D01*
X78754574Y-87925658D01*
X78541635Y-87852556D01*
X78536501Y-87851699D01*
X78536496Y-87851698D01*
X78324706Y-87816357D01*
X78324704Y-87816357D01*
X78319569Y-87815500D01*
X78094431Y-87815500D01*
X78089296Y-87816357D01*
X78089294Y-87816357D01*
X77877504Y-87851698D01*
X77877499Y-87851699D01*
X77872365Y-87852556D01*
X77659426Y-87925658D01*
X77461424Y-88032811D01*
X77457313Y-88036010D01*
X77457311Y-88036012D01*
X77356119Y-88114774D01*
X77283760Y-88171094D01*
X77280228Y-88174931D01*
X77134806Y-88332899D01*
X77134803Y-88332903D01*
X77131278Y-88336732D01*
X77121225Y-88352120D01*
X77042483Y-88472643D01*
X76988479Y-88518732D01*
X76918132Y-88528307D01*
X76853774Y-88498330D01*
X76831517Y-88472643D01*
X76752775Y-88352120D01*
X76742722Y-88336732D01*
X76739197Y-88332903D01*
X76739194Y-88332899D01*
X76593772Y-88174931D01*
X76590240Y-88171094D01*
X76517881Y-88114774D01*
X76416689Y-88036012D01*
X76416687Y-88036010D01*
X76412576Y-88032811D01*
X76214574Y-87925658D01*
X76001635Y-87852556D01*
X75996501Y-87851699D01*
X75996496Y-87851698D01*
X75784706Y-87816357D01*
X75784704Y-87816357D01*
X75779569Y-87815500D01*
X75554431Y-87815500D01*
X75549296Y-87816357D01*
X75549294Y-87816357D01*
X75337504Y-87851698D01*
X75337499Y-87851699D01*
X75332365Y-87852556D01*
X75119426Y-87925658D01*
X74921424Y-88032811D01*
X74917313Y-88036010D01*
X74917311Y-88036012D01*
X74816119Y-88114774D01*
X74743760Y-88171094D01*
X74740228Y-88174931D01*
X74594806Y-88332899D01*
X74594803Y-88332903D01*
X74591278Y-88336732D01*
X74581225Y-88352120D01*
X74502483Y-88472643D01*
X74448479Y-88518732D01*
X74378132Y-88528307D01*
X74313774Y-88498330D01*
X74291517Y-88472643D01*
X74212775Y-88352120D01*
X74202722Y-88336732D01*
X74199197Y-88332903D01*
X74199194Y-88332899D01*
X74053772Y-88174931D01*
X74050240Y-88171094D01*
X73977881Y-88114774D01*
X73876689Y-88036012D01*
X73876687Y-88036010D01*
X73872576Y-88032811D01*
X73674574Y-87925658D01*
X73461635Y-87852556D01*
X73456501Y-87851699D01*
X73456496Y-87851698D01*
X73244706Y-87816357D01*
X73244704Y-87816357D01*
X73239569Y-87815500D01*
X73014431Y-87815500D01*
X73009296Y-87816357D01*
X73009294Y-87816357D01*
X72797504Y-87851698D01*
X72797499Y-87851699D01*
X72792365Y-87852556D01*
X72774285Y-87858763D01*
X72650340Y-87901313D01*
X72579416Y-87904513D01*
X72518020Y-87868861D01*
X72484506Y-87798586D01*
X72483424Y-87790368D01*
X72474838Y-87725150D01*
X72457328Y-87682876D01*
X72413524Y-87577124D01*
X72340477Y-87481928D01*
X72340474Y-87481925D01*
X72315987Y-87450013D01*
X72303514Y-87440442D01*
X72290621Y-87430548D01*
X72278230Y-87419681D01*
X71330315Y-86471766D01*
X71319448Y-86459375D01*
X71305013Y-86440563D01*
X71299987Y-86434013D01*
X71268075Y-86409526D01*
X71268072Y-86409523D01*
X71179429Y-86341504D01*
X71179427Y-86341503D01*
X71172876Y-86336476D01*
X71170782Y-86335609D01*
X71123706Y-86286234D01*
X71110271Y-86216520D01*
X71136659Y-86150610D01*
X71194492Y-86109429D01*
X71235700Y-86102500D01*
X78119629Y-86102500D01*
X78187750Y-86122502D01*
G37*
%TD.AperFunction*%
%TA.AperFunction,Conductor*%
G36*
X108795226Y-65953670D02*
G01*
X108817483Y-65979357D01*
X108906278Y-66115268D01*
X108909803Y-66119097D01*
X108909806Y-66119101D01*
X108931789Y-66142980D01*
X109058760Y-66280906D01*
X109187089Y-66380789D01*
X109204892Y-66394646D01*
X109246362Y-66452271D01*
X109253500Y-66494077D01*
X109253500Y-67929629D01*
X109233498Y-67997750D01*
X109216595Y-68018724D01*
X107926724Y-69308595D01*
X107864412Y-69342621D01*
X107837629Y-69345500D01*
X104204442Y-69345500D01*
X104186180Y-69344170D01*
X104184155Y-69343873D01*
X104162211Y-69340659D01*
X104112354Y-69345021D01*
X104101372Y-69345500D01*
X104095820Y-69345500D01*
X104064692Y-69349138D01*
X104061148Y-69349501D01*
X103985573Y-69356113D01*
X103978605Y-69358422D01*
X103975296Y-69359105D01*
X103974871Y-69359174D01*
X103974461Y-69359290D01*
X103971173Y-69360069D01*
X103963887Y-69360921D01*
X103956993Y-69363430D01*
X103949851Y-69365123D01*
X103949103Y-69361966D01*
X103892637Y-69365507D01*
X103830626Y-69330936D01*
X103797149Y-69268327D01*
X103794500Y-69242626D01*
X103794500Y-68428924D01*
X103814502Y-68360803D01*
X103831405Y-68339829D01*
X105605696Y-66565538D01*
X105614857Y-66557234D01*
X105643789Y-66533490D01*
X105648568Y-66529568D01*
X105774595Y-66376004D01*
X105789592Y-66347946D01*
X105818123Y-66294569D01*
X105836544Y-66268627D01*
X105974194Y-66119101D01*
X105974197Y-66119097D01*
X105977722Y-66115268D01*
X106066517Y-65979357D01*
X106120521Y-65933268D01*
X106190868Y-65923693D01*
X106255226Y-65953670D01*
X106277483Y-65979357D01*
X106366278Y-66115268D01*
X106369803Y-66119097D01*
X106369806Y-66119101D01*
X106391789Y-66142980D01*
X106518760Y-66280906D01*
X106522879Y-66284112D01*
X106664892Y-66394646D01*
X106696424Y-66419189D01*
X106701005Y-66421668D01*
X106861860Y-66508718D01*
X106894426Y-66526342D01*
X107107365Y-66599444D01*
X107112499Y-66600301D01*
X107112504Y-66600302D01*
X107324294Y-66635643D01*
X107324296Y-66635643D01*
X107329431Y-66636500D01*
X107554569Y-66636500D01*
X107559704Y-66635643D01*
X107559706Y-66635643D01*
X107771496Y-66600302D01*
X107771501Y-66600301D01*
X107776635Y-66599444D01*
X107989574Y-66526342D01*
X108022141Y-66508718D01*
X108182995Y-66421668D01*
X108187576Y-66419189D01*
X108219109Y-66394646D01*
X108361121Y-66284112D01*
X108365240Y-66280906D01*
X108492211Y-66142980D01*
X108514194Y-66119101D01*
X108514197Y-66119097D01*
X108517722Y-66115268D01*
X108606517Y-65979357D01*
X108660521Y-65933268D01*
X108730868Y-65923693D01*
X108795226Y-65953670D01*
G37*
%TD.AperFunction*%
%TD*%
M02*
