%TF.GenerationSoftware,KiCad,Pcbnew,(6.99.0-3568-gdcfcfd5f29)*%
%TF.CreationDate,2022-10-11T21:14:35+03:00*%
%TF.ProjectId,welder ac diy mainboard,77656c64-6572-4206-9163-20646979206d,rev?*%
%TF.SameCoordinates,Original*%
%TF.FileFunction,Drillmap*%
%TF.FilePolarity,Positive*%
%FSLAX45Y45*%
G04 Gerber Fmt 4.5, Leading zero omitted, Abs format (unit mm)*
G04 Created by KiCad (PCBNEW (6.99.0-3568-gdcfcfd5f29)) date 2022-10-11 21:14:35*
%MOMM*%
%LPD*%
G01*
G04 APERTURE LIST*
%ADD10C,0.100000*%
%ADD11C,0.200000*%
G04 APERTURE END LIST*
D10*
X12000000Y-12200000D02*
G75*
G03*
X12200000Y-12000000I0J200000D01*
G01*
X12100000Y-11900000D02*
G75*
G03*
X12100000Y-11900000I-200000J0D01*
G01*
X5000000Y-12000000D02*
X5000000Y-5200000D01*
X12100000Y-5300000D02*
G75*
G03*
X12100000Y-5300000I-200000J0D01*
G01*
X5500000Y-5300000D02*
G75*
G03*
X5500000Y-5300000I-200000J0D01*
G01*
X12200000Y-5200000D02*
X12200000Y-12000000D01*
X5200000Y-5000000D02*
X12000000Y-5000000D01*
X5500000Y-11900000D02*
G75*
G03*
X5500000Y-11900000I-200000J0D01*
G01*
X12200000Y-5200000D02*
G75*
G03*
X12000000Y-5000000I-200000J0D01*
G01*
X12000000Y-12200000D02*
X5200000Y-12200000D01*
X5000000Y-12000000D02*
G75*
G03*
X5200000Y-12200000I200000J0D01*
G01*
X5200000Y-5000000D02*
G75*
G03*
X5000000Y-5200000I0J-200000D01*
G01*
D11*
X5242619Y-12498476D02*
X5242619Y-12298476D01*
X5242619Y-12298476D02*
X5290238Y-12298476D01*
X5290238Y-12298476D02*
X5318810Y-12308000D01*
X5318810Y-12308000D02*
X5337857Y-12327048D01*
X5337857Y-12327048D02*
X5347381Y-12346095D01*
X5347381Y-12346095D02*
X5356905Y-12384190D01*
X5356905Y-12384190D02*
X5356905Y-12412762D01*
X5356905Y-12412762D02*
X5347381Y-12450857D01*
X5347381Y-12450857D02*
X5337857Y-12469905D01*
X5337857Y-12469905D02*
X5318810Y-12488952D01*
X5318810Y-12488952D02*
X5290238Y-12498476D01*
X5290238Y-12498476D02*
X5242619Y-12498476D01*
X5442619Y-12498476D02*
X5442619Y-12365143D01*
X5442619Y-12403238D02*
X5452143Y-12384190D01*
X5452143Y-12384190D02*
X5461667Y-12374667D01*
X5461667Y-12374667D02*
X5480714Y-12365143D01*
X5480714Y-12365143D02*
X5499762Y-12365143D01*
X5566429Y-12498476D02*
X5566429Y-12365143D01*
X5566429Y-12298476D02*
X5556905Y-12308000D01*
X5556905Y-12308000D02*
X5566429Y-12317524D01*
X5566429Y-12317524D02*
X5575952Y-12308000D01*
X5575952Y-12308000D02*
X5566429Y-12298476D01*
X5566429Y-12298476D02*
X5566429Y-12317524D01*
X5690238Y-12498476D02*
X5671190Y-12488952D01*
X5671190Y-12488952D02*
X5661667Y-12469905D01*
X5661667Y-12469905D02*
X5661667Y-12298476D01*
X5795000Y-12498476D02*
X5775952Y-12488952D01*
X5775952Y-12488952D02*
X5766428Y-12469905D01*
X5766428Y-12469905D02*
X5766428Y-12298476D01*
X5991190Y-12498476D02*
X5991190Y-12298476D01*
X5991190Y-12298476D02*
X6057857Y-12441333D01*
X6057857Y-12441333D02*
X6124524Y-12298476D01*
X6124524Y-12298476D02*
X6124524Y-12498476D01*
X6305476Y-12498476D02*
X6305476Y-12393714D01*
X6305476Y-12393714D02*
X6295952Y-12374667D01*
X6295952Y-12374667D02*
X6276905Y-12365143D01*
X6276905Y-12365143D02*
X6238809Y-12365143D01*
X6238809Y-12365143D02*
X6219762Y-12374667D01*
X6305476Y-12488952D02*
X6286428Y-12498476D01*
X6286428Y-12498476D02*
X6238809Y-12498476D01*
X6238809Y-12498476D02*
X6219762Y-12488952D01*
X6219762Y-12488952D02*
X6210238Y-12469905D01*
X6210238Y-12469905D02*
X6210238Y-12450857D01*
X6210238Y-12450857D02*
X6219762Y-12431809D01*
X6219762Y-12431809D02*
X6238809Y-12422286D01*
X6238809Y-12422286D02*
X6286428Y-12422286D01*
X6286428Y-12422286D02*
X6305476Y-12412762D01*
X6400714Y-12365143D02*
X6400714Y-12565143D01*
X6400714Y-12374667D02*
X6419762Y-12365143D01*
X6419762Y-12365143D02*
X6457857Y-12365143D01*
X6457857Y-12365143D02*
X6476905Y-12374667D01*
X6476905Y-12374667D02*
X6486428Y-12384190D01*
X6486428Y-12384190D02*
X6495952Y-12403238D01*
X6495952Y-12403238D02*
X6495952Y-12460381D01*
X6495952Y-12460381D02*
X6486428Y-12479428D01*
X6486428Y-12479428D02*
X6476905Y-12488952D01*
X6476905Y-12488952D02*
X6457857Y-12498476D01*
X6457857Y-12498476D02*
X6419762Y-12498476D01*
X6419762Y-12498476D02*
X6400714Y-12488952D01*
X6581667Y-12479428D02*
X6591190Y-12488952D01*
X6591190Y-12488952D02*
X6581667Y-12498476D01*
X6581667Y-12498476D02*
X6572143Y-12488952D01*
X6572143Y-12488952D02*
X6581667Y-12479428D01*
X6581667Y-12479428D02*
X6581667Y-12498476D01*
X6581667Y-12374667D02*
X6591190Y-12384190D01*
X6591190Y-12384190D02*
X6581667Y-12393714D01*
X6581667Y-12393714D02*
X6572143Y-12384190D01*
X6572143Y-12384190D02*
X6581667Y-12374667D01*
X6581667Y-12374667D02*
X6581667Y-12393714D01*
M02*
