%TF.GenerationSoftware,KiCad,Pcbnew,(6.99.0-3568-gdcfcfd5f29)*%
%TF.CreationDate,2022-10-11T21:14:32+03:00*%
%TF.ProjectId,welder ac diy mainboard,77656c64-6572-4206-9163-20646979206d,rev?*%
%TF.SameCoordinates,Original*%
%TF.FileFunction,Soldermask,Top*%
%TF.FilePolarity,Negative*%
%FSLAX46Y46*%
G04 Gerber Fmt 4.6, Leading zero omitted, Abs format (unit mm)*
G04 Created by KiCad (PCBNEW (6.99.0-3568-gdcfcfd5f29)) date 2022-10-11 21:14:32*
%MOMM*%
%LPD*%
G01*
G04 APERTURE LIST*
G04 Aperture macros list*
%AMRoundRect*
0 Rectangle with rounded corners*
0 $1 Rounding radius*
0 $2 $3 $4 $5 $6 $7 $8 $9 X,Y pos of 4 corners*
0 Add a 4 corners polygon primitive as box body*
4,1,4,$2,$3,$4,$5,$6,$7,$8,$9,$2,$3,0*
0 Add four circle primitives for the rounded corners*
1,1,$1+$1,$2,$3*
1,1,$1+$1,$4,$5*
1,1,$1+$1,$6,$7*
1,1,$1+$1,$8,$9*
0 Add four rect primitives between the rounded corners*
20,1,$1+$1,$2,$3,$4,$5,0*
20,1,$1+$1,$4,$5,$6,$7,0*
20,1,$1+$1,$6,$7,$8,$9,0*
20,1,$1+$1,$8,$9,$2,$3,0*%
G04 Aperture macros list end*
%ADD10C,2.500000*%
%ADD11RoundRect,0.150000X0.850000X0.150000X-0.850000X0.150000X-0.850000X-0.150000X0.850000X-0.150000X0*%
%ADD12RoundRect,0.250000X0.262500X0.450000X-0.262500X0.450000X-0.262500X-0.450000X0.262500X-0.450000X0*%
%ADD13RoundRect,0.250000X0.450000X-0.262500X0.450000X0.262500X-0.450000X0.262500X-0.450000X-0.262500X0*%
%ADD14RoundRect,0.250000X-0.262500X-0.450000X0.262500X-0.450000X0.262500X0.450000X-0.262500X0.450000X0*%
%ADD15R,2.500000X2.500000*%
%ADD16O,2.500000X2.500000*%
%ADD17RoundRect,0.249999X-1.550001X0.790001X-1.550001X-0.790001X1.550001X-0.790001X1.550001X0.790001X0*%
%ADD18O,3.600000X2.080000*%
%ADD19RoundRect,0.250000X-0.250000X-0.475000X0.250000X-0.475000X0.250000X0.475000X-0.250000X0.475000X0*%
%ADD20RoundRect,0.250000X0.250000X0.475000X-0.250000X0.475000X-0.250000X-0.475000X0.250000X-0.475000X0*%
%ADD21RoundRect,0.250000X-1.500000X-0.550000X1.500000X-0.550000X1.500000X0.550000X-1.500000X0.550000X0*%
%ADD22R,1.300000X1.900000*%
%ADD23R,1.500000X2.000000*%
%ADD24O,1.500000X2.000000*%
%ADD25RoundRect,0.243750X-0.456250X0.243750X-0.456250X-0.243750X0.456250X-0.243750X0.456250X0.243750X0*%
%ADD26R,2.000000X1.500000*%
%ADD27O,2.000000X1.500000*%
%ADD28O,1.700000X1.700000*%
%ADD29R,1.700000X1.700000*%
%ADD30R,2.000000X0.640000*%
%ADD31R,0.640000X2.000000*%
%ADD32R,1.500000X1.000000*%
%ADD33RoundRect,0.249999X0.790001X1.550001X-0.790001X1.550001X-0.790001X-1.550001X0.790001X-1.550001X0*%
%ADD34O,2.080000X3.600000*%
%ADD35RoundRect,0.243750X-0.243750X-0.456250X0.243750X-0.456250X0.243750X0.456250X-0.243750X0.456250X0*%
%ADD36RoundRect,0.250000X-0.450000X0.262500X-0.450000X-0.262500X0.450000X-0.262500X0.450000X0.262500X0*%
%ADD37RoundRect,0.150000X0.150000X-0.675000X0.150000X0.675000X-0.150000X0.675000X-0.150000X-0.675000X0*%
%ADD38RoundRect,0.075000X0.662500X0.075000X-0.662500X0.075000X-0.662500X-0.075000X0.662500X-0.075000X0*%
%ADD39RoundRect,0.075000X0.075000X0.662500X-0.075000X0.662500X-0.075000X-0.662500X0.075000X-0.662500X0*%
%ADD40RoundRect,0.250000X-0.475000X0.250000X-0.475000X-0.250000X0.475000X-0.250000X0.475000X0.250000X0*%
%ADD41RoundRect,0.249999X1.550001X-0.790001X1.550001X0.790001X-1.550001X0.790001X-1.550001X-0.790001X0*%
%ADD42R,3.800000X2.000000*%
%ADD43R,1.900000X0.400000*%
G04 APERTURE END LIST*
D10*
%TO.C,TP5*%
X81534000Y-115951000D03*
%TD*%
%TO.C,TP4*%
X68326000Y-96139000D03*
%TD*%
D11*
%TO.C,U2*%
X102322000Y-82169000D03*
X102322000Y-80899000D03*
X102322000Y-79629000D03*
X102322000Y-78359000D03*
X102322000Y-77089000D03*
X102322000Y-75819000D03*
X102322000Y-74549000D03*
X102322000Y-73279000D03*
X97322000Y-73279000D03*
X97322000Y-74549000D03*
X97322000Y-75819000D03*
X97322000Y-77089000D03*
X97322000Y-78359000D03*
X97322000Y-79629000D03*
X97322000Y-80899000D03*
X97322000Y-82169000D03*
%TD*%
D12*
%TO.C,R24*%
X106830500Y-80391000D03*
X105005500Y-80391000D03*
%TD*%
%TO.C,R23*%
X106830500Y-78359000D03*
X105005500Y-78359000D03*
%TD*%
D13*
%TO.C,R22*%
X59690000Y-84986500D03*
X59690000Y-83161500D03*
%TD*%
D10*
%TO.C,TP3*%
X81026000Y-97028000D03*
%TD*%
D13*
%TO.C,R12*%
X86360000Y-111656500D03*
X86360000Y-109831500D03*
%TD*%
D14*
%TO.C,R6*%
X88599000Y-87122000D03*
X90424000Y-87122000D03*
%TD*%
D13*
%TO.C,R10*%
X109982000Y-71016500D03*
X109982000Y-69191500D03*
%TD*%
%TO.C,R20*%
X64008000Y-84986500D03*
X64008000Y-83161500D03*
%TD*%
D15*
%TO.C,K1*%
X93065499Y-82289499D03*
D16*
X93065499Y-61289499D03*
X85565499Y-64789499D03*
X85565499Y-82289499D03*
%TD*%
D17*
%TO.C,J7*%
X56863500Y-101600000D03*
D18*
X56863499Y-106679999D03*
X56863499Y-111759999D03*
%TD*%
D19*
%TO.C,C5*%
X82362000Y-103378000D03*
X84262000Y-103378000D03*
%TD*%
D10*
%TO.C,TP1*%
X98298000Y-90424000D03*
%TD*%
D20*
%TO.C,C8*%
X103058000Y-105918000D03*
X101158000Y-105918000D03*
%TD*%
D21*
%TO.C,C3*%
X63340000Y-101600000D03*
X68740000Y-101600000D03*
%TD*%
D22*
%TO.C,Y3*%
X104857999Y-99999999D03*
X99357999Y-99999999D03*
X99357999Y-103199999D03*
X104857999Y-103199999D03*
%TD*%
D23*
%TO.C,U9*%
X70310499Y-116750499D03*
D24*
X67770499Y-116750499D03*
X65230499Y-116750499D03*
X62690499Y-116750499D03*
%TD*%
D25*
%TO.C,D3*%
X115062000Y-69166500D03*
X115062000Y-71041500D03*
%TD*%
D26*
%TO.C,U3*%
X54101999Y-81486499D03*
D27*
X54101999Y-78946499D03*
X54101999Y-76406499D03*
X54101999Y-73866499D03*
%TD*%
D28*
%TO.C,J3*%
X65506999Y-89173999D03*
X65506999Y-91713999D03*
X68046999Y-89173999D03*
X68046999Y-91713999D03*
X70586999Y-89173999D03*
X70586999Y-91713999D03*
X73126999Y-89173999D03*
X73126999Y-91713999D03*
X75666999Y-89173999D03*
X75666999Y-91713999D03*
X78206999Y-89173999D03*
D29*
X78206999Y-91713999D03*
%TD*%
D30*
%TO.C,U12*%
X104037999Y-111251999D03*
X104037999Y-113791999D03*
X110337999Y-113791999D03*
X110337999Y-111251999D03*
%TD*%
D31*
%TO.C,U7*%
X57149999Y-80873999D03*
X59689999Y-80873999D03*
X59689999Y-74573999D03*
X57149999Y-74573999D03*
%TD*%
D30*
%TO.C,U13*%
X114909999Y-84835999D03*
X114909999Y-82295999D03*
X108609999Y-82295999D03*
X108609999Y-84835999D03*
%TD*%
D10*
%TO.C,TP2*%
X77470000Y-97028000D03*
%TD*%
D14*
%TO.C,R1*%
X60555500Y-68072000D03*
X62380500Y-68072000D03*
%TD*%
D13*
%TO.C,R18*%
X88392000Y-105560500D03*
X88392000Y-103735500D03*
%TD*%
D32*
%TO.C,JP2*%
X92559499Y-85709999D03*
X92559499Y-87009999D03*
%TD*%
D33*
%TO.C,J4*%
X91694000Y-56896000D03*
D34*
X86613999Y-56895999D03*
%TD*%
D14*
%TO.C,R3*%
X60555500Y-66040000D03*
X62380500Y-66040000D03*
%TD*%
D19*
%TO.C,C4*%
X78806000Y-103378000D03*
X80706000Y-103378000D03*
%TD*%
D14*
%TO.C,R2*%
X60555500Y-64008000D03*
X62380500Y-64008000D03*
%TD*%
D21*
%TO.C,C2*%
X63340000Y-111760000D03*
X68740000Y-111760000D03*
%TD*%
D35*
%TO.C,D5*%
X51640500Y-96266000D03*
X53515500Y-96266000D03*
%TD*%
D36*
%TO.C,R26*%
X108712000Y-94591500D03*
X108712000Y-96416500D03*
%TD*%
D37*
%TO.C,U4*%
X64389000Y-67395000D03*
X65659000Y-67395000D03*
X66929000Y-67395000D03*
X68199000Y-67395000D03*
X68199000Y-62145000D03*
X66929000Y-62145000D03*
X65659000Y-62145000D03*
X64389000Y-62145000D03*
%TD*%
D33*
%TO.C,J5*%
X81534000Y-56863500D03*
D34*
X76453999Y-56863499D03*
%TD*%
D12*
%TO.C,R16*%
X57046500Y-94234000D03*
X55221500Y-94234000D03*
%TD*%
D14*
%TO.C,R11*%
X97639500Y-105918000D03*
X99464500Y-105918000D03*
%TD*%
D35*
%TO.C,D1*%
X95074500Y-108204000D03*
X96949500Y-108204000D03*
%TD*%
D12*
%TO.C,R15*%
X55221500Y-96266000D03*
X57046500Y-96266000D03*
%TD*%
D29*
%TO.C,J9*%
X89427999Y-108178999D03*
D28*
X91967999Y-108178999D03*
%TD*%
D13*
%TO.C,R9*%
X107442000Y-71016500D03*
X107442000Y-69191500D03*
%TD*%
D25*
%TO.C,D2*%
X86360000Y-106250500D03*
X86360000Y-108125500D03*
%TD*%
D13*
%TO.C,R14*%
X113030000Y-74572500D03*
X113030000Y-72747500D03*
%TD*%
D38*
%TO.C,U1*%
X93570500Y-98762000D03*
X93570500Y-98262000D03*
X93570500Y-97762000D03*
X93570500Y-97262000D03*
X93570500Y-96762000D03*
X93570500Y-96262000D03*
X93570500Y-95762000D03*
X93570500Y-95262000D03*
X93570500Y-94762000D03*
X93570500Y-94262000D03*
X93570500Y-93762000D03*
X93570500Y-93262000D03*
D39*
X92158000Y-91849500D03*
X91658000Y-91849500D03*
X91158000Y-91849500D03*
X90658000Y-91849500D03*
X90158000Y-91849500D03*
X89658000Y-91849500D03*
X89158000Y-91849500D03*
X88658000Y-91849500D03*
X88158000Y-91849500D03*
X87658000Y-91849500D03*
X87158000Y-91849500D03*
X86658000Y-91849500D03*
D38*
X85245500Y-93262000D03*
X85245500Y-93762000D03*
X85245500Y-94262000D03*
X85245500Y-94762000D03*
X85245500Y-95262000D03*
X85245500Y-95762000D03*
X85245500Y-96262000D03*
X85245500Y-96762000D03*
X85245500Y-97262000D03*
X85245500Y-97762000D03*
X85245500Y-98262000D03*
X85245500Y-98762000D03*
D39*
X86658000Y-100174500D03*
X87158000Y-100174500D03*
X87658000Y-100174500D03*
X88158000Y-100174500D03*
X88658000Y-100174500D03*
X89158000Y-100174500D03*
X89658000Y-100174500D03*
X90158000Y-100174500D03*
X90658000Y-100174500D03*
X91158000Y-100174500D03*
X91658000Y-100174500D03*
X92158000Y-100174500D03*
%TD*%
D31*
%TO.C,U6*%
X65785999Y-80873999D03*
X68325999Y-80873999D03*
X68325999Y-74573999D03*
X65785999Y-74573999D03*
%TD*%
D40*
%TO.C,C1*%
X70358000Y-63566000D03*
X70358000Y-65466000D03*
%TD*%
D13*
%TO.C,R17*%
X58420000Y-66952500D03*
X58420000Y-65127500D03*
%TD*%
%TO.C,R5*%
X92456000Y-105560500D03*
X92456000Y-103735500D03*
%TD*%
%TO.C,R13*%
X115062000Y-74572500D03*
X115062000Y-72747500D03*
%TD*%
D29*
%TO.C,J8*%
X74700999Y-102879999D03*
D28*
X74700999Y-105419999D03*
X74700999Y-107959999D03*
X74700999Y-110499999D03*
%TD*%
D13*
%TO.C,R7*%
X96520000Y-97432500D03*
X96520000Y-95607500D03*
%TD*%
%TO.C,R29*%
X110236000Y-79144500D03*
X110236000Y-77319500D03*
%TD*%
D29*
%TO.C,J2*%
X102391999Y-55092999D03*
D28*
X104931999Y-55092999D03*
X107471999Y-55092999D03*
X110011999Y-55092999D03*
X112551999Y-55092999D03*
%TD*%
D29*
%TO.C,J1*%
X102361999Y-65277999D03*
D28*
X104901999Y-65277999D03*
X107441999Y-65277999D03*
X109981999Y-65277999D03*
X112521999Y-65277999D03*
%TD*%
D30*
%TO.C,U11*%
X110083999Y-91693999D03*
X110083999Y-89153999D03*
X103783999Y-89153999D03*
X103783999Y-91693999D03*
%TD*%
D13*
%TO.C,R28*%
X112268000Y-79144500D03*
X112268000Y-77319500D03*
%TD*%
D14*
%TO.C,R4*%
X97385500Y-93218000D03*
X99210500Y-93218000D03*
%TD*%
D35*
%TO.C,D6*%
X51640500Y-94234000D03*
X53515500Y-94234000D03*
%TD*%
D12*
%TO.C,R30*%
X99972500Y-111252000D03*
X98147500Y-111252000D03*
%TD*%
D41*
%TO.C,J10*%
X115222500Y-111160000D03*
D18*
X115222499Y-106079999D03*
X115222499Y-100999999D03*
X115222499Y-95919999D03*
X115222499Y-90839999D03*
%TD*%
D32*
%TO.C,JP1*%
X94741999Y-103997999D03*
X94741999Y-105297999D03*
%TD*%
D40*
%TO.C,C9*%
X105156000Y-95824000D03*
X105156000Y-97724000D03*
%TD*%
D20*
%TO.C,C6*%
X103312000Y-97536000D03*
X101412000Y-97536000D03*
%TD*%
D13*
%TO.C,R27*%
X109474000Y-108100500D03*
X109474000Y-106275500D03*
%TD*%
D25*
%TO.C,D7*%
X58420000Y-61546500D03*
X58420000Y-63421500D03*
%TD*%
D20*
%TO.C,C7*%
X103312000Y-95250000D03*
X101412000Y-95250000D03*
%TD*%
D23*
%TO.C,U8*%
X83833999Y-105815999D03*
X81533999Y-105815999D03*
D42*
X81533999Y-112115999D03*
D23*
X79233999Y-105815999D03*
%TD*%
D13*
%TO.C,R8*%
X96520000Y-100988500D03*
X96520000Y-99163500D03*
%TD*%
D43*
%TO.C,Y1*%
X99059999Y-97719999D03*
X99059999Y-96519999D03*
X99059999Y-95319999D03*
%TD*%
D13*
%TO.C,R19*%
X90424000Y-105560500D03*
X90424000Y-103735500D03*
%TD*%
D25*
%TO.C,D4*%
X113030000Y-69166500D03*
X113030000Y-71041500D03*
%TD*%
D36*
%TO.C,R25*%
X110744000Y-94591500D03*
X110744000Y-96416500D03*
%TD*%
D33*
%TO.C,J6*%
X71374000Y-56896000D03*
D34*
X66293999Y-56895999D03*
X61213999Y-56895999D03*
%TD*%
D31*
%TO.C,U5*%
X61467999Y-80873999D03*
X64007999Y-80873999D03*
X64007999Y-74573999D03*
X61467999Y-74573999D03*
%TD*%
D15*
%TO.C,K2*%
X82397499Y-82289499D03*
D16*
X82397499Y-61289499D03*
X74897499Y-64789499D03*
X74897499Y-82289499D03*
%TD*%
D13*
%TO.C,R21*%
X68326000Y-84986500D03*
X68326000Y-83161500D03*
%TD*%
M02*
