%TF.GenerationSoftware,KiCad,Pcbnew,(6.99.0-3568-gdcfcfd5f29)*%
%TF.CreationDate,2022-10-04T16:24:13+03:00*%
%TF.ProjectId,welder ac diy,77656c64-6572-4206-9163-206469792e6b,rev?*%
%TF.SameCoordinates,Original*%
%TF.FileFunction,Legend,Bot*%
%TF.FilePolarity,Positive*%
%FSLAX46Y46*%
G04 Gerber Fmt 4.6, Leading zero omitted, Abs format (unit mm)*
G04 Created by KiCad (PCBNEW (6.99.0-3568-gdcfcfd5f29)) date 2022-10-04 16:24:13*
%MOMM*%
%LPD*%
G01*
G04 APERTURE LIST*
%ADD10C,0.150000*%
%ADD11C,0.120000*%
G04 APERTURE END LIST*
D10*
X80248190Y-110668571D02*
X79914857Y-110668571D01*
X79772000Y-111192380D02*
X80248190Y-111192380D01*
X80248190Y-111192380D02*
X80248190Y-110192380D01*
X80248190Y-110192380D02*
X79772000Y-110192380D01*
X79391047Y-110906666D02*
X78914857Y-110906666D01*
X79486285Y-111192380D02*
X79152952Y-110192380D01*
X79152952Y-110192380D02*
X78819619Y-111192380D01*
X78629142Y-110192380D02*
X78057714Y-110192380D01*
X78343428Y-111192380D02*
X78343428Y-110192380D01*
X77724380Y-111192380D02*
X77724380Y-110192380D01*
X77724380Y-110668571D02*
X77152952Y-110668571D01*
X77152952Y-111192380D02*
X77152952Y-110192380D01*
X76676761Y-110668571D02*
X76343428Y-110668571D01*
X76200571Y-111192380D02*
X76676761Y-111192380D01*
X76676761Y-111192380D02*
X76676761Y-110192380D01*
X76676761Y-110192380D02*
X76200571Y-110192380D01*
X75200571Y-111192380D02*
X75533904Y-110716190D01*
X75771999Y-111192380D02*
X75771999Y-110192380D01*
X75771999Y-110192380D02*
X75391047Y-110192380D01*
X75391047Y-110192380D02*
X75295809Y-110240000D01*
X75295809Y-110240000D02*
X75248190Y-110287619D01*
X75248190Y-110287619D02*
X75200571Y-110382857D01*
X75200571Y-110382857D02*
X75200571Y-110525714D01*
X75200571Y-110525714D02*
X75248190Y-110620952D01*
X75248190Y-110620952D02*
X75295809Y-110668571D01*
X75295809Y-110668571D02*
X75391047Y-110716190D01*
X75391047Y-110716190D02*
X75771999Y-110716190D01*
X73981523Y-110716190D02*
X73981523Y-111192380D01*
X74314856Y-110192380D02*
X73981523Y-110716190D01*
X73981523Y-110716190D02*
X73648190Y-110192380D01*
X73124380Y-110192380D02*
X72933904Y-110192380D01*
X72933904Y-110192380D02*
X72838666Y-110240000D01*
X72838666Y-110240000D02*
X72743428Y-110335238D01*
X72743428Y-110335238D02*
X72695809Y-110525714D01*
X72695809Y-110525714D02*
X72695809Y-110859047D01*
X72695809Y-110859047D02*
X72743428Y-111049523D01*
X72743428Y-111049523D02*
X72838666Y-111144761D01*
X72838666Y-111144761D02*
X72933904Y-111192380D01*
X72933904Y-111192380D02*
X73124380Y-111192380D01*
X73124380Y-111192380D02*
X73219618Y-111144761D01*
X73219618Y-111144761D02*
X73314856Y-111049523D01*
X73314856Y-111049523D02*
X73362475Y-110859047D01*
X73362475Y-110859047D02*
X73362475Y-110525714D01*
X73362475Y-110525714D02*
X73314856Y-110335238D01*
X73314856Y-110335238D02*
X73219618Y-110240000D01*
X73219618Y-110240000D02*
X73124380Y-110192380D01*
X72267237Y-110192380D02*
X72267237Y-111001904D01*
X72267237Y-111001904D02*
X72219618Y-111097142D01*
X72219618Y-111097142D02*
X72171999Y-111144761D01*
X72171999Y-111144761D02*
X72076761Y-111192380D01*
X72076761Y-111192380D02*
X71886285Y-111192380D01*
X71886285Y-111192380D02*
X71791047Y-111144761D01*
X71791047Y-111144761D02*
X71743428Y-111097142D01*
X71743428Y-111097142D02*
X71695809Y-111001904D01*
X71695809Y-111001904D02*
X71695809Y-110192380D01*
X70667237Y-110906666D02*
X70191047Y-110906666D01*
X70762475Y-111192380D02*
X70429142Y-110192380D01*
X70429142Y-110192380D02*
X70095809Y-111192380D01*
X69191047Y-111192380D02*
X69524380Y-110716190D01*
X69762475Y-111192380D02*
X69762475Y-110192380D01*
X69762475Y-110192380D02*
X69381523Y-110192380D01*
X69381523Y-110192380D02*
X69286285Y-110240000D01*
X69286285Y-110240000D02*
X69238666Y-110287619D01*
X69238666Y-110287619D02*
X69191047Y-110382857D01*
X69191047Y-110382857D02*
X69191047Y-110525714D01*
X69191047Y-110525714D02*
X69238666Y-110620952D01*
X69238666Y-110620952D02*
X69286285Y-110668571D01*
X69286285Y-110668571D02*
X69381523Y-110716190D01*
X69381523Y-110716190D02*
X69762475Y-110716190D01*
X68762475Y-110668571D02*
X68429142Y-110668571D01*
X68286285Y-111192380D02*
X68762475Y-111192380D01*
X68762475Y-111192380D02*
X68762475Y-110192380D01*
X68762475Y-110192380D02*
X68286285Y-110192380D01*
X67305332Y-110906666D02*
X66829142Y-110906666D01*
X67400570Y-111192380D02*
X67067237Y-110192380D01*
X67067237Y-110192380D02*
X66733904Y-111192380D01*
X66448189Y-111144761D02*
X66305332Y-111192380D01*
X66305332Y-111192380D02*
X66067237Y-111192380D01*
X66067237Y-111192380D02*
X65971999Y-111144761D01*
X65971999Y-111144761D02*
X65924380Y-111097142D01*
X65924380Y-111097142D02*
X65876761Y-111001904D01*
X65876761Y-111001904D02*
X65876761Y-110906666D01*
X65876761Y-110906666D02*
X65924380Y-110811428D01*
X65924380Y-110811428D02*
X65971999Y-110763809D01*
X65971999Y-110763809D02*
X66067237Y-110716190D01*
X66067237Y-110716190D02*
X66257713Y-110668571D01*
X66257713Y-110668571D02*
X66352951Y-110620952D01*
X66352951Y-110620952D02*
X66400570Y-110573333D01*
X66400570Y-110573333D02*
X66448189Y-110478095D01*
X66448189Y-110478095D02*
X66448189Y-110382857D01*
X66448189Y-110382857D02*
X66400570Y-110287619D01*
X66400570Y-110287619D02*
X66352951Y-110240000D01*
X66352951Y-110240000D02*
X66257713Y-110192380D01*
X66257713Y-110192380D02*
X66019618Y-110192380D01*
X66019618Y-110192380D02*
X65876761Y-110240000D01*
X65495808Y-111144761D02*
X65352951Y-111192380D01*
X65352951Y-111192380D02*
X65114856Y-111192380D01*
X65114856Y-111192380D02*
X65019618Y-111144761D01*
X65019618Y-111144761D02*
X64971999Y-111097142D01*
X64971999Y-111097142D02*
X64924380Y-111001904D01*
X64924380Y-111001904D02*
X64924380Y-110906666D01*
X64924380Y-110906666D02*
X64971999Y-110811428D01*
X64971999Y-110811428D02*
X65019618Y-110763809D01*
X65019618Y-110763809D02*
X65114856Y-110716190D01*
X65114856Y-110716190D02*
X65305332Y-110668571D01*
X65305332Y-110668571D02*
X65400570Y-110620952D01*
X65400570Y-110620952D02*
X65448189Y-110573333D01*
X65448189Y-110573333D02*
X65495808Y-110478095D01*
X65495808Y-110478095D02*
X65495808Y-110382857D01*
X65495808Y-110382857D02*
X65448189Y-110287619D01*
X65448189Y-110287619D02*
X65400570Y-110240000D01*
X65400570Y-110240000D02*
X65305332Y-110192380D01*
X65305332Y-110192380D02*
X65067237Y-110192380D01*
X65067237Y-110192380D02*
X64924380Y-110240000D01*
X64495808Y-110668571D02*
X64162475Y-110668571D01*
X64019618Y-111192380D02*
X64495808Y-111192380D01*
X64495808Y-111192380D02*
X64495808Y-110192380D01*
X64495808Y-110192380D02*
X64019618Y-110192380D01*
X63591046Y-111192380D02*
X63591046Y-110192380D01*
X63591046Y-110192380D02*
X63257713Y-110906666D01*
X63257713Y-110906666D02*
X62924380Y-110192380D01*
X62924380Y-110192380D02*
X62924380Y-111192380D01*
X62114856Y-110668571D02*
X61971999Y-110716190D01*
X61971999Y-110716190D02*
X61924380Y-110763809D01*
X61924380Y-110763809D02*
X61876761Y-110859047D01*
X61876761Y-110859047D02*
X61876761Y-111001904D01*
X61876761Y-111001904D02*
X61924380Y-111097142D01*
X61924380Y-111097142D02*
X61971999Y-111144761D01*
X61971999Y-111144761D02*
X62067237Y-111192380D01*
X62067237Y-111192380D02*
X62448189Y-111192380D01*
X62448189Y-111192380D02*
X62448189Y-110192380D01*
X62448189Y-110192380D02*
X62114856Y-110192380D01*
X62114856Y-110192380D02*
X62019618Y-110240000D01*
X62019618Y-110240000D02*
X61971999Y-110287619D01*
X61971999Y-110287619D02*
X61924380Y-110382857D01*
X61924380Y-110382857D02*
X61924380Y-110478095D01*
X61924380Y-110478095D02*
X61971999Y-110573333D01*
X61971999Y-110573333D02*
X62019618Y-110620952D01*
X62019618Y-110620952D02*
X62114856Y-110668571D01*
X62114856Y-110668571D02*
X62448189Y-110668571D01*
X60971999Y-111192380D02*
X61448189Y-111192380D01*
X61448189Y-111192380D02*
X61448189Y-110192380D01*
X60448189Y-110716190D02*
X60448189Y-111192380D01*
X60781522Y-110192380D02*
X60448189Y-110716190D01*
X60448189Y-110716190D02*
X60114856Y-110192380D01*
X59781522Y-111192380D02*
X59781522Y-110192380D01*
X59305332Y-111192380D02*
X59305332Y-110192380D01*
X59305332Y-110192380D02*
X58733904Y-111192380D01*
X58733904Y-111192380D02*
X58733904Y-110192380D01*
X57733904Y-110240000D02*
X57829142Y-110192380D01*
X57829142Y-110192380D02*
X57971999Y-110192380D01*
X57971999Y-110192380D02*
X58114856Y-110240000D01*
X58114856Y-110240000D02*
X58210094Y-110335238D01*
X58210094Y-110335238D02*
X58257713Y-110430476D01*
X58257713Y-110430476D02*
X58305332Y-110620952D01*
X58305332Y-110620952D02*
X58305332Y-110763809D01*
X58305332Y-110763809D02*
X58257713Y-110954285D01*
X58257713Y-110954285D02*
X58210094Y-111049523D01*
X58210094Y-111049523D02*
X58114856Y-111144761D01*
X58114856Y-111144761D02*
X57971999Y-111192380D01*
X57971999Y-111192380D02*
X57876761Y-111192380D01*
X57876761Y-111192380D02*
X57733904Y-111144761D01*
X57733904Y-111144761D02*
X57686285Y-111097142D01*
X57686285Y-111097142D02*
X57686285Y-110763809D01*
X57686285Y-110763809D02*
X57876761Y-110763809D01*
X56657713Y-111192380D02*
X56657713Y-110192380D01*
X56324380Y-110192380D02*
X55752952Y-110192380D01*
X56038666Y-111192380D02*
X56038666Y-110192380D01*
X81795808Y-111812380D02*
X81605332Y-111812380D01*
X81605332Y-111812380D02*
X81510094Y-111860000D01*
X81510094Y-111860000D02*
X81414856Y-111955238D01*
X81414856Y-111955238D02*
X81367237Y-112145714D01*
X81367237Y-112145714D02*
X81367237Y-112479047D01*
X81367237Y-112479047D02*
X81414856Y-112669523D01*
X81414856Y-112669523D02*
X81510094Y-112764761D01*
X81510094Y-112764761D02*
X81605332Y-112812380D01*
X81605332Y-112812380D02*
X81795808Y-112812380D01*
X81795808Y-112812380D02*
X81891046Y-112764761D01*
X81891046Y-112764761D02*
X81986284Y-112669523D01*
X81986284Y-112669523D02*
X82033903Y-112479047D01*
X82033903Y-112479047D02*
X82033903Y-112145714D01*
X82033903Y-112145714D02*
X81986284Y-111955238D01*
X81986284Y-111955238D02*
X81891046Y-111860000D01*
X81891046Y-111860000D02*
X81795808Y-111812380D01*
X80367237Y-112812380D02*
X80700570Y-112336190D01*
X80938665Y-112812380D02*
X80938665Y-111812380D01*
X80938665Y-111812380D02*
X80557713Y-111812380D01*
X80557713Y-111812380D02*
X80462475Y-111860000D01*
X80462475Y-111860000D02*
X80414856Y-111907619D01*
X80414856Y-111907619D02*
X80367237Y-112002857D01*
X80367237Y-112002857D02*
X80367237Y-112145714D01*
X80367237Y-112145714D02*
X80414856Y-112240952D01*
X80414856Y-112240952D02*
X80462475Y-112288571D01*
X80462475Y-112288571D02*
X80557713Y-112336190D01*
X80557713Y-112336190D02*
X80938665Y-112336190D01*
X79386284Y-112764761D02*
X79243427Y-112812380D01*
X79243427Y-112812380D02*
X79005332Y-112812380D01*
X79005332Y-112812380D02*
X78910094Y-112764761D01*
X78910094Y-112764761D02*
X78862475Y-112717142D01*
X78862475Y-112717142D02*
X78814856Y-112621904D01*
X78814856Y-112621904D02*
X78814856Y-112526666D01*
X78814856Y-112526666D02*
X78862475Y-112431428D01*
X78862475Y-112431428D02*
X78910094Y-112383809D01*
X78910094Y-112383809D02*
X79005332Y-112336190D01*
X79005332Y-112336190D02*
X79195808Y-112288571D01*
X79195808Y-112288571D02*
X79291046Y-112240952D01*
X79291046Y-112240952D02*
X79338665Y-112193333D01*
X79338665Y-112193333D02*
X79386284Y-112098095D01*
X79386284Y-112098095D02*
X79386284Y-112002857D01*
X79386284Y-112002857D02*
X79338665Y-111907619D01*
X79338665Y-111907619D02*
X79291046Y-111860000D01*
X79291046Y-111860000D02*
X79195808Y-111812380D01*
X79195808Y-111812380D02*
X78957713Y-111812380D01*
X78957713Y-111812380D02*
X78814856Y-111860000D01*
X78195808Y-111812380D02*
X78005332Y-111812380D01*
X78005332Y-111812380D02*
X77910094Y-111860000D01*
X77910094Y-111860000D02*
X77814856Y-111955238D01*
X77814856Y-111955238D02*
X77767237Y-112145714D01*
X77767237Y-112145714D02*
X77767237Y-112479047D01*
X77767237Y-112479047D02*
X77814856Y-112669523D01*
X77814856Y-112669523D02*
X77910094Y-112764761D01*
X77910094Y-112764761D02*
X78005332Y-112812380D01*
X78005332Y-112812380D02*
X78195808Y-112812380D01*
X78195808Y-112812380D02*
X78291046Y-112764761D01*
X78291046Y-112764761D02*
X78386284Y-112669523D01*
X78386284Y-112669523D02*
X78433903Y-112479047D01*
X78433903Y-112479047D02*
X78433903Y-112145714D01*
X78433903Y-112145714D02*
X78386284Y-111955238D01*
X78386284Y-111955238D02*
X78291046Y-111860000D01*
X78291046Y-111860000D02*
X78195808Y-111812380D01*
X77338665Y-112812380D02*
X77338665Y-111812380D01*
X77338665Y-111812380D02*
X77005332Y-112526666D01*
X77005332Y-112526666D02*
X76671999Y-111812380D01*
X76671999Y-111812380D02*
X76671999Y-112812380D01*
X76195808Y-112288571D02*
X75862475Y-112288571D01*
X75719618Y-112812380D02*
X76195808Y-112812380D01*
X76195808Y-112812380D02*
X76195808Y-111812380D01*
X76195808Y-111812380D02*
X75719618Y-111812380D01*
X75433903Y-111812380D02*
X74862475Y-111812380D01*
X75148189Y-112812380D02*
X75148189Y-111812380D01*
X74529141Y-112812380D02*
X74529141Y-111812380D01*
X74529141Y-112288571D02*
X73957713Y-112288571D01*
X73957713Y-112812380D02*
X73957713Y-111812380D01*
X73481522Y-112812380D02*
X73481522Y-111812380D01*
X73005332Y-112812380D02*
X73005332Y-111812380D01*
X73005332Y-111812380D02*
X72433904Y-112812380D01*
X72433904Y-112812380D02*
X72433904Y-111812380D01*
X71433904Y-111860000D02*
X71529142Y-111812380D01*
X71529142Y-111812380D02*
X71671999Y-111812380D01*
X71671999Y-111812380D02*
X71814856Y-111860000D01*
X71814856Y-111860000D02*
X71910094Y-111955238D01*
X71910094Y-111955238D02*
X71957713Y-112050476D01*
X71957713Y-112050476D02*
X72005332Y-112240952D01*
X72005332Y-112240952D02*
X72005332Y-112383809D01*
X72005332Y-112383809D02*
X71957713Y-112574285D01*
X71957713Y-112574285D02*
X71910094Y-112669523D01*
X71910094Y-112669523D02*
X71814856Y-112764761D01*
X71814856Y-112764761D02*
X71671999Y-112812380D01*
X71671999Y-112812380D02*
X71576761Y-112812380D01*
X71576761Y-112812380D02*
X71433904Y-112764761D01*
X71433904Y-112764761D02*
X71386285Y-112717142D01*
X71386285Y-112717142D02*
X71386285Y-112383809D01*
X71386285Y-112383809D02*
X71576761Y-112383809D01*
X69833904Y-111860000D02*
X69929142Y-111812380D01*
X69929142Y-111812380D02*
X70071999Y-111812380D01*
X70071999Y-111812380D02*
X70214856Y-111860000D01*
X70214856Y-111860000D02*
X70310094Y-111955238D01*
X70310094Y-111955238D02*
X70357713Y-112050476D01*
X70357713Y-112050476D02*
X70405332Y-112240952D01*
X70405332Y-112240952D02*
X70405332Y-112383809D01*
X70405332Y-112383809D02*
X70357713Y-112574285D01*
X70357713Y-112574285D02*
X70310094Y-112669523D01*
X70310094Y-112669523D02*
X70214856Y-112764761D01*
X70214856Y-112764761D02*
X70071999Y-112812380D01*
X70071999Y-112812380D02*
X69976761Y-112812380D01*
X69976761Y-112812380D02*
X69833904Y-112764761D01*
X69833904Y-112764761D02*
X69786285Y-112717142D01*
X69786285Y-112717142D02*
X69786285Y-112383809D01*
X69786285Y-112383809D02*
X69976761Y-112383809D01*
X69167237Y-111812380D02*
X68976761Y-111812380D01*
X68976761Y-111812380D02*
X68881523Y-111860000D01*
X68881523Y-111860000D02*
X68786285Y-111955238D01*
X68786285Y-111955238D02*
X68738666Y-112145714D01*
X68738666Y-112145714D02*
X68738666Y-112479047D01*
X68738666Y-112479047D02*
X68786285Y-112669523D01*
X68786285Y-112669523D02*
X68881523Y-112764761D01*
X68881523Y-112764761D02*
X68976761Y-112812380D01*
X68976761Y-112812380D02*
X69167237Y-112812380D01*
X69167237Y-112812380D02*
X69262475Y-112764761D01*
X69262475Y-112764761D02*
X69357713Y-112669523D01*
X69357713Y-112669523D02*
X69405332Y-112479047D01*
X69405332Y-112479047D02*
X69405332Y-112145714D01*
X69405332Y-112145714D02*
X69357713Y-111955238D01*
X69357713Y-111955238D02*
X69262475Y-111860000D01*
X69262475Y-111860000D02*
X69167237Y-111812380D01*
X68310094Y-112812380D02*
X68310094Y-111812380D01*
X68310094Y-111812380D02*
X67738666Y-112812380D01*
X67738666Y-112812380D02*
X67738666Y-111812380D01*
X67262475Y-112288571D02*
X66929142Y-112288571D01*
X66786285Y-112812380D02*
X67262475Y-112812380D01*
X67262475Y-112812380D02*
X67262475Y-111812380D01*
X67262475Y-111812380D02*
X66786285Y-111812380D01*
X65757713Y-112812380D02*
X65757713Y-111812380D01*
X65757713Y-112288571D02*
X65186285Y-112288571D01*
X65186285Y-112812380D02*
X65186285Y-111812380D01*
X64519618Y-111812380D02*
X64329142Y-111812380D01*
X64329142Y-111812380D02*
X64233904Y-111860000D01*
X64233904Y-111860000D02*
X64138666Y-111955238D01*
X64138666Y-111955238D02*
X64091047Y-112145714D01*
X64091047Y-112145714D02*
X64091047Y-112479047D01*
X64091047Y-112479047D02*
X64138666Y-112669523D01*
X64138666Y-112669523D02*
X64233904Y-112764761D01*
X64233904Y-112764761D02*
X64329142Y-112812380D01*
X64329142Y-112812380D02*
X64519618Y-112812380D01*
X64519618Y-112812380D02*
X64614856Y-112764761D01*
X64614856Y-112764761D02*
X64710094Y-112669523D01*
X64710094Y-112669523D02*
X64757713Y-112479047D01*
X64757713Y-112479047D02*
X64757713Y-112145714D01*
X64757713Y-112145714D02*
X64710094Y-111955238D01*
X64710094Y-111955238D02*
X64614856Y-111860000D01*
X64614856Y-111860000D02*
X64519618Y-111812380D01*
X63091047Y-112812380D02*
X63424380Y-112336190D01*
X63662475Y-112812380D02*
X63662475Y-111812380D01*
X63662475Y-111812380D02*
X63281523Y-111812380D01*
X63281523Y-111812380D02*
X63186285Y-111860000D01*
X63186285Y-111860000D02*
X63138666Y-111907619D01*
X63138666Y-111907619D02*
X63091047Y-112002857D01*
X63091047Y-112002857D02*
X63091047Y-112145714D01*
X63091047Y-112145714D02*
X63138666Y-112240952D01*
X63138666Y-112240952D02*
X63186285Y-112288571D01*
X63186285Y-112288571D02*
X63281523Y-112336190D01*
X63281523Y-112336190D02*
X63662475Y-112336190D01*
X62662475Y-112812380D02*
X62662475Y-111812380D01*
X61852952Y-112288571D02*
X61710095Y-112336190D01*
X61710095Y-112336190D02*
X61662476Y-112383809D01*
X61662476Y-112383809D02*
X61614857Y-112479047D01*
X61614857Y-112479047D02*
X61614857Y-112621904D01*
X61614857Y-112621904D02*
X61662476Y-112717142D01*
X61662476Y-112717142D02*
X61710095Y-112764761D01*
X61710095Y-112764761D02*
X61805333Y-112812380D01*
X61805333Y-112812380D02*
X62186285Y-112812380D01*
X62186285Y-112812380D02*
X62186285Y-111812380D01*
X62186285Y-111812380D02*
X61852952Y-111812380D01*
X61852952Y-111812380D02*
X61757714Y-111860000D01*
X61757714Y-111860000D02*
X61710095Y-111907619D01*
X61710095Y-111907619D02*
X61662476Y-112002857D01*
X61662476Y-112002857D02*
X61662476Y-112098095D01*
X61662476Y-112098095D02*
X61710095Y-112193333D01*
X61710095Y-112193333D02*
X61757714Y-112240952D01*
X61757714Y-112240952D02*
X61852952Y-112288571D01*
X61852952Y-112288571D02*
X62186285Y-112288571D01*
X60710095Y-112812380D02*
X61186285Y-112812380D01*
X61186285Y-112812380D02*
X61186285Y-111812380D01*
X60186285Y-112336190D02*
X60186285Y-112812380D01*
X60519618Y-111812380D02*
X60186285Y-112336190D01*
X60186285Y-112336190D02*
X59852952Y-111812380D01*
X59014856Y-111812380D02*
X58776761Y-112812380D01*
X58776761Y-112812380D02*
X58586285Y-112098095D01*
X58586285Y-112098095D02*
X58395809Y-112812380D01*
X58395809Y-112812380D02*
X58157714Y-111812380D01*
X57205333Y-112812380D02*
X57538666Y-112336190D01*
X57776761Y-112812380D02*
X57776761Y-111812380D01*
X57776761Y-111812380D02*
X57395809Y-111812380D01*
X57395809Y-111812380D02*
X57300571Y-111860000D01*
X57300571Y-111860000D02*
X57252952Y-111907619D01*
X57252952Y-111907619D02*
X57205333Y-112002857D01*
X57205333Y-112002857D02*
X57205333Y-112145714D01*
X57205333Y-112145714D02*
X57252952Y-112240952D01*
X57252952Y-112240952D02*
X57300571Y-112288571D01*
X57300571Y-112288571D02*
X57395809Y-112336190D01*
X57395809Y-112336190D02*
X57776761Y-112336190D01*
X56586285Y-111812380D02*
X56395809Y-111812380D01*
X56395809Y-111812380D02*
X56300571Y-111860000D01*
X56300571Y-111860000D02*
X56205333Y-111955238D01*
X56205333Y-111955238D02*
X56157714Y-112145714D01*
X56157714Y-112145714D02*
X56157714Y-112479047D01*
X56157714Y-112479047D02*
X56205333Y-112669523D01*
X56205333Y-112669523D02*
X56300571Y-112764761D01*
X56300571Y-112764761D02*
X56395809Y-112812380D01*
X56395809Y-112812380D02*
X56586285Y-112812380D01*
X56586285Y-112812380D02*
X56681523Y-112764761D01*
X56681523Y-112764761D02*
X56776761Y-112669523D01*
X56776761Y-112669523D02*
X56824380Y-112479047D01*
X56824380Y-112479047D02*
X56824380Y-112145714D01*
X56824380Y-112145714D02*
X56776761Y-111955238D01*
X56776761Y-111955238D02*
X56681523Y-111860000D01*
X56681523Y-111860000D02*
X56586285Y-111812380D01*
X55729142Y-112812380D02*
X55729142Y-111812380D01*
X55729142Y-111812380D02*
X55157714Y-112812380D01*
X55157714Y-112812380D02*
X55157714Y-111812380D01*
X54157714Y-111860000D02*
X54252952Y-111812380D01*
X54252952Y-111812380D02*
X54395809Y-111812380D01*
X54395809Y-111812380D02*
X54538666Y-111860000D01*
X54538666Y-111860000D02*
X54633904Y-111955238D01*
X54633904Y-111955238D02*
X54681523Y-112050476D01*
X54681523Y-112050476D02*
X54729142Y-112240952D01*
X54729142Y-112240952D02*
X54729142Y-112383809D01*
X54729142Y-112383809D02*
X54681523Y-112574285D01*
X54681523Y-112574285D02*
X54633904Y-112669523D01*
X54633904Y-112669523D02*
X54538666Y-112764761D01*
X54538666Y-112764761D02*
X54395809Y-112812380D01*
X54395809Y-112812380D02*
X54300571Y-112812380D01*
X54300571Y-112812380D02*
X54157714Y-112764761D01*
X54157714Y-112764761D02*
X54110095Y-112717142D01*
X54110095Y-112717142D02*
X54110095Y-112383809D01*
X54110095Y-112383809D02*
X54300571Y-112383809D01*
%TO.C,Q7*%
X71215238Y-83520619D02*
X71310476Y-83473000D01*
X71310476Y-83473000D02*
X71405714Y-83377761D01*
X71405714Y-83377761D02*
X71548571Y-83234904D01*
X71548571Y-83234904D02*
X71643809Y-83187285D01*
X71643809Y-83187285D02*
X71739047Y-83187285D01*
X71691428Y-83425380D02*
X71786666Y-83377761D01*
X71786666Y-83377761D02*
X71881904Y-83282523D01*
X71881904Y-83282523D02*
X71929523Y-83092047D01*
X71929523Y-83092047D02*
X71929523Y-82758714D01*
X71929523Y-82758714D02*
X71881904Y-82568238D01*
X71881904Y-82568238D02*
X71786666Y-82473000D01*
X71786666Y-82473000D02*
X71691428Y-82425380D01*
X71691428Y-82425380D02*
X71500952Y-82425380D01*
X71500952Y-82425380D02*
X71405714Y-82473000D01*
X71405714Y-82473000D02*
X71310476Y-82568238D01*
X71310476Y-82568238D02*
X71262857Y-82758714D01*
X71262857Y-82758714D02*
X71262857Y-83092047D01*
X71262857Y-83092047D02*
X71310476Y-83282523D01*
X71310476Y-83282523D02*
X71405714Y-83377761D01*
X71405714Y-83377761D02*
X71500952Y-83425380D01*
X71500952Y-83425380D02*
X71691428Y-83425380D01*
X70929523Y-82425380D02*
X70262857Y-82425380D01*
X70262857Y-82425380D02*
X70691428Y-83425380D01*
%TO.C,Q4*%
X117189238Y-82787619D02*
X117284476Y-82740000D01*
X117284476Y-82740000D02*
X117379714Y-82644761D01*
X117379714Y-82644761D02*
X117522571Y-82501904D01*
X117522571Y-82501904D02*
X117617809Y-82454285D01*
X117617809Y-82454285D02*
X117713047Y-82454285D01*
X117665428Y-82692380D02*
X117760666Y-82644761D01*
X117760666Y-82644761D02*
X117855904Y-82549523D01*
X117855904Y-82549523D02*
X117903523Y-82359047D01*
X117903523Y-82359047D02*
X117903523Y-82025714D01*
X117903523Y-82025714D02*
X117855904Y-81835238D01*
X117855904Y-81835238D02*
X117760666Y-81740000D01*
X117760666Y-81740000D02*
X117665428Y-81692380D01*
X117665428Y-81692380D02*
X117474952Y-81692380D01*
X117474952Y-81692380D02*
X117379714Y-81740000D01*
X117379714Y-81740000D02*
X117284476Y-81835238D01*
X117284476Y-81835238D02*
X117236857Y-82025714D01*
X117236857Y-82025714D02*
X117236857Y-82359047D01*
X117236857Y-82359047D02*
X117284476Y-82549523D01*
X117284476Y-82549523D02*
X117379714Y-82644761D01*
X117379714Y-82644761D02*
X117474952Y-82692380D01*
X117474952Y-82692380D02*
X117665428Y-82692380D01*
X116379714Y-82025714D02*
X116379714Y-82692380D01*
X116617809Y-81644761D02*
X116855904Y-82359047D01*
X116855904Y-82359047D02*
X116236857Y-82359047D01*
%TO.C,Q9*%
X106521238Y-83520619D02*
X106616476Y-83473000D01*
X106616476Y-83473000D02*
X106711714Y-83377761D01*
X106711714Y-83377761D02*
X106854571Y-83234904D01*
X106854571Y-83234904D02*
X106949809Y-83187285D01*
X106949809Y-83187285D02*
X107045047Y-83187285D01*
X106997428Y-83425380D02*
X107092666Y-83377761D01*
X107092666Y-83377761D02*
X107187904Y-83282523D01*
X107187904Y-83282523D02*
X107235523Y-83092047D01*
X107235523Y-83092047D02*
X107235523Y-82758714D01*
X107235523Y-82758714D02*
X107187904Y-82568238D01*
X107187904Y-82568238D02*
X107092666Y-82473000D01*
X107092666Y-82473000D02*
X106997428Y-82425380D01*
X106997428Y-82425380D02*
X106806952Y-82425380D01*
X106806952Y-82425380D02*
X106711714Y-82473000D01*
X106711714Y-82473000D02*
X106616476Y-82568238D01*
X106616476Y-82568238D02*
X106568857Y-82758714D01*
X106568857Y-82758714D02*
X106568857Y-83092047D01*
X106568857Y-83092047D02*
X106616476Y-83282523D01*
X106616476Y-83282523D02*
X106711714Y-83377761D01*
X106711714Y-83377761D02*
X106806952Y-83425380D01*
X106806952Y-83425380D02*
X106997428Y-83425380D01*
X106092666Y-83425380D02*
X105902190Y-83425380D01*
X105902190Y-83425380D02*
X105806952Y-83377761D01*
X105806952Y-83377761D02*
X105759333Y-83330142D01*
X105759333Y-83330142D02*
X105664095Y-83187285D01*
X105664095Y-83187285D02*
X105616476Y-82996809D01*
X105616476Y-82996809D02*
X105616476Y-82615857D01*
X105616476Y-82615857D02*
X105664095Y-82520619D01*
X105664095Y-82520619D02*
X105711714Y-82473000D01*
X105711714Y-82473000D02*
X105806952Y-82425380D01*
X105806952Y-82425380D02*
X105997428Y-82425380D01*
X105997428Y-82425380D02*
X106092666Y-82473000D01*
X106092666Y-82473000D02*
X106140285Y-82520619D01*
X106140285Y-82520619D02*
X106187904Y-82615857D01*
X106187904Y-82615857D02*
X106187904Y-82853952D01*
X106187904Y-82853952D02*
X106140285Y-82949190D01*
X106140285Y-82949190D02*
X106092666Y-82996809D01*
X106092666Y-82996809D02*
X105997428Y-83044428D01*
X105997428Y-83044428D02*
X105806952Y-83044428D01*
X105806952Y-83044428D02*
X105711714Y-82996809D01*
X105711714Y-82996809D02*
X105664095Y-82949190D01*
X105664095Y-82949190D02*
X105616476Y-82853952D01*
%TO.C,Q5*%
X124555238Y-83266619D02*
X124650476Y-83219000D01*
X124650476Y-83219000D02*
X124745714Y-83123761D01*
X124745714Y-83123761D02*
X124888571Y-82980904D01*
X124888571Y-82980904D02*
X124983809Y-82933285D01*
X124983809Y-82933285D02*
X125079047Y-82933285D01*
X125031428Y-83171380D02*
X125126666Y-83123761D01*
X125126666Y-83123761D02*
X125221904Y-83028523D01*
X125221904Y-83028523D02*
X125269523Y-82838047D01*
X125269523Y-82838047D02*
X125269523Y-82504714D01*
X125269523Y-82504714D02*
X125221904Y-82314238D01*
X125221904Y-82314238D02*
X125126666Y-82219000D01*
X125126666Y-82219000D02*
X125031428Y-82171380D01*
X125031428Y-82171380D02*
X124840952Y-82171380D01*
X124840952Y-82171380D02*
X124745714Y-82219000D01*
X124745714Y-82219000D02*
X124650476Y-82314238D01*
X124650476Y-82314238D02*
X124602857Y-82504714D01*
X124602857Y-82504714D02*
X124602857Y-82838047D01*
X124602857Y-82838047D02*
X124650476Y-83028523D01*
X124650476Y-83028523D02*
X124745714Y-83123761D01*
X124745714Y-83123761D02*
X124840952Y-83171380D01*
X124840952Y-83171380D02*
X125031428Y-83171380D01*
X123698095Y-82171380D02*
X124174285Y-82171380D01*
X124174285Y-82171380D02*
X124221904Y-82647571D01*
X124221904Y-82647571D02*
X124174285Y-82599952D01*
X124174285Y-82599952D02*
X124079047Y-82552333D01*
X124079047Y-82552333D02*
X123840952Y-82552333D01*
X123840952Y-82552333D02*
X123745714Y-82599952D01*
X123745714Y-82599952D02*
X123698095Y-82647571D01*
X123698095Y-82647571D02*
X123650476Y-82742809D01*
X123650476Y-82742809D02*
X123650476Y-82980904D01*
X123650476Y-82980904D02*
X123698095Y-83076142D01*
X123698095Y-83076142D02*
X123745714Y-83123761D01*
X123745714Y-83123761D02*
X123840952Y-83171380D01*
X123840952Y-83171380D02*
X124079047Y-83171380D01*
X124079047Y-83171380D02*
X124174285Y-83123761D01*
X124174285Y-83123761D02*
X124221904Y-83076142D01*
%TO.C,Q10*%
X135445428Y-82787619D02*
X135540666Y-82740000D01*
X135540666Y-82740000D02*
X135635904Y-82644761D01*
X135635904Y-82644761D02*
X135778761Y-82501904D01*
X135778761Y-82501904D02*
X135873999Y-82454285D01*
X135873999Y-82454285D02*
X135969237Y-82454285D01*
X135921618Y-82692380D02*
X136016856Y-82644761D01*
X136016856Y-82644761D02*
X136112094Y-82549523D01*
X136112094Y-82549523D02*
X136159713Y-82359047D01*
X136159713Y-82359047D02*
X136159713Y-82025714D01*
X136159713Y-82025714D02*
X136112094Y-81835238D01*
X136112094Y-81835238D02*
X136016856Y-81740000D01*
X136016856Y-81740000D02*
X135921618Y-81692380D01*
X135921618Y-81692380D02*
X135731142Y-81692380D01*
X135731142Y-81692380D02*
X135635904Y-81740000D01*
X135635904Y-81740000D02*
X135540666Y-81835238D01*
X135540666Y-81835238D02*
X135493047Y-82025714D01*
X135493047Y-82025714D02*
X135493047Y-82359047D01*
X135493047Y-82359047D02*
X135540666Y-82549523D01*
X135540666Y-82549523D02*
X135635904Y-82644761D01*
X135635904Y-82644761D02*
X135731142Y-82692380D01*
X135731142Y-82692380D02*
X135921618Y-82692380D01*
X134540666Y-82692380D02*
X135112094Y-82692380D01*
X134826380Y-82692380D02*
X134826380Y-81692380D01*
X134826380Y-81692380D02*
X134921618Y-81835238D01*
X134921618Y-81835238D02*
X135016856Y-81930476D01*
X135016856Y-81930476D02*
X135112094Y-81978095D01*
X133921618Y-81692380D02*
X133826380Y-81692380D01*
X133826380Y-81692380D02*
X133731142Y-81740000D01*
X133731142Y-81740000D02*
X133683523Y-81787619D01*
X133683523Y-81787619D02*
X133635904Y-81882857D01*
X133635904Y-81882857D02*
X133588285Y-82073333D01*
X133588285Y-82073333D02*
X133588285Y-82311428D01*
X133588285Y-82311428D02*
X133635904Y-82501904D01*
X133635904Y-82501904D02*
X133683523Y-82597142D01*
X133683523Y-82597142D02*
X133731142Y-82644761D01*
X133731142Y-82644761D02*
X133826380Y-82692380D01*
X133826380Y-82692380D02*
X133921618Y-82692380D01*
X133921618Y-82692380D02*
X134016856Y-82644761D01*
X134016856Y-82644761D02*
X134064475Y-82597142D01*
X134064475Y-82597142D02*
X134112094Y-82501904D01*
X134112094Y-82501904D02*
X134159713Y-82311428D01*
X134159713Y-82311428D02*
X134159713Y-82073333D01*
X134159713Y-82073333D02*
X134112094Y-81882857D01*
X134112094Y-81882857D02*
X134064475Y-81787619D01*
X134064475Y-81787619D02*
X134016856Y-81740000D01*
X134016856Y-81740000D02*
X133921618Y-81692380D01*
%TO.C,Q6*%
X64103238Y-82758619D02*
X64198476Y-82711000D01*
X64198476Y-82711000D02*
X64293714Y-82615761D01*
X64293714Y-82615761D02*
X64436571Y-82472904D01*
X64436571Y-82472904D02*
X64531809Y-82425285D01*
X64531809Y-82425285D02*
X64627047Y-82425285D01*
X64579428Y-82663380D02*
X64674666Y-82615761D01*
X64674666Y-82615761D02*
X64769904Y-82520523D01*
X64769904Y-82520523D02*
X64817523Y-82330047D01*
X64817523Y-82330047D02*
X64817523Y-81996714D01*
X64817523Y-81996714D02*
X64769904Y-81806238D01*
X64769904Y-81806238D02*
X64674666Y-81711000D01*
X64674666Y-81711000D02*
X64579428Y-81663380D01*
X64579428Y-81663380D02*
X64388952Y-81663380D01*
X64388952Y-81663380D02*
X64293714Y-81711000D01*
X64293714Y-81711000D02*
X64198476Y-81806238D01*
X64198476Y-81806238D02*
X64150857Y-81996714D01*
X64150857Y-81996714D02*
X64150857Y-82330047D01*
X64150857Y-82330047D02*
X64198476Y-82520523D01*
X64198476Y-82520523D02*
X64293714Y-82615761D01*
X64293714Y-82615761D02*
X64388952Y-82663380D01*
X64388952Y-82663380D02*
X64579428Y-82663380D01*
X63293714Y-81663380D02*
X63484190Y-81663380D01*
X63484190Y-81663380D02*
X63579428Y-81711000D01*
X63579428Y-81711000D02*
X63627047Y-81758619D01*
X63627047Y-81758619D02*
X63722285Y-81901476D01*
X63722285Y-81901476D02*
X63769904Y-82091952D01*
X63769904Y-82091952D02*
X63769904Y-82472904D01*
X63769904Y-82472904D02*
X63722285Y-82568142D01*
X63722285Y-82568142D02*
X63674666Y-82615761D01*
X63674666Y-82615761D02*
X63579428Y-82663380D01*
X63579428Y-82663380D02*
X63388952Y-82663380D01*
X63388952Y-82663380D02*
X63293714Y-82615761D01*
X63293714Y-82615761D02*
X63246095Y-82568142D01*
X63246095Y-82568142D02*
X63198476Y-82472904D01*
X63198476Y-82472904D02*
X63198476Y-82234809D01*
X63198476Y-82234809D02*
X63246095Y-82139571D01*
X63246095Y-82139571D02*
X63293714Y-82091952D01*
X63293714Y-82091952D02*
X63388952Y-82044333D01*
X63388952Y-82044333D02*
X63579428Y-82044333D01*
X63579428Y-82044333D02*
X63674666Y-82091952D01*
X63674666Y-82091952D02*
X63722285Y-82139571D01*
X63722285Y-82139571D02*
X63769904Y-82234809D01*
%TO.C,Q1*%
X53181238Y-83266619D02*
X53276476Y-83219000D01*
X53276476Y-83219000D02*
X53371714Y-83123761D01*
X53371714Y-83123761D02*
X53514571Y-82980904D01*
X53514571Y-82980904D02*
X53609809Y-82933285D01*
X53609809Y-82933285D02*
X53705047Y-82933285D01*
X53657428Y-83171380D02*
X53752666Y-83123761D01*
X53752666Y-83123761D02*
X53847904Y-83028523D01*
X53847904Y-83028523D02*
X53895523Y-82838047D01*
X53895523Y-82838047D02*
X53895523Y-82504714D01*
X53895523Y-82504714D02*
X53847904Y-82314238D01*
X53847904Y-82314238D02*
X53752666Y-82219000D01*
X53752666Y-82219000D02*
X53657428Y-82171380D01*
X53657428Y-82171380D02*
X53466952Y-82171380D01*
X53466952Y-82171380D02*
X53371714Y-82219000D01*
X53371714Y-82219000D02*
X53276476Y-82314238D01*
X53276476Y-82314238D02*
X53228857Y-82504714D01*
X53228857Y-82504714D02*
X53228857Y-82838047D01*
X53228857Y-82838047D02*
X53276476Y-83028523D01*
X53276476Y-83028523D02*
X53371714Y-83123761D01*
X53371714Y-83123761D02*
X53466952Y-83171380D01*
X53466952Y-83171380D02*
X53657428Y-83171380D01*
X52276476Y-83171380D02*
X52847904Y-83171380D01*
X52562190Y-83171380D02*
X52562190Y-82171380D01*
X52562190Y-82171380D02*
X52657428Y-82314238D01*
X52657428Y-82314238D02*
X52752666Y-82409476D01*
X52752666Y-82409476D02*
X52847904Y-82457095D01*
%TO.C,Q8*%
X99409238Y-82758619D02*
X99504476Y-82711000D01*
X99504476Y-82711000D02*
X99599714Y-82615761D01*
X99599714Y-82615761D02*
X99742571Y-82472904D01*
X99742571Y-82472904D02*
X99837809Y-82425285D01*
X99837809Y-82425285D02*
X99933047Y-82425285D01*
X99885428Y-82663380D02*
X99980666Y-82615761D01*
X99980666Y-82615761D02*
X100075904Y-82520523D01*
X100075904Y-82520523D02*
X100123523Y-82330047D01*
X100123523Y-82330047D02*
X100123523Y-81996714D01*
X100123523Y-81996714D02*
X100075904Y-81806238D01*
X100075904Y-81806238D02*
X99980666Y-81711000D01*
X99980666Y-81711000D02*
X99885428Y-81663380D01*
X99885428Y-81663380D02*
X99694952Y-81663380D01*
X99694952Y-81663380D02*
X99599714Y-81711000D01*
X99599714Y-81711000D02*
X99504476Y-81806238D01*
X99504476Y-81806238D02*
X99456857Y-81996714D01*
X99456857Y-81996714D02*
X99456857Y-82330047D01*
X99456857Y-82330047D02*
X99504476Y-82520523D01*
X99504476Y-82520523D02*
X99599714Y-82615761D01*
X99599714Y-82615761D02*
X99694952Y-82663380D01*
X99694952Y-82663380D02*
X99885428Y-82663380D01*
X98885428Y-82091952D02*
X98980666Y-82044333D01*
X98980666Y-82044333D02*
X99028285Y-81996714D01*
X99028285Y-81996714D02*
X99075904Y-81901476D01*
X99075904Y-81901476D02*
X99075904Y-81853857D01*
X99075904Y-81853857D02*
X99028285Y-81758619D01*
X99028285Y-81758619D02*
X98980666Y-81711000D01*
X98980666Y-81711000D02*
X98885428Y-81663380D01*
X98885428Y-81663380D02*
X98694952Y-81663380D01*
X98694952Y-81663380D02*
X98599714Y-81711000D01*
X98599714Y-81711000D02*
X98552095Y-81758619D01*
X98552095Y-81758619D02*
X98504476Y-81853857D01*
X98504476Y-81853857D02*
X98504476Y-81901476D01*
X98504476Y-81901476D02*
X98552095Y-81996714D01*
X98552095Y-81996714D02*
X98599714Y-82044333D01*
X98599714Y-82044333D02*
X98694952Y-82091952D01*
X98694952Y-82091952D02*
X98885428Y-82091952D01*
X98885428Y-82091952D02*
X98980666Y-82139571D01*
X98980666Y-82139571D02*
X99028285Y-82187190D01*
X99028285Y-82187190D02*
X99075904Y-82282428D01*
X99075904Y-82282428D02*
X99075904Y-82472904D01*
X99075904Y-82472904D02*
X99028285Y-82568142D01*
X99028285Y-82568142D02*
X98980666Y-82615761D01*
X98980666Y-82615761D02*
X98885428Y-82663380D01*
X98885428Y-82663380D02*
X98694952Y-82663380D01*
X98694952Y-82663380D02*
X98599714Y-82615761D01*
X98599714Y-82615761D02*
X98552095Y-82568142D01*
X98552095Y-82568142D02*
X98504476Y-82472904D01*
X98504476Y-82472904D02*
X98504476Y-82282428D01*
X98504476Y-82282428D02*
X98552095Y-82187190D01*
X98552095Y-82187190D02*
X98599714Y-82139571D01*
X98599714Y-82139571D02*
X98694952Y-82091952D01*
%TO.C,Q2*%
X81629238Y-82787619D02*
X81724476Y-82740000D01*
X81724476Y-82740000D02*
X81819714Y-82644761D01*
X81819714Y-82644761D02*
X81962571Y-82501904D01*
X81962571Y-82501904D02*
X82057809Y-82454285D01*
X82057809Y-82454285D02*
X82153047Y-82454285D01*
X82105428Y-82692380D02*
X82200666Y-82644761D01*
X82200666Y-82644761D02*
X82295904Y-82549523D01*
X82295904Y-82549523D02*
X82343523Y-82359047D01*
X82343523Y-82359047D02*
X82343523Y-82025714D01*
X82343523Y-82025714D02*
X82295904Y-81835238D01*
X82295904Y-81835238D02*
X82200666Y-81740000D01*
X82200666Y-81740000D02*
X82105428Y-81692380D01*
X82105428Y-81692380D02*
X81914952Y-81692380D01*
X81914952Y-81692380D02*
X81819714Y-81740000D01*
X81819714Y-81740000D02*
X81724476Y-81835238D01*
X81724476Y-81835238D02*
X81676857Y-82025714D01*
X81676857Y-82025714D02*
X81676857Y-82359047D01*
X81676857Y-82359047D02*
X81724476Y-82549523D01*
X81724476Y-82549523D02*
X81819714Y-82644761D01*
X81819714Y-82644761D02*
X81914952Y-82692380D01*
X81914952Y-82692380D02*
X82105428Y-82692380D01*
X81295904Y-81787619D02*
X81248285Y-81740000D01*
X81248285Y-81740000D02*
X81153047Y-81692380D01*
X81153047Y-81692380D02*
X80914952Y-81692380D01*
X80914952Y-81692380D02*
X80819714Y-81740000D01*
X80819714Y-81740000D02*
X80772095Y-81787619D01*
X80772095Y-81787619D02*
X80724476Y-81882857D01*
X80724476Y-81882857D02*
X80724476Y-81978095D01*
X80724476Y-81978095D02*
X80772095Y-82120952D01*
X80772095Y-82120952D02*
X81343523Y-82692380D01*
X81343523Y-82692380D02*
X80724476Y-82692380D01*
%TO.C,Q3*%
X88741238Y-83520619D02*
X88836476Y-83473000D01*
X88836476Y-83473000D02*
X88931714Y-83377761D01*
X88931714Y-83377761D02*
X89074571Y-83234904D01*
X89074571Y-83234904D02*
X89169809Y-83187285D01*
X89169809Y-83187285D02*
X89265047Y-83187285D01*
X89217428Y-83425380D02*
X89312666Y-83377761D01*
X89312666Y-83377761D02*
X89407904Y-83282523D01*
X89407904Y-83282523D02*
X89455523Y-83092047D01*
X89455523Y-83092047D02*
X89455523Y-82758714D01*
X89455523Y-82758714D02*
X89407904Y-82568238D01*
X89407904Y-82568238D02*
X89312666Y-82473000D01*
X89312666Y-82473000D02*
X89217428Y-82425380D01*
X89217428Y-82425380D02*
X89026952Y-82425380D01*
X89026952Y-82425380D02*
X88931714Y-82473000D01*
X88931714Y-82473000D02*
X88836476Y-82568238D01*
X88836476Y-82568238D02*
X88788857Y-82758714D01*
X88788857Y-82758714D02*
X88788857Y-83092047D01*
X88788857Y-83092047D02*
X88836476Y-83282523D01*
X88836476Y-83282523D02*
X88931714Y-83377761D01*
X88931714Y-83377761D02*
X89026952Y-83425380D01*
X89026952Y-83425380D02*
X89217428Y-83425380D01*
X88455523Y-82425380D02*
X87836476Y-82425380D01*
X87836476Y-82425380D02*
X88169809Y-82806333D01*
X88169809Y-82806333D02*
X88026952Y-82806333D01*
X88026952Y-82806333D02*
X87931714Y-82853952D01*
X87931714Y-82853952D02*
X87884095Y-82901571D01*
X87884095Y-82901571D02*
X87836476Y-82996809D01*
X87836476Y-82996809D02*
X87836476Y-83234904D01*
X87836476Y-83234904D02*
X87884095Y-83330142D01*
X87884095Y-83330142D02*
X87931714Y-83377761D01*
X87931714Y-83377761D02*
X88026952Y-83425380D01*
X88026952Y-83425380D02*
X88312666Y-83425380D01*
X88312666Y-83425380D02*
X88407904Y-83377761D01*
X88407904Y-83377761D02*
X88455523Y-83330142D01*
D11*
%TO.C,Q7*%
X68330000Y-83775000D02*
X69530000Y-83775000D01*
X68330000Y-84235000D02*
X68330000Y-83775000D01*
X68330000Y-84475000D02*
X84070000Y-84475000D01*
X68330000Y-104015000D02*
X68330000Y-84475000D01*
X68330000Y-104015000D02*
X84070000Y-104015000D01*
X70729000Y-83775000D02*
X71930000Y-83775000D01*
X70750000Y-104495000D02*
X70750000Y-104015000D01*
X73130000Y-83775000D02*
X74330000Y-83775000D01*
X75530000Y-83775000D02*
X76730000Y-83775000D01*
X76200000Y-104495000D02*
X76200000Y-104015000D01*
X77930000Y-83775000D02*
X79130000Y-83775000D01*
X80330000Y-83775000D02*
X81530000Y-83775000D01*
X81650000Y-104495000D02*
X81650000Y-104015000D01*
X82730000Y-83775000D02*
X83930000Y-83775000D01*
X84070000Y-84235000D02*
X84070000Y-83775000D01*
X84070000Y-104015000D02*
X84070000Y-84475000D01*
%TO.C,Q4*%
X119630000Y-81325000D02*
X118430000Y-81325000D01*
X119630000Y-80865000D02*
X119630000Y-81325000D01*
X119630000Y-80625000D02*
X103890000Y-80625000D01*
X119630000Y-61085000D02*
X119630000Y-80625000D01*
X119630000Y-61085000D02*
X103890000Y-61085000D01*
X117231000Y-81325000D02*
X116030000Y-81325000D01*
X117210000Y-60605000D02*
X117210000Y-61085000D01*
X114830000Y-81325000D02*
X113630000Y-81325000D01*
X112430000Y-81325000D02*
X111230000Y-81325000D01*
X111760000Y-60605000D02*
X111760000Y-61085000D01*
X110030000Y-81325000D02*
X108830000Y-81325000D01*
X107630000Y-81325000D02*
X106430000Y-81325000D01*
X106310000Y-60605000D02*
X106310000Y-61085000D01*
X105230000Y-81325000D02*
X104030000Y-81325000D01*
X103890000Y-80865000D02*
X103890000Y-81325000D01*
X103890000Y-61085000D02*
X103890000Y-80625000D01*
%TO.C,Q9*%
X103890000Y-83775000D02*
X105090000Y-83775000D01*
X103890000Y-84235000D02*
X103890000Y-83775000D01*
X103890000Y-84475000D02*
X119630000Y-84475000D01*
X103890000Y-104015000D02*
X103890000Y-84475000D01*
X103890000Y-104015000D02*
X119630000Y-104015000D01*
X106289000Y-83775000D02*
X107490000Y-83775000D01*
X106310000Y-104495000D02*
X106310000Y-104015000D01*
X108690000Y-83775000D02*
X109890000Y-83775000D01*
X111090000Y-83775000D02*
X112290000Y-83775000D01*
X111760000Y-104495000D02*
X111760000Y-104015000D01*
X113490000Y-83775000D02*
X114690000Y-83775000D01*
X115890000Y-83775000D02*
X117090000Y-83775000D01*
X117210000Y-104495000D02*
X117210000Y-104015000D01*
X118290000Y-83775000D02*
X119490000Y-83775000D01*
X119630000Y-84235000D02*
X119630000Y-83775000D01*
X119630000Y-104015000D02*
X119630000Y-84475000D01*
%TO.C,Q5*%
X121786000Y-83560000D02*
X122986000Y-83560000D01*
X121786000Y-84020000D02*
X121786000Y-83560000D01*
X121786000Y-84260000D02*
X137526000Y-84260000D01*
X121786000Y-103800000D02*
X121786000Y-84260000D01*
X121786000Y-103800000D02*
X137526000Y-103800000D01*
X124185000Y-83560000D02*
X125386000Y-83560000D01*
X124206000Y-104280000D02*
X124206000Y-103800000D01*
X126586000Y-83560000D02*
X127786000Y-83560000D01*
X128986000Y-83560000D02*
X130186000Y-83560000D01*
X129656000Y-104280000D02*
X129656000Y-103800000D01*
X131386000Y-83560000D02*
X132586000Y-83560000D01*
X133786000Y-83560000D02*
X134986000Y-83560000D01*
X135106000Y-104280000D02*
X135106000Y-103800000D01*
X136186000Y-83560000D02*
X137386000Y-83560000D01*
X137526000Y-84020000D02*
X137526000Y-83560000D01*
X137526000Y-103800000D02*
X137526000Y-84260000D01*
%TO.C,Q10*%
X137410000Y-81325000D02*
X136210000Y-81325000D01*
X137410000Y-80865000D02*
X137410000Y-81325000D01*
X137410000Y-80625000D02*
X121670000Y-80625000D01*
X137410000Y-61085000D02*
X137410000Y-80625000D01*
X137410000Y-61085000D02*
X121670000Y-61085000D01*
X135011000Y-81325000D02*
X133810000Y-81325000D01*
X134990000Y-60605000D02*
X134990000Y-61085000D01*
X132610000Y-81325000D02*
X131410000Y-81325000D01*
X130210000Y-81325000D02*
X129010000Y-81325000D01*
X129540000Y-60605000D02*
X129540000Y-61085000D01*
X127810000Y-81325000D02*
X126610000Y-81325000D01*
X125410000Y-81325000D02*
X124210000Y-81325000D01*
X124090000Y-60605000D02*
X124090000Y-61085000D01*
X123010000Y-81325000D02*
X121810000Y-81325000D01*
X121670000Y-80865000D02*
X121670000Y-81325000D01*
X121670000Y-61085000D02*
X121670000Y-80625000D01*
%TO.C,Q6*%
X66290000Y-81325000D02*
X65090000Y-81325000D01*
X66290000Y-80865000D02*
X66290000Y-81325000D01*
X66290000Y-80625000D02*
X50550000Y-80625000D01*
X66290000Y-61085000D02*
X66290000Y-80625000D01*
X66290000Y-61085000D02*
X50550000Y-61085000D01*
X63891000Y-81325000D02*
X62690000Y-81325000D01*
X63870000Y-60605000D02*
X63870000Y-61085000D01*
X61490000Y-81325000D02*
X60290000Y-81325000D01*
X59090000Y-81325000D02*
X57890000Y-81325000D01*
X58420000Y-60605000D02*
X58420000Y-61085000D01*
X56690000Y-81325000D02*
X55490000Y-81325000D01*
X54290000Y-81325000D02*
X53090000Y-81325000D01*
X52970000Y-60605000D02*
X52970000Y-61085000D01*
X51890000Y-81325000D02*
X50690000Y-81325000D01*
X50550000Y-80865000D02*
X50550000Y-81325000D01*
X50550000Y-61085000D02*
X50550000Y-80625000D01*
%TO.C,Q1*%
X50550000Y-83775000D02*
X51750000Y-83775000D01*
X50550000Y-84235000D02*
X50550000Y-83775000D01*
X50550000Y-84475000D02*
X66290000Y-84475000D01*
X50550000Y-104015000D02*
X50550000Y-84475000D01*
X50550000Y-104015000D02*
X66290000Y-104015000D01*
X52949000Y-83775000D02*
X54150000Y-83775000D01*
X52970000Y-104495000D02*
X52970000Y-104015000D01*
X55350000Y-83775000D02*
X56550000Y-83775000D01*
X57750000Y-83775000D02*
X58950000Y-83775000D01*
X58420000Y-104495000D02*
X58420000Y-104015000D01*
X60150000Y-83775000D02*
X61350000Y-83775000D01*
X62550000Y-83775000D02*
X63750000Y-83775000D01*
X63870000Y-104495000D02*
X63870000Y-104015000D01*
X64950000Y-83775000D02*
X66150000Y-83775000D01*
X66290000Y-84235000D02*
X66290000Y-83775000D01*
X66290000Y-104015000D02*
X66290000Y-84475000D01*
%TO.C,Q8*%
X101850000Y-81325000D02*
X100650000Y-81325000D01*
X101850000Y-80865000D02*
X101850000Y-81325000D01*
X101850000Y-80625000D02*
X86110000Y-80625000D01*
X101850000Y-61085000D02*
X101850000Y-80625000D01*
X101850000Y-61085000D02*
X86110000Y-61085000D01*
X99451000Y-81325000D02*
X98250000Y-81325000D01*
X99430000Y-60605000D02*
X99430000Y-61085000D01*
X97050000Y-81325000D02*
X95850000Y-81325000D01*
X94650000Y-81325000D02*
X93450000Y-81325000D01*
X93980000Y-60605000D02*
X93980000Y-61085000D01*
X92250000Y-81325000D02*
X91050000Y-81325000D01*
X89850000Y-81325000D02*
X88650000Y-81325000D01*
X88530000Y-60605000D02*
X88530000Y-61085000D01*
X87450000Y-81325000D02*
X86250000Y-81325000D01*
X86110000Y-80865000D02*
X86110000Y-81325000D01*
X86110000Y-61085000D02*
X86110000Y-80625000D01*
%TO.C,Q2*%
X84070000Y-81325000D02*
X82870000Y-81325000D01*
X84070000Y-80865000D02*
X84070000Y-81325000D01*
X84070000Y-80625000D02*
X68330000Y-80625000D01*
X84070000Y-61085000D02*
X84070000Y-80625000D01*
X84070000Y-61085000D02*
X68330000Y-61085000D01*
X81671000Y-81325000D02*
X80470000Y-81325000D01*
X81650000Y-60605000D02*
X81650000Y-61085000D01*
X79270000Y-81325000D02*
X78070000Y-81325000D01*
X76870000Y-81325000D02*
X75670000Y-81325000D01*
X76200000Y-60605000D02*
X76200000Y-61085000D01*
X74470000Y-81325000D02*
X73270000Y-81325000D01*
X72070000Y-81325000D02*
X70870000Y-81325000D01*
X70750000Y-60605000D02*
X70750000Y-61085000D01*
X69670000Y-81325000D02*
X68470000Y-81325000D01*
X68330000Y-80865000D02*
X68330000Y-81325000D01*
X68330000Y-61085000D02*
X68330000Y-80625000D01*
%TO.C,Q3*%
X86110000Y-83775000D02*
X87310000Y-83775000D01*
X86110000Y-84235000D02*
X86110000Y-83775000D01*
X86110000Y-84475000D02*
X101850000Y-84475000D01*
X86110000Y-104015000D02*
X86110000Y-84475000D01*
X86110000Y-104015000D02*
X101850000Y-104015000D01*
X88509000Y-83775000D02*
X89710000Y-83775000D01*
X88530000Y-104495000D02*
X88530000Y-104015000D01*
X90910000Y-83775000D02*
X92110000Y-83775000D01*
X93310000Y-83775000D02*
X94510000Y-83775000D01*
X93980000Y-104495000D02*
X93980000Y-104015000D01*
X95710000Y-83775000D02*
X96910000Y-83775000D01*
X98110000Y-83775000D02*
X99310000Y-83775000D01*
X99430000Y-104495000D02*
X99430000Y-104015000D01*
X100510000Y-83775000D02*
X101710000Y-83775000D01*
X101850000Y-84235000D02*
X101850000Y-83775000D01*
X101850000Y-104015000D02*
X101850000Y-84475000D01*
%TD*%
M02*
