M48
; DRILL file {KiCad (6.99.0-3568-gdcfcfd5f29)} date Tue Oct  4 16:24:15 2022
; FORMAT={-:-/ absolute / inch / decimal}
; #@! TF.CreationDate,2022-10-04T16:24:15+03:00
; #@! TF.GenerationSoftware,Kicad,Pcbnew,(6.99.0-3568-gdcfcfd5f29)
; #@! TF.FileFunction,Plated,1,2,PTH
FMAT,2
INCH
; #@! TA.AperFunction,Plated,PTH,ViaDrill
T1C0.0157
; #@! TA.AperFunction,Plated,PTH,ComponentDrill
T2C0.0276
; #@! TA.AperFunction,Plated,PTH,ComponentDrill
T3C0.0394
; #@! TA.AperFunction,Plated,PTH,ComponentDrill
T4C0.0551
; #@! TA.AperFunction,Plated,PTH,ComponentDrill
T5C0.0591
; #@! TA.AperFunction,Plated,PTH,ComponentDrill
T6C0.1969
%
G90
G05
T1
X2.0Y-2.5
X2.0Y-2.58
X2.0Y-2.65
X2.0Y-3.11
X2.0Y-3.18
X2.0Y-3.3
X2.0Y-3.42
X2.0Y-3.48
X2.0Y-3.61
X2.03Y-3.52
X2.05Y-2.47
X2.08Y-3.21
X2.12Y-3.61
X2.14Y-2.47
X2.1412Y-2.8412
X2.15Y-2.74
X2.17Y-2.51
X2.18Y-3.22
X2.2Y-2.6
X2.21Y-2.55
X2.25Y-3.26
X2.26Y-3.61
X2.3Y-2.64
X2.34Y-3.23
X2.34Y-3.28
X2.39Y-3.61
X2.44Y-3.28
X2.46Y-3.1
X2.49Y-3.61
X2.56Y-3.1008
X2.58Y-3.43
X2.6Y-3.07
X2.62Y-2.8
X2.63Y-3.56
X2.63Y-3.61
X2.69Y-2.8
X2.72Y-3.61
X2.82Y-2.84
X2.84Y-3.61
X2.85Y-2.92
X2.86Y-3.59
X2.89Y-3.39
X2.89Y-3.45
X2.89Y-3.5
X2.89Y-3.55
X2.9Y-2.97
X2.9Y-3.07
X2.93Y-3.35
X2.97Y-3.14
X2.97Y-3.23
X2.97Y-3.31
X3.0Y-2.88
T2
X3.172Y-3.5
X3.272Y-3.5
X3.432Y-3.5
X3.532Y-3.5
X3.932Y-3.5
X4.032Y-3.5
T3
X2.081Y-2.5412
X2.081Y-2.6412
X2.081Y-2.7412
X2.081Y-2.8412
X2.081Y-2.9412
X3.22Y-2.9831
X3.22Y-3.3769
X3.48Y-2.9831
X3.48Y-3.3769
X3.98Y-2.9731
X3.98Y-3.3669
T4
X4.2Y-3.0
X4.2Y-3.5
X4.62Y-3.0
X4.62Y-3.5
X4.91Y-3.0
X4.91Y-3.5
T5
X2.0854Y-2.2915
X2.0854Y-4.2085
X2.3Y-2.2915
X2.3Y-4.2085
X2.5146Y-2.2915
X2.5146Y-4.2085
X2.7854Y-2.2915
X2.7854Y-4.2085
X3.0Y-2.2915
X3.0Y-4.2085
X3.2146Y-2.2915
X3.2146Y-4.2085
X3.4854Y-2.2915
X3.4854Y-4.2085
X3.7Y-2.2915
X3.7Y-4.2085
X3.9146Y-2.2915
X3.9146Y-4.2085
X4.1854Y-2.2915
X4.1854Y-4.2085
X4.4Y-2.2915
X4.4Y-4.2085
X4.6146Y-2.2915
X4.6146Y-4.2085
X4.8854Y-2.2915
X4.89Y-4.2
X5.1Y-2.2915
X5.1046Y-4.2
X5.3146Y-2.2915
X5.3191Y-4.2
T6
X5.69Y-2.5
X5.7Y-3.2
X5.7Y-4.0
T0
M30
