%TF.GenerationSoftware,KiCad,Pcbnew,(6.99.0-3568-gdcfcfd5f29)*%
%TF.CreationDate,2022-10-04T16:24:13+03:00*%
%TF.ProjectId,welder ac diy,77656c64-6572-4206-9163-206469792e6b,rev?*%
%TF.SameCoordinates,Original*%
%TF.FileFunction,Soldermask,Top*%
%TF.FilePolarity,Negative*%
%FSLAX46Y46*%
G04 Gerber Fmt 4.6, Leading zero omitted, Abs format (unit mm)*
G04 Created by KiCad (PCBNEW (6.99.0-3568-gdcfcfd5f29)) date 2022-10-04 16:24:13*
%MOMM*%
%LPD*%
G01*
G04 APERTURE LIST*
G04 Aperture macros list*
%AMRoundRect*
0 Rectangle with rounded corners*
0 $1 Rounding radius*
0 $2 $3 $4 $5 $6 $7 $8 $9 X,Y pos of 4 corners*
0 Add a 4 corners polygon primitive as box body*
4,1,4,$2,$3,$4,$5,$6,$7,$8,$9,$2,$3,0*
0 Add four circle primitives for the rounded corners*
1,1,$1+$1,$2,$3*
1,1,$1+$1,$4,$5*
1,1,$1+$1,$6,$7*
1,1,$1+$1,$8,$9*
0 Add four rect primitives between the rounded corners*
20,1,$1+$1,$2,$3,$4,$5,0*
20,1,$1+$1,$4,$5,$6,$7,0*
20,1,$1+$1,$6,$7,$8,$9,0*
20,1,$1+$1,$8,$9,$2,$3,0*%
G04 Aperture macros list end*
%ADD10C,6.500000*%
%ADD11C,3.500000*%
%ADD12C,7.000000*%
%ADD13RoundRect,0.150000X0.150000X-0.825000X0.150000X0.825000X-0.150000X0.825000X-0.150000X-0.825000X0*%
%ADD14RoundRect,0.250000X-0.550000X1.250000X-0.550000X-1.250000X0.550000X-1.250000X0.550000X1.250000X0*%
%ADD15C,6.000000*%
%ADD16RoundRect,0.250000X0.450000X-0.262500X0.450000X0.262500X-0.450000X0.262500X-0.450000X-0.262500X0*%
%ADD17RoundRect,0.250000X-0.450000X0.262500X-0.450000X-0.262500X0.450000X-0.262500X0.450000X0.262500X0*%
%ADD18C,2.000000*%
%ADD19RoundRect,0.250000X-0.475000X0.250000X-0.475000X-0.250000X0.475000X-0.250000X0.475000X0.250000X0*%
%ADD20R,1.700000X1.700000*%
%ADD21O,1.700000X1.700000*%
%ADD22R,2.800000X2.800000*%
%ADD23O,2.800000X2.800000*%
%ADD24R,2.700000X1.500000*%
%ADD25RoundRect,0.250000X-0.262500X-0.450000X0.262500X-0.450000X0.262500X0.450000X-0.262500X0.450000X0*%
%ADD26RoundRect,0.250000X0.262500X0.450000X-0.262500X0.450000X-0.262500X-0.450000X0.262500X-0.450000X0*%
%ADD27RoundRect,0.250000X-0.250000X-0.475000X0.250000X-0.475000X0.250000X0.475000X-0.250000X0.475000X0*%
%ADD28RoundRect,0.250000X1.250000X0.550000X-1.250000X0.550000X-1.250000X-0.550000X1.250000X-0.550000X0*%
%ADD29RoundRect,0.150000X0.150000X-0.675000X0.150000X0.675000X-0.150000X0.675000X-0.150000X-0.675000X0*%
%ADD30R,1.500000X2.700000*%
%ADD31C,1.400000*%
%ADD32O,1.400000X1.400000*%
%ADD33O,3.400000X3.400000*%
%ADD34R,2.500000X4.500000*%
%ADD35O,2.500000X4.500000*%
G04 APERTURE END LIST*
D10*
X73406000Y-67056000D02*
X139192000Y-67056000D01*
D11*
X70612000Y-57658000D02*
X70612000Y-65786000D01*
D12*
X146304000Y-96774000D02*
X146304000Y-104140000D01*
D11*
X76200000Y-106934000D02*
X76200000Y-96520000D01*
D12*
X142240000Y-104394000D02*
X146304000Y-104394000D01*
X142240000Y-96774000D02*
X142240000Y-104140000D01*
X146304000Y-59944000D02*
X141224000Y-59944000D01*
D11*
X106172000Y-57658000D02*
X106172000Y-66294000D01*
D12*
X141224000Y-60198000D02*
X141224000Y-66802000D01*
D11*
X88392000Y-57785000D02*
X88392000Y-66167000D01*
X129540000Y-106934000D02*
X129540000Y-96520000D01*
X93980000Y-106934000D02*
X93980000Y-96520000D01*
X58420000Y-106934000D02*
X58420000Y-96520000D01*
X124206000Y-58039000D02*
X124206000Y-66929000D01*
X111760000Y-106934000D02*
X111760000Y-96520000D01*
D12*
X146304000Y-67056000D02*
X146304000Y-60452000D01*
X60198000Y-96012000D02*
X146304000Y-96266000D01*
X138938000Y-67818000D02*
X146304000Y-67818000D01*
D13*
%TO.C,U1*%
X51816000Y-85025000D03*
X53086000Y-85025000D03*
X54356000Y-85025000D03*
X55626000Y-85025000D03*
X56896000Y-85025000D03*
X58166000Y-85025000D03*
X59436000Y-85025000D03*
X59436000Y-80075000D03*
X58166000Y-80075000D03*
X56896000Y-80075000D03*
X55626000Y-80075000D03*
X54356000Y-80075000D03*
X53086000Y-80075000D03*
X51816000Y-80075000D03*
%TD*%
D14*
%TO.C,C6*%
X63754000Y-72476000D03*
X63754000Y-76876000D03*
%TD*%
D15*
%TO.C,J5*%
X144780000Y-81280000D03*
%TD*%
D16*
%TO.C,R8*%
X69596000Y-77874500D03*
X69596000Y-76049500D03*
%TD*%
%TO.C,R18*%
X70612000Y-112164500D03*
X70612000Y-110339500D03*
%TD*%
D17*
%TO.C,R19*%
X99314000Y-52935500D03*
X99314000Y-54760500D03*
%TD*%
D18*
%TO.C,C10*%
X101092000Y-85518000D03*
X101092000Y-75518000D03*
%TD*%
D17*
%TO.C,R17*%
X63754000Y-52935500D03*
X63754000Y-54760500D03*
%TD*%
D19*
%TO.C,C7*%
X67564000Y-76012000D03*
X67564000Y-77912000D03*
%TD*%
D20*
%TO.C,J1*%
X52856999Y-64545999D03*
D21*
X52856999Y-67085999D03*
X52856999Y-69625999D03*
X52856999Y-72165999D03*
X52856999Y-74705999D03*
%TD*%
D22*
%TO.C,D6*%
X117347999Y-88899999D03*
D23*
X117347999Y-76199999D03*
%TD*%
D24*
%TO.C,D2*%
X68579999Y-80149999D03*
X68579999Y-84949999D03*
%TD*%
D16*
%TO.C,R5*%
X61976000Y-89558500D03*
X61976000Y-87733500D03*
%TD*%
D22*
%TO.C,D7*%
X124713999Y-88899999D03*
D23*
X124713999Y-76199999D03*
%TD*%
D16*
%TO.C,R12*%
X63754000Y-112164500D03*
X63754000Y-110339500D03*
%TD*%
D25*
%TO.C,R21*%
X123293500Y-54356000D03*
X125118500Y-54356000D03*
%TD*%
D26*
%TO.C,R1*%
X57300500Y-67564000D03*
X55475500Y-67564000D03*
%TD*%
D27*
%TO.C,C8*%
X51882000Y-77724000D03*
X53782000Y-77724000D03*
%TD*%
D28*
%TO.C,C5*%
X71288000Y-89154000D03*
X66888000Y-89154000D03*
%TD*%
D18*
%TO.C,C11*%
X81788000Y-85772000D03*
X81788000Y-75772000D03*
%TD*%
D27*
%TO.C,C1*%
X55438000Y-69596000D03*
X57338000Y-69596000D03*
%TD*%
D17*
%TO.C,R11*%
X81534000Y-52935500D03*
X81534000Y-54760500D03*
%TD*%
D29*
%TO.C,U2*%
X61341000Y-85683000D03*
X62611000Y-85683000D03*
X63881000Y-85683000D03*
X65151000Y-85683000D03*
X65151000Y-80433000D03*
X63881000Y-80433000D03*
X62611000Y-80433000D03*
X61341000Y-80433000D03*
%TD*%
D17*
%TO.C,R13*%
X70866000Y-52935500D03*
X70866000Y-54760500D03*
%TD*%
D30*
%TO.C,D3*%
X69481999Y-73151999D03*
X74281999Y-73151999D03*
%TD*%
D15*
%TO.C,J4*%
X144780000Y-101600000D03*
%TD*%
D31*
%TO.C,R23*%
X99872000Y-88900000D03*
D32*
X102411999Y-88899999D03*
%TD*%
D25*
%TO.C,R22*%
X59285500Y-68834000D03*
X61110500Y-68834000D03*
%TD*%
D27*
%TO.C,C12*%
X59248000Y-71120000D03*
X61148000Y-71120000D03*
%TD*%
D30*
%TO.C,D4*%
X73037999Y-82295999D03*
X77837999Y-82295999D03*
%TD*%
D15*
%TO.C,J6*%
X144526000Y-63500000D03*
%TD*%
D16*
%TO.C,R16*%
X124206000Y-112164500D03*
X124206000Y-110339500D03*
%TD*%
%TO.C,R14*%
X88392000Y-112164500D03*
X88392000Y-110339500D03*
%TD*%
D18*
%TO.C,C9*%
X88392000Y-85772000D03*
X88392000Y-75772000D03*
%TD*%
D17*
%TO.C,R15*%
X117094000Y-52935500D03*
X117094000Y-54760500D03*
%TD*%
D22*
%TO.C,D5*%
X106679999Y-88899999D03*
D23*
X106679999Y-76199999D03*
%TD*%
D31*
%TO.C,R24*%
X80568000Y-88900000D03*
D32*
X83107999Y-88899999D03*
%TD*%
D26*
%TO.C,R2*%
X57300500Y-71628000D03*
X55475500Y-71628000D03*
%TD*%
D31*
%TO.C,R7*%
X87172000Y-88900000D03*
D32*
X89711999Y-88899999D03*
%TD*%
D16*
%TO.C,R6*%
X64008000Y-89558500D03*
X64008000Y-87733500D03*
%TD*%
D17*
%TO.C,R9*%
X71628000Y-76049500D03*
X71628000Y-77874500D03*
%TD*%
D27*
%TO.C,C2*%
X55438000Y-73660000D03*
X57338000Y-73660000D03*
%TD*%
D16*
%TO.C,R10*%
X53086000Y-112164500D03*
X53086000Y-110339500D03*
%TD*%
%TO.C,R20*%
X106172000Y-112164500D03*
X106172000Y-110339500D03*
%TD*%
D33*
%TO.C,Q7*%
X76199999Y-88094999D03*
D34*
X70749999Y-106894999D03*
D35*
X76199999Y-106894999D03*
X81649999Y-106894999D03*
%TD*%
D33*
%TO.C,Q4*%
X111759999Y-77004999D03*
D34*
X117209999Y-58204999D03*
D35*
X111759999Y-58204999D03*
X106309999Y-58204999D03*
%TD*%
D33*
%TO.C,Q9*%
X111759999Y-88094999D03*
D34*
X106309999Y-106894999D03*
D35*
X111759999Y-106894999D03*
X117209999Y-106894999D03*
%TD*%
D33*
%TO.C,Q5*%
X129655999Y-87879999D03*
D34*
X124205999Y-106679999D03*
D35*
X129655999Y-106679999D03*
X135105999Y-106679999D03*
%TD*%
D33*
%TO.C,Q10*%
X129539999Y-77004999D03*
D34*
X134989999Y-58204999D03*
D35*
X129539999Y-58204999D03*
X124089999Y-58204999D03*
%TD*%
D33*
%TO.C,Q6*%
X58419999Y-77004999D03*
D34*
X63869999Y-58204999D03*
D35*
X58419999Y-58204999D03*
X52969999Y-58204999D03*
%TD*%
D33*
%TO.C,Q1*%
X58419999Y-88094999D03*
D34*
X52969999Y-106894999D03*
D35*
X58419999Y-106894999D03*
X63869999Y-106894999D03*
%TD*%
D33*
%TO.C,Q8*%
X93979999Y-77004999D03*
D34*
X99429999Y-58204999D03*
D35*
X93979999Y-58204999D03*
X88529999Y-58204999D03*
%TD*%
D33*
%TO.C,Q2*%
X76199999Y-77004999D03*
D34*
X81649999Y-58204999D03*
D35*
X76199999Y-58204999D03*
X70749999Y-58204999D03*
%TD*%
D33*
%TO.C,Q3*%
X93979999Y-88094999D03*
D34*
X88529999Y-106894999D03*
D35*
X93979999Y-106894999D03*
X99429999Y-106894999D03*
%TD*%
M02*
