%TF.GenerationSoftware,KiCad,Pcbnew,(6.99.0-3568-gdcfcfd5f29)*%
%TF.CreationDate,2022-10-04T16:24:13+03:00*%
%TF.ProjectId,welder ac diy,77656c64-6572-4206-9163-206469792e6b,rev?*%
%TF.SameCoordinates,Original*%
%TF.FileFunction,Soldermask,Bot*%
%TF.FilePolarity,Negative*%
%FSLAX46Y46*%
G04 Gerber Fmt 4.6, Leading zero omitted, Abs format (unit mm)*
G04 Created by KiCad (PCBNEW (6.99.0-3568-gdcfcfd5f29)) date 2022-10-04 16:24:13*
%MOMM*%
%LPD*%
G01*
G04 APERTURE LIST*
%ADD10C,3.500000*%
%ADD11C,7.000000*%
%ADD12C,6.000000*%
%ADD13C,2.000000*%
%ADD14R,1.700000X1.700000*%
%ADD15O,1.700000X1.700000*%
%ADD16R,2.800000X2.800000*%
%ADD17O,2.800000X2.800000*%
%ADD18C,1.400000*%
%ADD19O,1.400000X1.400000*%
%ADD20O,3.400000X3.400000*%
%ADD21R,2.500000X4.500000*%
%ADD22O,2.500000X4.500000*%
G04 APERTURE END LIST*
D10*
X135128000Y-106934000D02*
X135128000Y-99060000D01*
D11*
X145034000Y-82042000D02*
X130556000Y-67564000D01*
D10*
X63754000Y-107442000D02*
X63754000Y-96266000D01*
D11*
X132842000Y-96012000D02*
X144526000Y-84328000D01*
D10*
X99314000Y-107569000D02*
X99314000Y-96647000D01*
D11*
X130556000Y-67564000D02*
X77724000Y-67564000D01*
D10*
X81534000Y-107442000D02*
X81534000Y-96266000D01*
X117094000Y-107569000D02*
X117094000Y-97155000D01*
D11*
X146304000Y-77724000D02*
X140779500Y-77724000D01*
X146304000Y-78486000D02*
X146304000Y-84264500D01*
X146304000Y-85090000D02*
X141478000Y-85026500D01*
D10*
X111760000Y-58166000D02*
X111760000Y-66802000D01*
X76200000Y-58420000D02*
X76200000Y-66802000D01*
X129540000Y-58166000D02*
X129540000Y-66802000D01*
X58420000Y-62738000D02*
X58420000Y-58166000D01*
X75692000Y-68326000D02*
X64008000Y-68326000D01*
X64008000Y-68326000D02*
X58420000Y-62738000D01*
D11*
X65532000Y-96012000D02*
X132842000Y-96012000D01*
D10*
X93980000Y-58166000D02*
X93980000Y-66802000D01*
D11*
X141478000Y-79248000D02*
X141478000Y-85026500D01*
D12*
%TO.C,J5*%
X144780000Y-81280000D03*
%TD*%
D13*
%TO.C,C10*%
X101092000Y-85518000D03*
X101092000Y-75518000D03*
%TD*%
D14*
%TO.C,J1*%
X52856999Y-64545999D03*
D15*
X52856999Y-67085999D03*
X52856999Y-69625999D03*
X52856999Y-72165999D03*
X52856999Y-74705999D03*
%TD*%
D16*
%TO.C,D6*%
X117347999Y-88899999D03*
D17*
X117347999Y-76199999D03*
%TD*%
D16*
%TO.C,D7*%
X124713999Y-88899999D03*
D17*
X124713999Y-76199999D03*
%TD*%
D13*
%TO.C,C11*%
X81788000Y-85772000D03*
X81788000Y-75772000D03*
%TD*%
D12*
%TO.C,J4*%
X144780000Y-101600000D03*
%TD*%
D18*
%TO.C,R23*%
X99872000Y-88900000D03*
D19*
X102411999Y-88899999D03*
%TD*%
D12*
%TO.C,J6*%
X144526000Y-63500000D03*
%TD*%
D13*
%TO.C,C9*%
X88392000Y-85772000D03*
X88392000Y-75772000D03*
%TD*%
D16*
%TO.C,D5*%
X106679999Y-88899999D03*
D17*
X106679999Y-76199999D03*
%TD*%
D18*
%TO.C,R24*%
X80568000Y-88900000D03*
D19*
X83107999Y-88899999D03*
%TD*%
D18*
%TO.C,R7*%
X87172000Y-88900000D03*
D19*
X89711999Y-88899999D03*
%TD*%
D20*
%TO.C,Q7*%
X76199999Y-88094999D03*
D21*
X70749999Y-106894999D03*
D22*
X76199999Y-106894999D03*
X81649999Y-106894999D03*
%TD*%
D20*
%TO.C,Q4*%
X111759999Y-77004999D03*
D21*
X117209999Y-58204999D03*
D22*
X111759999Y-58204999D03*
X106309999Y-58204999D03*
%TD*%
D20*
%TO.C,Q9*%
X111759999Y-88094999D03*
D21*
X106309999Y-106894999D03*
D22*
X111759999Y-106894999D03*
X117209999Y-106894999D03*
%TD*%
D20*
%TO.C,Q5*%
X129655999Y-87879999D03*
D21*
X124205999Y-106679999D03*
D22*
X129655999Y-106679999D03*
X135105999Y-106679999D03*
%TD*%
D20*
%TO.C,Q10*%
X129539999Y-77004999D03*
D21*
X134989999Y-58204999D03*
D22*
X129539999Y-58204999D03*
X124089999Y-58204999D03*
%TD*%
D20*
%TO.C,Q6*%
X58419999Y-77004999D03*
D21*
X63869999Y-58204999D03*
D22*
X58419999Y-58204999D03*
X52969999Y-58204999D03*
%TD*%
D20*
%TO.C,Q1*%
X58419999Y-88094999D03*
D21*
X52969999Y-106894999D03*
D22*
X58419999Y-106894999D03*
X63869999Y-106894999D03*
%TD*%
D20*
%TO.C,Q8*%
X93979999Y-77004999D03*
D21*
X99429999Y-58204999D03*
D22*
X93979999Y-58204999D03*
X88529999Y-58204999D03*
%TD*%
D20*
%TO.C,Q2*%
X76199999Y-77004999D03*
D21*
X81649999Y-58204999D03*
D22*
X76199999Y-58204999D03*
X70749999Y-58204999D03*
%TD*%
D20*
%TO.C,Q3*%
X93979999Y-88094999D03*
D21*
X88529999Y-106894999D03*
D22*
X93979999Y-106894999D03*
X99429999Y-106894999D03*
%TD*%
M02*
