%TF.GenerationSoftware,KiCad,Pcbnew,(6.99.0-3568-gdcfcfd5f29)*%
%TF.CreationDate,2022-10-04T16:24:13+03:00*%
%TF.ProjectId,welder ac diy,77656c64-6572-4206-9163-206469792e6b,rev?*%
%TF.SameCoordinates,Original*%
%TF.FileFunction,Paste,Top*%
%TF.FilePolarity,Positive*%
%FSLAX46Y46*%
G04 Gerber Fmt 4.6, Leading zero omitted, Abs format (unit mm)*
G04 Created by KiCad (PCBNEW (6.99.0-3568-gdcfcfd5f29)) date 2022-10-04 16:24:13*
%MOMM*%
%LPD*%
G01*
G04 APERTURE LIST*
G04 Aperture macros list*
%AMRoundRect*
0 Rectangle with rounded corners*
0 $1 Rounding radius*
0 $2 $3 $4 $5 $6 $7 $8 $9 X,Y pos of 4 corners*
0 Add a 4 corners polygon primitive as box body*
4,1,4,$2,$3,$4,$5,$6,$7,$8,$9,$2,$3,0*
0 Add four circle primitives for the rounded corners*
1,1,$1+$1,$2,$3*
1,1,$1+$1,$4,$5*
1,1,$1+$1,$6,$7*
1,1,$1+$1,$8,$9*
0 Add four rect primitives between the rounded corners*
20,1,$1+$1,$2,$3,$4,$5,0*
20,1,$1+$1,$4,$5,$6,$7,0*
20,1,$1+$1,$6,$7,$8,$9,0*
20,1,$1+$1,$8,$9,$2,$3,0*%
G04 Aperture macros list end*
%ADD10RoundRect,0.150000X0.150000X-0.825000X0.150000X0.825000X-0.150000X0.825000X-0.150000X-0.825000X0*%
%ADD11RoundRect,0.250000X-0.550000X1.250000X-0.550000X-1.250000X0.550000X-1.250000X0.550000X1.250000X0*%
%ADD12RoundRect,0.250000X0.450000X-0.262500X0.450000X0.262500X-0.450000X0.262500X-0.450000X-0.262500X0*%
%ADD13RoundRect,0.250000X-0.450000X0.262500X-0.450000X-0.262500X0.450000X-0.262500X0.450000X0.262500X0*%
%ADD14RoundRect,0.250000X-0.475000X0.250000X-0.475000X-0.250000X0.475000X-0.250000X0.475000X0.250000X0*%
%ADD15R,2.700000X1.500000*%
%ADD16RoundRect,0.250000X-0.262500X-0.450000X0.262500X-0.450000X0.262500X0.450000X-0.262500X0.450000X0*%
%ADD17RoundRect,0.250000X0.262500X0.450000X-0.262500X0.450000X-0.262500X-0.450000X0.262500X-0.450000X0*%
%ADD18RoundRect,0.250000X-0.250000X-0.475000X0.250000X-0.475000X0.250000X0.475000X-0.250000X0.475000X0*%
%ADD19RoundRect,0.250000X1.250000X0.550000X-1.250000X0.550000X-1.250000X-0.550000X1.250000X-0.550000X0*%
%ADD20RoundRect,0.150000X0.150000X-0.675000X0.150000X0.675000X-0.150000X0.675000X-0.150000X-0.675000X0*%
%ADD21R,1.500000X2.700000*%
G04 APERTURE END LIST*
D10*
%TO.C,U1*%
X51816000Y-85025000D03*
X53086000Y-85025000D03*
X54356000Y-85025000D03*
X55626000Y-85025000D03*
X56896000Y-85025000D03*
X58166000Y-85025000D03*
X59436000Y-85025000D03*
X59436000Y-80075000D03*
X58166000Y-80075000D03*
X56896000Y-80075000D03*
X55626000Y-80075000D03*
X54356000Y-80075000D03*
X53086000Y-80075000D03*
X51816000Y-80075000D03*
%TD*%
D11*
%TO.C,C6*%
X63754000Y-72476000D03*
X63754000Y-76876000D03*
%TD*%
D12*
%TO.C,R8*%
X69596000Y-77874500D03*
X69596000Y-76049500D03*
%TD*%
%TO.C,R18*%
X70612000Y-112164500D03*
X70612000Y-110339500D03*
%TD*%
D13*
%TO.C,R19*%
X99314000Y-52935500D03*
X99314000Y-54760500D03*
%TD*%
%TO.C,R17*%
X63754000Y-52935500D03*
X63754000Y-54760500D03*
%TD*%
D14*
%TO.C,C7*%
X67564000Y-76012000D03*
X67564000Y-77912000D03*
%TD*%
D15*
%TO.C,D2*%
X68579999Y-80149999D03*
X68579999Y-84949999D03*
%TD*%
D12*
%TO.C,R5*%
X61976000Y-89558500D03*
X61976000Y-87733500D03*
%TD*%
%TO.C,R12*%
X63754000Y-112164500D03*
X63754000Y-110339500D03*
%TD*%
D16*
%TO.C,R21*%
X123293500Y-54356000D03*
X125118500Y-54356000D03*
%TD*%
D17*
%TO.C,R1*%
X57300500Y-67564000D03*
X55475500Y-67564000D03*
%TD*%
D18*
%TO.C,C8*%
X51882000Y-77724000D03*
X53782000Y-77724000D03*
%TD*%
D19*
%TO.C,C5*%
X71288000Y-89154000D03*
X66888000Y-89154000D03*
%TD*%
D18*
%TO.C,C1*%
X55438000Y-69596000D03*
X57338000Y-69596000D03*
%TD*%
D13*
%TO.C,R11*%
X81534000Y-52935500D03*
X81534000Y-54760500D03*
%TD*%
D20*
%TO.C,U2*%
X61341000Y-85683000D03*
X62611000Y-85683000D03*
X63881000Y-85683000D03*
X65151000Y-85683000D03*
X65151000Y-80433000D03*
X63881000Y-80433000D03*
X62611000Y-80433000D03*
X61341000Y-80433000D03*
%TD*%
D13*
%TO.C,R13*%
X70866000Y-52935500D03*
X70866000Y-54760500D03*
%TD*%
D21*
%TO.C,D3*%
X69481999Y-73151999D03*
X74281999Y-73151999D03*
%TD*%
D16*
%TO.C,R22*%
X59285500Y-68834000D03*
X61110500Y-68834000D03*
%TD*%
D18*
%TO.C,C12*%
X59248000Y-71120000D03*
X61148000Y-71120000D03*
%TD*%
D21*
%TO.C,D4*%
X73037999Y-82295999D03*
X77837999Y-82295999D03*
%TD*%
D12*
%TO.C,R16*%
X124206000Y-112164500D03*
X124206000Y-110339500D03*
%TD*%
%TO.C,R14*%
X88392000Y-112164500D03*
X88392000Y-110339500D03*
%TD*%
D13*
%TO.C,R15*%
X117094000Y-52935500D03*
X117094000Y-54760500D03*
%TD*%
D17*
%TO.C,R2*%
X57300500Y-71628000D03*
X55475500Y-71628000D03*
%TD*%
D12*
%TO.C,R6*%
X64008000Y-89558500D03*
X64008000Y-87733500D03*
%TD*%
D13*
%TO.C,R9*%
X71628000Y-76049500D03*
X71628000Y-77874500D03*
%TD*%
D18*
%TO.C,C2*%
X55438000Y-73660000D03*
X57338000Y-73660000D03*
%TD*%
D12*
%TO.C,R10*%
X53086000Y-112164500D03*
X53086000Y-110339500D03*
%TD*%
%TO.C,R20*%
X106172000Y-112164500D03*
X106172000Y-110339500D03*
%TD*%
M02*
